<?xml version="1.0" encoding="utf-8" standalone="no"?>
<!DOCTYPE svg PUBLIC "-//W3C//DTD SVG 1.1//EN"
  "http://www.w3.org/Graphics/SVG/1.1/DTD/svg11.dtd">
<!-- Created with matplotlib (https://matplotlib.org/) -->
<svg height="360pt" version="1.1" viewBox="0 0 576 360" width="576pt" xmlns="http://www.w3.org/2000/svg" xmlns:xlink="http://www.w3.org/1999/xlink">
 <defs>
  <style type="text/css">
*{stroke-linecap:butt;stroke-linejoin:round;}
  </style>
 </defs>
 <g id="figure_1">
  <g id="patch_1">
   <path d="M 0 360 
L 576 360 
L 576 0 
L 0 0 
z
" style="fill:#ffffff;"/>
  </g>
  <g id="axes_1">
   <g id="patch_2">
    <path d="M 72 320.4 
L 518.4 320.4 
L 518.4 43.2 
L 72 43.2 
z
" style="fill:#ffffff;"/>
   </g>
   <g id="matplotlib.axis_1">
    <g id="xtick_1">
     <g id="line2d_1">
      <path clip-path="url(#pb3a33aeda8)" d="M 72 320.4 
L 72 43.2 
" style="fill:none;stroke:#b0b0b0;stroke-dasharray:2.96,1.28;stroke-dashoffset:0;stroke-width:0.8;"/>
     </g>
     <g id="line2d_2">
      <defs>
       <path d="M 0 0 
L 0 3.5 
" id="mc20eb8ab93" style="stroke:#000000;stroke-width:0.8;"/>
      </defs>
      <g>
       <use style="stroke:#000000;stroke-width:0.8;" x="72" xlink:href="#mc20eb8ab93" y="320.4"/>
      </g>
     </g>
     <g id="text_1">
      <!-- 0 -->
      <defs>
       <path d="M 46 36.53125 
Q 46 50.203125 43.4375 55.78125 
Q 40.875 61.375 34.8125 61.375 
Q 28.765625 61.375 26.171875 55.78125 
Q 23.578125 50.203125 23.578125 36.53125 
Q 23.578125 22.703125 26.171875 17.03125 
Q 28.765625 11.375 34.8125 11.375 
Q 40.828125 11.375 43.40625 17.03125 
Q 46 22.703125 46 36.53125 
z
M 64.796875 36.375 
Q 64.796875 18.265625 56.984375 8.421875 
Q 49.171875 -1.421875 34.8125 -1.421875 
Q 20.40625 -1.421875 12.59375 8.421875 
Q 4.78125 18.265625 4.78125 36.375 
Q 4.78125 54.546875 12.59375 64.375 
Q 20.40625 74.21875 34.8125 74.21875 
Q 49.171875 74.21875 56.984375 64.375 
Q 64.796875 54.546875 64.796875 36.375 
z
" id="DejaVuSans-Bold-48"/>
      </defs>
      <g transform="translate(66.781641 338.797656)scale(0.15 -0.15)">
       <use xlink:href="#DejaVuSans-Bold-48"/>
      </g>
     </g>
    </g>
    <g id="xtick_2">
     <g id="line2d_3">
      <path clip-path="url(#pb3a33aeda8)" d="M 161.28 320.4 
L 161.28 43.2 
" style="fill:none;stroke:#b0b0b0;stroke-dasharray:2.96,1.28;stroke-dashoffset:0;stroke-width:0.8;"/>
     </g>
     <g id="line2d_4">
      <g>
       <use style="stroke:#000000;stroke-width:0.8;" x="161.28" xlink:href="#mc20eb8ab93" y="320.4"/>
      </g>
     </g>
     <g id="text_2">
      <!-- 1 -->
      <defs>
       <path d="M 11.71875 12.984375 
L 28.328125 12.984375 
L 28.328125 60.109375 
L 11.28125 56.59375 
L 11.28125 69.390625 
L 28.21875 72.90625 
L 46.09375 72.90625 
L 46.09375 12.984375 
L 62.703125 12.984375 
L 62.703125 0 
L 11.71875 0 
z
" id="DejaVuSans-Bold-49"/>
      </defs>
      <g transform="translate(156.061641 338.797656)scale(0.15 -0.15)">
       <use xlink:href="#DejaVuSans-Bold-49"/>
      </g>
     </g>
    </g>
    <g id="xtick_3">
     <g id="line2d_5">
      <path clip-path="url(#pb3a33aeda8)" d="M 250.56 320.4 
L 250.56 43.2 
" style="fill:none;stroke:#b0b0b0;stroke-dasharray:2.96,1.28;stroke-dashoffset:0;stroke-width:0.8;"/>
     </g>
     <g id="line2d_6">
      <g>
       <use style="stroke:#000000;stroke-width:0.8;" x="250.56" xlink:href="#mc20eb8ab93" y="320.4"/>
      </g>
     </g>
     <g id="text_3">
      <!-- 2 -->
      <defs>
       <path d="M 28.8125 13.8125 
L 60.890625 13.8125 
L 60.890625 0 
L 7.90625 0 
L 7.90625 13.8125 
L 34.515625 37.3125 
Q 38.09375 40.53125 39.796875 43.609375 
Q 41.5 46.6875 41.5 50 
Q 41.5 55.125 38.0625 58.25 
Q 34.625 61.375 28.90625 61.375 
Q 24.515625 61.375 19.28125 59.5 
Q 14.0625 57.625 8.109375 53.90625 
L 8.109375 69.921875 
Q 14.453125 72.015625 20.65625 73.109375 
Q 26.859375 74.21875 32.8125 74.21875 
Q 45.90625 74.21875 53.15625 68.453125 
Q 60.40625 62.703125 60.40625 52.390625 
Q 60.40625 46.4375 57.328125 41.28125 
Q 54.25 36.140625 44.390625 27.484375 
z
" id="DejaVuSans-Bold-50"/>
      </defs>
      <g transform="translate(245.341641 338.797656)scale(0.15 -0.15)">
       <use xlink:href="#DejaVuSans-Bold-50"/>
      </g>
     </g>
    </g>
    <g id="xtick_4">
     <g id="line2d_7">
      <path clip-path="url(#pb3a33aeda8)" d="M 339.84 320.4 
L 339.84 43.2 
" style="fill:none;stroke:#b0b0b0;stroke-dasharray:2.96,1.28;stroke-dashoffset:0;stroke-width:0.8;"/>
     </g>
     <g id="line2d_8">
      <g>
       <use style="stroke:#000000;stroke-width:0.8;" x="339.84" xlink:href="#mc20eb8ab93" y="320.4"/>
      </g>
     </g>
     <g id="text_4">
      <!-- 3 -->
      <defs>
       <path d="M 46.578125 39.3125 
Q 53.953125 37.40625 57.78125 32.6875 
Q 61.625 27.984375 61.625 20.703125 
Q 61.625 9.859375 53.3125 4.21875 
Q 45.015625 -1.421875 29.109375 -1.421875 
Q 23.484375 -1.421875 17.84375 -0.515625 
Q 12.203125 0.390625 6.6875 2.203125 
L 6.6875 16.703125 
Q 11.96875 14.0625 17.15625 12.71875 
Q 22.359375 11.375 27.390625 11.375 
Q 34.859375 11.375 38.84375 13.953125 
Q 42.828125 16.546875 42.828125 21.390625 
Q 42.828125 26.375 38.75 28.9375 
Q 34.671875 31.5 26.703125 31.5 
L 19.1875 31.5 
L 19.1875 43.609375 
L 27.09375 43.609375 
Q 34.1875 43.609375 37.640625 45.828125 
Q 41.109375 48.046875 41.109375 52.59375 
Q 41.109375 56.78125 37.734375 59.078125 
Q 34.375 61.375 28.21875 61.375 
Q 23.6875 61.375 19.046875 60.34375 
Q 14.40625 59.328125 9.8125 57.328125 
L 9.8125 71.09375 
Q 15.375 72.65625 20.84375 73.4375 
Q 26.3125 74.21875 31.59375 74.21875 
Q 45.796875 74.21875 52.84375 69.546875 
Q 59.90625 64.890625 59.90625 55.515625 
Q 59.90625 49.125 56.53125 45.046875 
Q 53.171875 40.96875 46.578125 39.3125 
z
" id="DejaVuSans-Bold-51"/>
      </defs>
      <g transform="translate(334.621641 338.797656)scale(0.15 -0.15)">
       <use xlink:href="#DejaVuSans-Bold-51"/>
      </g>
     </g>
    </g>
    <g id="xtick_5">
     <g id="line2d_9">
      <path clip-path="url(#pb3a33aeda8)" d="M 429.12 320.4 
L 429.12 43.2 
" style="fill:none;stroke:#b0b0b0;stroke-dasharray:2.96,1.28;stroke-dashoffset:0;stroke-width:0.8;"/>
     </g>
     <g id="line2d_10">
      <g>
       <use style="stroke:#000000;stroke-width:0.8;" x="429.12" xlink:href="#mc20eb8ab93" y="320.4"/>
      </g>
     </g>
     <g id="text_5">
      <!-- 4 -->
      <defs>
       <path d="M 36.8125 57.421875 
L 16.21875 26.90625 
L 36.8125 26.90625 
z
M 33.6875 72.90625 
L 54.59375 72.90625 
L 54.59375 26.90625 
L 64.984375 26.90625 
L 64.984375 13.28125 
L 54.59375 13.28125 
L 54.59375 0 
L 36.8125 0 
L 36.8125 13.28125 
L 4.5 13.28125 
L 4.5 29.390625 
z
" id="DejaVuSans-Bold-52"/>
      </defs>
      <g transform="translate(423.901641 338.797656)scale(0.15 -0.15)">
       <use xlink:href="#DejaVuSans-Bold-52"/>
      </g>
     </g>
    </g>
    <g id="xtick_6">
     <g id="line2d_11">
      <path clip-path="url(#pb3a33aeda8)" d="M 518.4 320.4 
L 518.4 43.2 
" style="fill:none;stroke:#b0b0b0;stroke-dasharray:2.96,1.28;stroke-dashoffset:0;stroke-width:0.8;"/>
     </g>
     <g id="line2d_12">
      <g>
       <use style="stroke:#000000;stroke-width:0.8;" x="518.4" xlink:href="#mc20eb8ab93" y="320.4"/>
      </g>
     </g>
     <g id="text_6">
      <!-- 5 -->
      <defs>
       <path d="M 10.59375 72.90625 
L 57.328125 72.90625 
L 57.328125 59.078125 
L 25.59375 59.078125 
L 25.59375 47.796875 
Q 27.734375 48.390625 29.90625 48.703125 
Q 32.078125 49.03125 34.421875 49.03125 
Q 47.75 49.03125 55.171875 42.359375 
Q 62.59375 35.6875 62.59375 23.78125 
Q 62.59375 11.96875 54.515625 5.265625 
Q 46.4375 -1.421875 32.078125 -1.421875 
Q 25.875 -1.421875 19.796875 -0.21875 
Q 13.71875 0.984375 7.71875 3.421875 
L 7.71875 18.21875 
Q 13.671875 14.796875 19.015625 13.078125 
Q 24.359375 11.375 29.109375 11.375 
Q 35.9375 11.375 39.859375 14.71875 
Q 43.796875 18.0625 43.796875 23.78125 
Q 43.796875 29.546875 39.859375 32.859375 
Q 35.9375 36.1875 29.109375 36.1875 
Q 25.046875 36.1875 20.453125 35.125 
Q 15.875 34.078125 10.59375 31.890625 
z
" id="DejaVuSans-Bold-53"/>
      </defs>
      <g transform="translate(513.181641 338.797656)scale(0.15 -0.15)">
       <use xlink:href="#DejaVuSans-Bold-53"/>
      </g>
     </g>
    </g>
    <g id="text_7">
     <!-- $\sigma$ -->
     <defs>
      <path d="M 34.671875 47.5625 
Q 27.25 47.5625 22.21875 42.1875 
Q 16.890625 36.578125 15.140625 27.296875 
Q 13.1875 17.484375 16.3125 11.8125 
Q 19.390625 6.203125 26.65625 6.203125 
Q 33.84375 6.203125 39.109375 11.859375 
Q 44.4375 17.53125 46.34375 27.296875 
Q 48.046875 36.234375 45.015625 42.1875 
Q 42.1875 47.5625 34.671875 47.5625 
z
M 36.078125 54.734375 
L 65.921875 54.6875 
L 64.15625 45.703125 
L 54.109375 45.703125 
Q 57.90625 38.09375 55.859375 27.296875 
Q 53.21875 13.875 45.0625 6.25 
Q 36.859375 -1.421875 25.140625 -1.421875 
Q 13.375 -1.421875 8.203125 6.25 
Q 3.03125 13.875 5.671875 27.296875 
Q 8.25 40.765625 16.40625 48.390625 
Q 23.1875 54.734375 36.078125 54.734375 
z
" id="DejaVuSans-Oblique-963"/>
     </defs>
     <g transform="translate(289.76 358.834531)scale(0.17 -0.17)">
      <use transform="translate(0 0.265625)" xlink:href="#DejaVuSans-Oblique-963"/>
     </g>
    </g>
   </g>
   <g id="matplotlib.axis_2">
    <g id="ytick_1">
     <g id="line2d_13">
      <path clip-path="url(#pb3a33aeda8)" d="M 72 307.8 
L 518.4 307.8 
" style="fill:none;stroke:#b0b0b0;stroke-dasharray:2.96,1.28;stroke-dashoffset:0;stroke-width:0.8;"/>
     </g>
     <g id="line2d_14">
      <defs>
       <path d="M 0 0 
L -3.5 0 
" id="med35de7143" style="stroke:#000000;stroke-width:0.8;"/>
      </defs>
      <g>
       <use style="stroke:#000000;stroke-width:0.8;" x="72" xlink:href="#med35de7143" y="307.8"/>
      </g>
     </g>
     <g id="text_8">
      <!-- 0.0 -->
      <defs>
       <path d="M 10.203125 18.890625 
L 27.78125 18.890625 
L 27.78125 0 
L 10.203125 0 
z
" id="DejaVuSans-Bold-46"/>
      </defs>
      <g transform="translate(38.428906 313.498828)scale(0.15 -0.15)">
       <use xlink:href="#DejaVuSans-Bold-48"/>
       <use x="69.580078" xlink:href="#DejaVuSans-Bold-46"/>
       <use x="107.568359" xlink:href="#DejaVuSans-Bold-48"/>
      </g>
     </g>
    </g>
    <g id="ytick_2">
     <g id="line2d_15">
      <path clip-path="url(#pb3a33aeda8)" d="M 72 256.914121 
L 518.4 256.914121 
" style="fill:none;stroke:#b0b0b0;stroke-dasharray:2.96,1.28;stroke-dashoffset:0;stroke-width:0.8;"/>
     </g>
     <g id="line2d_16">
      <g>
       <use style="stroke:#000000;stroke-width:0.8;" x="72" xlink:href="#med35de7143" y="256.914121"/>
      </g>
     </g>
     <g id="text_9">
      <!-- 0.2 -->
      <g transform="translate(38.428906 262.612949)scale(0.15 -0.15)">
       <use xlink:href="#DejaVuSans-Bold-48"/>
       <use x="69.580078" xlink:href="#DejaVuSans-Bold-46"/>
       <use x="107.568359" xlink:href="#DejaVuSans-Bold-50"/>
      </g>
     </g>
    </g>
    <g id="ytick_3">
     <g id="line2d_17">
      <path clip-path="url(#pb3a33aeda8)" d="M 72 206.028242 
L 518.4 206.028242 
" style="fill:none;stroke:#b0b0b0;stroke-dasharray:2.96,1.28;stroke-dashoffset:0;stroke-width:0.8;"/>
     </g>
     <g id="line2d_18">
      <g>
       <use style="stroke:#000000;stroke-width:0.8;" x="72" xlink:href="#med35de7143" y="206.028242"/>
      </g>
     </g>
     <g id="text_10">
      <!-- 0.4 -->
      <g transform="translate(38.428906 211.72707)scale(0.15 -0.15)">
       <use xlink:href="#DejaVuSans-Bold-48"/>
       <use x="69.580078" xlink:href="#DejaVuSans-Bold-46"/>
       <use x="107.568359" xlink:href="#DejaVuSans-Bold-52"/>
      </g>
     </g>
    </g>
    <g id="ytick_4">
     <g id="line2d_19">
      <path clip-path="url(#pb3a33aeda8)" d="M 72 155.142363 
L 518.4 155.142363 
" style="fill:none;stroke:#b0b0b0;stroke-dasharray:2.96,1.28;stroke-dashoffset:0;stroke-width:0.8;"/>
     </g>
     <g id="line2d_20">
      <g>
       <use style="stroke:#000000;stroke-width:0.8;" x="72" xlink:href="#med35de7143" y="155.142363"/>
      </g>
     </g>
     <g id="text_11">
      <!-- 0.6 -->
      <defs>
       <path d="M 36.1875 35.984375 
Q 31.25 35.984375 28.78125 32.78125 
Q 26.3125 29.59375 26.3125 23.1875 
Q 26.3125 16.796875 28.78125 13.59375 
Q 31.25 10.40625 36.1875 10.40625 
Q 41.15625 10.40625 43.625 13.59375 
Q 46.09375 16.796875 46.09375 23.1875 
Q 46.09375 29.59375 43.625 32.78125 
Q 41.15625 35.984375 36.1875 35.984375 
z
M 59.421875 71 
L 59.421875 57.515625 
Q 54.78125 59.71875 50.671875 60.765625 
Q 46.578125 61.8125 42.671875 61.8125 
Q 34.28125 61.8125 29.59375 57.140625 
Q 24.90625 52.484375 24.125 43.3125 
Q 27.34375 45.703125 31.09375 46.890625 
Q 34.859375 48.09375 39.3125 48.09375 
Q 50.484375 48.09375 57.34375 41.546875 
Q 64.203125 35.015625 64.203125 24.421875 
Q 64.203125 12.703125 56.53125 5.640625 
Q 48.875 -1.421875 35.984375 -1.421875 
Q 21.78125 -1.421875 13.984375 8.171875 
Q 6.203125 17.78125 6.203125 35.40625 
Q 6.203125 53.46875 15.3125 63.796875 
Q 24.421875 74.125 40.28125 74.125 
Q 45.3125 74.125 50.046875 73.34375 
Q 54.78125 72.5625 59.421875 71 
z
" id="DejaVuSans-Bold-54"/>
      </defs>
      <g transform="translate(38.428906 160.841191)scale(0.15 -0.15)">
       <use xlink:href="#DejaVuSans-Bold-48"/>
       <use x="69.580078" xlink:href="#DejaVuSans-Bold-46"/>
       <use x="107.568359" xlink:href="#DejaVuSans-Bold-54"/>
      </g>
     </g>
    </g>
    <g id="ytick_5">
     <g id="line2d_21">
      <path clip-path="url(#pb3a33aeda8)" d="M 72 104.256484 
L 518.4 104.256484 
" style="fill:none;stroke:#b0b0b0;stroke-dasharray:2.96,1.28;stroke-dashoffset:0;stroke-width:0.8;"/>
     </g>
     <g id="line2d_22">
      <g>
       <use style="stroke:#000000;stroke-width:0.8;" x="72" xlink:href="#med35de7143" y="104.256484"/>
      </g>
     </g>
     <g id="text_12">
      <!-- 0.8 -->
      <defs>
       <path d="M 34.8125 32.625 
Q 29.546875 32.625 26.703125 29.734375 
Q 23.875 26.859375 23.875 21.484375 
Q 23.875 16.109375 26.703125 13.25 
Q 29.546875 10.40625 34.8125 10.40625 
Q 40.046875 10.40625 42.828125 13.25 
Q 45.609375 16.109375 45.609375 21.484375 
Q 45.609375 26.90625 42.828125 29.765625 
Q 40.046875 32.625 34.8125 32.625 
z
M 21.09375 38.8125 
Q 14.453125 40.828125 11.078125 44.96875 
Q 7.71875 49.125 7.71875 55.328125 
Q 7.71875 64.546875 14.59375 69.375 
Q 21.484375 74.21875 34.8125 74.21875 
Q 48.046875 74.21875 54.921875 69.40625 
Q 61.8125 64.59375 61.8125 55.328125 
Q 61.8125 49.125 58.421875 44.96875 
Q 55.03125 40.828125 48.390625 38.8125 
Q 55.8125 36.765625 59.59375 32.15625 
Q 63.375 27.546875 63.375 20.515625 
Q 63.375 9.671875 56.171875 4.125 
Q 48.96875 -1.421875 34.8125 -1.421875 
Q 20.609375 -1.421875 13.359375 4.125 
Q 6.109375 9.671875 6.109375 20.515625 
Q 6.109375 27.546875 9.890625 32.15625 
Q 13.671875 36.765625 21.09375 38.8125 
z
M 25.484375 53.421875 
Q 25.484375 49.078125 27.90625 46.734375 
Q 30.328125 44.390625 34.8125 44.390625 
Q 39.203125 44.390625 41.59375 46.734375 
Q 44 49.078125 44 53.421875 
Q 44 57.765625 41.59375 60.078125 
Q 39.203125 62.40625 34.8125 62.40625 
Q 30.328125 62.40625 27.90625 60.0625 
Q 25.484375 57.71875 25.484375 53.421875 
z
" id="DejaVuSans-Bold-56"/>
      </defs>
      <g transform="translate(38.428906 109.955312)scale(0.15 -0.15)">
       <use xlink:href="#DejaVuSans-Bold-48"/>
       <use x="69.580078" xlink:href="#DejaVuSans-Bold-46"/>
       <use x="107.568359" xlink:href="#DejaVuSans-Bold-56"/>
      </g>
     </g>
    </g>
    <g id="ytick_6">
     <g id="line2d_23">
      <path clip-path="url(#pb3a33aeda8)" d="M 72 53.370605 
L 518.4 53.370605 
" style="fill:none;stroke:#b0b0b0;stroke-dasharray:2.96,1.28;stroke-dashoffset:0;stroke-width:0.8;"/>
     </g>
     <g id="line2d_24">
      <g>
       <use style="stroke:#000000;stroke-width:0.8;" x="72" xlink:href="#med35de7143" y="53.370605"/>
      </g>
     </g>
     <g id="text_13">
      <!-- 1.0 -->
      <g transform="translate(38.428906 59.069433)scale(0.15 -0.15)">
       <use xlink:href="#DejaVuSans-Bold-49"/>
       <use x="69.580078" xlink:href="#DejaVuSans-Bold-46"/>
       <use x="107.568359" xlink:href="#DejaVuSans-Bold-48"/>
      </g>
     </g>
    </g>
    <g id="text_14">
     <!-- Score -->
     <defs>
      <path d="M 59.90625 70.609375 
L 59.90625 55.171875 
Q 53.90625 57.859375 48.1875 59.21875 
Q 42.484375 60.59375 37.40625 60.59375 
Q 30.671875 60.59375 27.4375 58.734375 
Q 24.21875 56.890625 24.21875 52.984375 
Q 24.21875 50.046875 26.390625 48.40625 
Q 28.5625 46.78125 34.28125 45.609375 
L 42.28125 44 
Q 54.4375 41.546875 59.5625 36.5625 
Q 64.703125 31.59375 64.703125 22.40625 
Q 64.703125 10.359375 57.546875 4.46875 
Q 50.390625 -1.421875 35.6875 -1.421875 
Q 28.765625 -1.421875 21.78125 -0.09375 
Q 14.796875 1.21875 7.8125 3.8125 
L 7.8125 19.671875 
Q 14.796875 15.96875 21.3125 14.078125 
Q 27.828125 12.203125 33.890625 12.203125 
Q 40.046875 12.203125 43.3125 14.25 
Q 46.578125 16.3125 46.578125 20.125 
Q 46.578125 23.53125 44.359375 25.390625 
Q 42.140625 27.25 35.5 28.71875 
L 28.21875 30.328125 
Q 17.28125 32.671875 12.21875 37.796875 
Q 7.171875 42.921875 7.171875 51.609375 
Q 7.171875 62.5 14.203125 68.359375 
Q 21.234375 74.21875 34.421875 74.21875 
Q 40.4375 74.21875 46.78125 73.3125 
Q 53.125 72.40625 59.90625 70.609375 
z
" id="DejaVuSans-Bold-83"/>
      <path d="M 52.59375 52.984375 
L 52.59375 38.71875 
Q 49.03125 41.15625 45.4375 42.328125 
Q 41.84375 43.5 37.984375 43.5 
Q 30.671875 43.5 26.59375 39.234375 
Q 22.515625 34.96875 22.515625 27.296875 
Q 22.515625 19.625 26.59375 15.34375 
Q 30.671875 11.078125 37.984375 11.078125 
Q 42.09375 11.078125 45.78125 12.296875 
Q 49.46875 13.53125 52.59375 15.921875 
L 52.59375 1.609375 
Q 48.484375 0.09375 44.265625 -0.65625 
Q 40.046875 -1.421875 35.796875 -1.421875 
Q 21 -1.421875 12.640625 6.171875 
Q 4.296875 13.765625 4.296875 27.296875 
Q 4.296875 40.828125 12.640625 48.40625 
Q 21 56 35.796875 56 
Q 40.09375 56 44.265625 55.25 
Q 48.4375 54.5 52.59375 52.984375 
z
" id="DejaVuSans-Bold-99"/>
      <path d="M 34.421875 43.5 
Q 28.609375 43.5 25.5625 39.328125 
Q 22.515625 35.15625 22.515625 27.296875 
Q 22.515625 19.4375 25.5625 15.25 
Q 28.609375 11.078125 34.421875 11.078125 
Q 40.140625 11.078125 43.15625 15.25 
Q 46.1875 19.4375 46.1875 27.296875 
Q 46.1875 35.15625 43.15625 39.328125 
Q 40.140625 43.5 34.421875 43.5 
z
M 34.421875 56 
Q 48.53125 56 56.46875 48.375 
Q 64.40625 40.765625 64.40625 27.296875 
Q 64.40625 13.8125 56.46875 6.1875 
Q 48.53125 -1.421875 34.421875 -1.421875 
Q 20.265625 -1.421875 12.28125 6.1875 
Q 4.296875 13.8125 4.296875 27.296875 
Q 4.296875 40.765625 12.28125 48.375 
Q 20.265625 56 34.421875 56 
z
" id="DejaVuSans-Bold-111"/>
      <path d="M 49.03125 39.796875 
Q 46.734375 40.875 44.453125 41.375 
Q 42.1875 41.890625 39.890625 41.890625 
Q 33.15625 41.890625 29.515625 37.5625 
Q 25.875 33.25 25.875 25.203125 
L 25.875 0 
L 8.40625 0 
L 8.40625 54.6875 
L 25.875 54.6875 
L 25.875 45.703125 
Q 29.25 51.078125 33.609375 53.53125 
Q 37.984375 56 44.09375 56 
Q 44.96875 56 45.984375 55.921875 
Q 47.015625 55.859375 48.96875 55.609375 
z
" id="DejaVuSans-Bold-114"/>
      <path d="M 62.984375 27.484375 
L 62.984375 22.515625 
L 22.125 22.515625 
Q 22.75 16.359375 26.5625 13.28125 
Q 30.375 10.203125 37.203125 10.203125 
Q 42.71875 10.203125 48.5 11.84375 
Q 54.296875 13.484375 60.40625 16.796875 
L 60.40625 3.328125 
Q 54.203125 0.984375 48 -0.21875 
Q 41.796875 -1.421875 35.59375 -1.421875 
Q 20.75 -1.421875 12.515625 6.125 
Q 4.296875 13.671875 4.296875 27.296875 
Q 4.296875 40.671875 12.375 48.328125 
Q 20.453125 56 34.625 56 
Q 47.515625 56 55.25 48.234375 
Q 62.984375 40.484375 62.984375 27.484375 
z
M 45.015625 33.296875 
Q 45.015625 38.28125 42.109375 41.328125 
Q 39.203125 44.390625 34.515625 44.390625 
Q 29.4375 44.390625 26.265625 41.53125 
Q 23.09375 38.671875 22.3125 33.296875 
z
" id="DejaVuSans-Bold-101"/>
     </defs>
     <g transform="translate(30.893437 208.756953)rotate(-90)scale(0.17 -0.17)">
      <use xlink:href="#DejaVuSans-Bold-83"/>
      <use x="72.021484" xlink:href="#DejaVuSans-Bold-99"/>
      <use x="131.298828" xlink:href="#DejaVuSans-Bold-111"/>
      <use x="200" xlink:href="#DejaVuSans-Bold-114"/>
      <use x="249.316406" xlink:href="#DejaVuSans-Bold-101"/>
     </g>
    </g>
   </g>
   <g id="line2d_25">
    <path clip-path="url(#pb3a33aeda8)" d="M 72 307.8 
L 89.856 60.604033 
L 107.712 59.633005 
L 125.568 57.557707 
L 143.424 55.814602 
L 161.28 55.907689 
L 179.136 56.232582 
L 196.992 55.8 
L 214.848 56.207029 
L 232.704 55.809126 
L 250.56 56.059184 
L 268.416 56.21798 
L 286.272 56.219805 
L 304.128 56.245359 
L 321.984 56.245359 
L 339.84 56.245359 
L 357.696 56.460737 
L 375.552 56.714445 
L 393.408 56.714445 
L 411.264 56.705319 
L 429.12 56.59763 
L 446.976 56.59763 
L 464.832 56.59763 
L 482.688 56.59763 
L 500.544 56.59763 
L 518.4 56.59763 
" style="fill:none;stroke:#ff0000;stroke-linecap:square;"/>
    <defs>
     <path d="M 0 1.5 
C 0.397805 1.5 0.77937 1.341951 1.06066 1.06066 
C 1.341951 0.77937 1.5 0.397805 1.5 0 
C 1.5 -0.397805 1.341951 -0.77937 1.06066 -1.06066 
C 0.77937 -1.341951 0.397805 -1.5 0 -1.5 
C -0.397805 -1.5 -0.77937 -1.341951 -1.06066 -1.06066 
C -1.341951 -0.77937 -1.5 -0.397805 -1.5 0 
C -1.5 0.397805 -1.341951 0.77937 -1.06066 1.06066 
C -0.77937 1.341951 -0.397805 1.5 0 1.5 
z
" id="mb5bbb9cd86" style="stroke:#ff0000;"/>
    </defs>
    <g clip-path="url(#pb3a33aeda8)">
     <use style="fill:#ff0000;stroke:#ff0000;" x="72" xlink:href="#mb5bbb9cd86" y="307.8"/>
     <use style="fill:#ff0000;stroke:#ff0000;" x="89.856" xlink:href="#mb5bbb9cd86" y="60.604033"/>
     <use style="fill:#ff0000;stroke:#ff0000;" x="107.712" xlink:href="#mb5bbb9cd86" y="59.633005"/>
     <use style="fill:#ff0000;stroke:#ff0000;" x="125.568" xlink:href="#mb5bbb9cd86" y="57.557707"/>
     <use style="fill:#ff0000;stroke:#ff0000;" x="143.424" xlink:href="#mb5bbb9cd86" y="55.814602"/>
     <use style="fill:#ff0000;stroke:#ff0000;" x="161.28" xlink:href="#mb5bbb9cd86" y="55.907689"/>
     <use style="fill:#ff0000;stroke:#ff0000;" x="179.136" xlink:href="#mb5bbb9cd86" y="56.232582"/>
     <use style="fill:#ff0000;stroke:#ff0000;" x="196.992" xlink:href="#mb5bbb9cd86" y="55.8"/>
     <use style="fill:#ff0000;stroke:#ff0000;" x="214.848" xlink:href="#mb5bbb9cd86" y="56.207029"/>
     <use style="fill:#ff0000;stroke:#ff0000;" x="232.704" xlink:href="#mb5bbb9cd86" y="55.809126"/>
     <use style="fill:#ff0000;stroke:#ff0000;" x="250.56" xlink:href="#mb5bbb9cd86" y="56.059184"/>
     <use style="fill:#ff0000;stroke:#ff0000;" x="268.416" xlink:href="#mb5bbb9cd86" y="56.21798"/>
     <use style="fill:#ff0000;stroke:#ff0000;" x="286.272" xlink:href="#mb5bbb9cd86" y="56.219805"/>
     <use style="fill:#ff0000;stroke:#ff0000;" x="304.128" xlink:href="#mb5bbb9cd86" y="56.245359"/>
     <use style="fill:#ff0000;stroke:#ff0000;" x="321.984" xlink:href="#mb5bbb9cd86" y="56.245359"/>
     <use style="fill:#ff0000;stroke:#ff0000;" x="339.84" xlink:href="#mb5bbb9cd86" y="56.245359"/>
     <use style="fill:#ff0000;stroke:#ff0000;" x="357.696" xlink:href="#mb5bbb9cd86" y="56.460737"/>
     <use style="fill:#ff0000;stroke:#ff0000;" x="375.552" xlink:href="#mb5bbb9cd86" y="56.714445"/>
     <use style="fill:#ff0000;stroke:#ff0000;" x="393.408" xlink:href="#mb5bbb9cd86" y="56.714445"/>
     <use style="fill:#ff0000;stroke:#ff0000;" x="411.264" xlink:href="#mb5bbb9cd86" y="56.705319"/>
     <use style="fill:#ff0000;stroke:#ff0000;" x="429.12" xlink:href="#mb5bbb9cd86" y="56.59763"/>
     <use style="fill:#ff0000;stroke:#ff0000;" x="446.976" xlink:href="#mb5bbb9cd86" y="56.59763"/>
     <use style="fill:#ff0000;stroke:#ff0000;" x="464.832" xlink:href="#mb5bbb9cd86" y="56.59763"/>
     <use style="fill:#ff0000;stroke:#ff0000;" x="482.688" xlink:href="#mb5bbb9cd86" y="56.59763"/>
     <use style="fill:#ff0000;stroke:#ff0000;" x="500.544" xlink:href="#mb5bbb9cd86" y="56.59763"/>
     <use style="fill:#ff0000;stroke:#ff0000;" x="518.4" xlink:href="#mb5bbb9cd86" y="56.59763"/>
    </g>
   </g>
   <g id="line2d_26">
    <path clip-path="url(#pb3a33aeda8)" d="M 72 307.8 
L 89.856 85.819044 
L 107.712 85.847862 
L 125.568 87.221374 
L 143.424 89.262673 
L 161.28 88.611092 
L 179.136 90.588723 
L 196.992 90.348563 
L 214.848 90.970923 
L 232.704 92.121472 
L 250.56 93.938824 
L 268.416 94.914448 
L 286.272 94.525002 
L 304.128 94.519426 
L 321.984 94.519426 
L 339.84 94.397415 
L 357.696 94.341098 
L 375.552 94.8148 
L 393.408 94.8148 
L 411.264 95.037519 
L 429.12 95.819915 
L 446.976 95.819915 
L 464.832 95.819915 
L 482.688 95.819915 
L 500.544 95.819915 
L 518.4 95.819915 
" style="fill:none;stroke:#008000;stroke-linecap:square;"/>
    <defs>
     <path d="M 0 1.5 
C 0.397805 1.5 0.77937 1.341951 1.06066 1.06066 
C 1.341951 0.77937 1.5 0.397805 1.5 0 
C 1.5 -0.397805 1.341951 -0.77937 1.06066 -1.06066 
C 0.77937 -1.341951 0.397805 -1.5 0 -1.5 
C -0.397805 -1.5 -0.77937 -1.341951 -1.06066 -1.06066 
C -1.341951 -0.77937 -1.5 -0.397805 -1.5 0 
C -1.5 0.397805 -1.341951 0.77937 -1.06066 1.06066 
C -0.77937 1.341951 -0.397805 1.5 0 1.5 
z
" id="m6aca835c7d" style="stroke:#008000;"/>
    </defs>
    <g clip-path="url(#pb3a33aeda8)">
     <use style="fill:#008000;stroke:#008000;" x="72" xlink:href="#m6aca835c7d" y="307.8"/>
     <use style="fill:#008000;stroke:#008000;" x="89.856" xlink:href="#m6aca835c7d" y="85.819044"/>
     <use style="fill:#008000;stroke:#008000;" x="107.712" xlink:href="#m6aca835c7d" y="85.847862"/>
     <use style="fill:#008000;stroke:#008000;" x="125.568" xlink:href="#m6aca835c7d" y="87.221374"/>
     <use style="fill:#008000;stroke:#008000;" x="143.424" xlink:href="#m6aca835c7d" y="89.262673"/>
     <use style="fill:#008000;stroke:#008000;" x="161.28" xlink:href="#m6aca835c7d" y="88.611092"/>
     <use style="fill:#008000;stroke:#008000;" x="179.136" xlink:href="#m6aca835c7d" y="90.588723"/>
     <use style="fill:#008000;stroke:#008000;" x="196.992" xlink:href="#m6aca835c7d" y="90.348563"/>
     <use style="fill:#008000;stroke:#008000;" x="214.848" xlink:href="#m6aca835c7d" y="90.970923"/>
     <use style="fill:#008000;stroke:#008000;" x="232.704" xlink:href="#m6aca835c7d" y="92.121472"/>
     <use style="fill:#008000;stroke:#008000;" x="250.56" xlink:href="#m6aca835c7d" y="93.938824"/>
     <use style="fill:#008000;stroke:#008000;" x="268.416" xlink:href="#m6aca835c7d" y="94.914448"/>
     <use style="fill:#008000;stroke:#008000;" x="286.272" xlink:href="#m6aca835c7d" y="94.525002"/>
     <use style="fill:#008000;stroke:#008000;" x="304.128" xlink:href="#m6aca835c7d" y="94.519426"/>
     <use style="fill:#008000;stroke:#008000;" x="321.984" xlink:href="#m6aca835c7d" y="94.519426"/>
     <use style="fill:#008000;stroke:#008000;" x="339.84" xlink:href="#m6aca835c7d" y="94.397415"/>
     <use style="fill:#008000;stroke:#008000;" x="357.696" xlink:href="#m6aca835c7d" y="94.341098"/>
     <use style="fill:#008000;stroke:#008000;" x="375.552" xlink:href="#m6aca835c7d" y="94.8148"/>
     <use style="fill:#008000;stroke:#008000;" x="393.408" xlink:href="#m6aca835c7d" y="94.8148"/>
     <use style="fill:#008000;stroke:#008000;" x="411.264" xlink:href="#m6aca835c7d" y="95.037519"/>
     <use style="fill:#008000;stroke:#008000;" x="429.12" xlink:href="#m6aca835c7d" y="95.819915"/>
     <use style="fill:#008000;stroke:#008000;" x="446.976" xlink:href="#m6aca835c7d" y="95.819915"/>
     <use style="fill:#008000;stroke:#008000;" x="464.832" xlink:href="#m6aca835c7d" y="95.819915"/>
     <use style="fill:#008000;stroke:#008000;" x="482.688" xlink:href="#m6aca835c7d" y="95.819915"/>
     <use style="fill:#008000;stroke:#008000;" x="500.544" xlink:href="#m6aca835c7d" y="95.819915"/>
     <use style="fill:#008000;stroke:#008000;" x="518.4" xlink:href="#m6aca835c7d" y="95.819915"/>
    </g>
   </g>
   <g id="line2d_27">
    <path clip-path="url(#pb3a33aeda8)" d="M 72 307.8 
L 89.856 91.345142 
L 107.712 90.628563 
L 125.568 90.375345 
L 143.424 91.068209 
L 161.28 90.496641 
L 179.136 92.678074 
L 196.992 92.125579 
L 214.848 93.034343 
L 232.704 93.876322 
L 250.56 95.841586 
L 268.416 96.911534 
L 286.272 96.530654 
L 304.128 96.543204 
L 321.984 96.543204 
L 339.84 96.423498 
L 357.696 96.520419 
L 375.552 97.16303 
L 393.408 97.16303 
L 411.264 97.374458 
L 429.12 98.064716 
L 446.976 98.064716 
L 464.832 98.064716 
L 482.688 98.064716 
L 500.544 98.064716 
L 518.4 98.064716 
" style="fill:none;stroke:#0000ff;stroke-linecap:square;"/>
    <defs>
     <path d="M 0 1.5 
C 0.397805 1.5 0.77937 1.341951 1.06066 1.06066 
C 1.341951 0.77937 1.5 0.397805 1.5 0 
C 1.5 -0.397805 1.341951 -0.77937 1.06066 -1.06066 
C 0.77937 -1.341951 0.397805 -1.5 0 -1.5 
C -0.397805 -1.5 -0.77937 -1.341951 -1.06066 -1.06066 
C -1.341951 -0.77937 -1.5 -0.397805 -1.5 0 
C -1.5 0.397805 -1.341951 0.77937 -1.06066 1.06066 
C -0.77937 1.341951 -0.397805 1.5 0 1.5 
z
" id="mc77d6c67be" style="stroke:#0000ff;"/>
    </defs>
    <g clip-path="url(#pb3a33aeda8)">
     <use style="fill:#0000ff;stroke:#0000ff;" x="72" xlink:href="#mc77d6c67be" y="307.8"/>
     <use style="fill:#0000ff;stroke:#0000ff;" x="89.856" xlink:href="#mc77d6c67be" y="91.345142"/>
     <use style="fill:#0000ff;stroke:#0000ff;" x="107.712" xlink:href="#mc77d6c67be" y="90.628563"/>
     <use style="fill:#0000ff;stroke:#0000ff;" x="125.568" xlink:href="#mc77d6c67be" y="90.375345"/>
     <use style="fill:#0000ff;stroke:#0000ff;" x="143.424" xlink:href="#mc77d6c67be" y="91.068209"/>
     <use style="fill:#0000ff;stroke:#0000ff;" x="161.28" xlink:href="#mc77d6c67be" y="90.496641"/>
     <use style="fill:#0000ff;stroke:#0000ff;" x="179.136" xlink:href="#mc77d6c67be" y="92.678074"/>
     <use style="fill:#0000ff;stroke:#0000ff;" x="196.992" xlink:href="#mc77d6c67be" y="92.125579"/>
     <use style="fill:#0000ff;stroke:#0000ff;" x="214.848" xlink:href="#mc77d6c67be" y="93.034343"/>
     <use style="fill:#0000ff;stroke:#0000ff;" x="232.704" xlink:href="#mc77d6c67be" y="93.876322"/>
     <use style="fill:#0000ff;stroke:#0000ff;" x="250.56" xlink:href="#mc77d6c67be" y="95.841586"/>
     <use style="fill:#0000ff;stroke:#0000ff;" x="268.416" xlink:href="#mc77d6c67be" y="96.911534"/>
     <use style="fill:#0000ff;stroke:#0000ff;" x="286.272" xlink:href="#mc77d6c67be" y="96.530654"/>
     <use style="fill:#0000ff;stroke:#0000ff;" x="304.128" xlink:href="#mc77d6c67be" y="96.543204"/>
     <use style="fill:#0000ff;stroke:#0000ff;" x="321.984" xlink:href="#mc77d6c67be" y="96.543204"/>
     <use style="fill:#0000ff;stroke:#0000ff;" x="339.84" xlink:href="#mc77d6c67be" y="96.423498"/>
     <use style="fill:#0000ff;stroke:#0000ff;" x="357.696" xlink:href="#mc77d6c67be" y="96.520419"/>
     <use style="fill:#0000ff;stroke:#0000ff;" x="375.552" xlink:href="#mc77d6c67be" y="97.16303"/>
     <use style="fill:#0000ff;stroke:#0000ff;" x="393.408" xlink:href="#mc77d6c67be" y="97.16303"/>
     <use style="fill:#0000ff;stroke:#0000ff;" x="411.264" xlink:href="#mc77d6c67be" y="97.374458"/>
     <use style="fill:#0000ff;stroke:#0000ff;" x="429.12" xlink:href="#mc77d6c67be" y="98.064716"/>
     <use style="fill:#0000ff;stroke:#0000ff;" x="446.976" xlink:href="#mc77d6c67be" y="98.064716"/>
     <use style="fill:#0000ff;stroke:#0000ff;" x="464.832" xlink:href="#mc77d6c67be" y="98.064716"/>
     <use style="fill:#0000ff;stroke:#0000ff;" x="482.688" xlink:href="#mc77d6c67be" y="98.064716"/>
     <use style="fill:#0000ff;stroke:#0000ff;" x="500.544" xlink:href="#mc77d6c67be" y="98.064716"/>
     <use style="fill:#0000ff;stroke:#0000ff;" x="518.4" xlink:href="#mc77d6c67be" y="98.064716"/>
    </g>
   </g>
   <g id="patch_3">
    <path d="M 72 320.4 
L 72 43.2 
" style="fill:none;stroke:#000000;stroke-linecap:square;stroke-linejoin:miter;stroke-width:0.8;"/>
   </g>
   <g id="patch_4">
    <path d="M 72 320.4 
L 518.4 320.4 
" style="fill:none;stroke:#000000;stroke-linecap:square;stroke-linejoin:miter;stroke-width:0.8;"/>
   </g>
   <g id="text_15">
    <!-- values of metrics as the change of $\sigma$ -->
    <defs>
     <path d="M 1.515625 54.6875 
L 19 54.6875 
L 32.625 16.890625 
L 46.1875 54.6875 
L 63.71875 54.6875 
L 42.1875 0 
L 23 0 
z
" id="DejaVuSans-Bold-118"/>
     <path d="M 32.90625 24.609375 
Q 27.4375 24.609375 24.671875 22.75 
Q 21.921875 20.90625 21.921875 17.28125 
Q 21.921875 13.96875 24.140625 12.078125 
Q 26.375 10.203125 30.328125 10.203125 
Q 35.25 10.203125 38.625 13.734375 
Q 42 17.28125 42 22.609375 
L 42 24.609375 
z
M 59.625 31.203125 
L 59.625 0 
L 42 0 
L 42 8.109375 
Q 38.484375 3.125 34.078125 0.84375 
Q 29.6875 -1.421875 23.390625 -1.421875 
Q 14.890625 -1.421875 9.59375 3.53125 
Q 4.296875 8.5 4.296875 16.40625 
Q 4.296875 26.03125 10.90625 30.515625 
Q 17.53125 35.015625 31.6875 35.015625 
L 42 35.015625 
L 42 36.375 
Q 42 40.53125 38.71875 42.453125 
Q 35.453125 44.390625 28.515625 44.390625 
Q 22.90625 44.390625 18.0625 43.265625 
Q 13.234375 42.140625 9.078125 39.890625 
L 9.078125 53.21875 
Q 14.703125 54.59375 20.359375 55.296875 
Q 26.03125 56 31.6875 56 
Q 46.484375 56 53.046875 50.171875 
Q 59.625 44.34375 59.625 31.203125 
z
" id="DejaVuSans-Bold-97"/>
     <path d="M 8.40625 75.984375 
L 25.875 75.984375 
L 25.875 0 
L 8.40625 0 
z
" id="DejaVuSans-Bold-108"/>
     <path d="M 7.8125 21.296875 
L 7.8125 54.6875 
L 25.390625 54.6875 
L 25.390625 49.21875 
Q 25.390625 44.78125 25.34375 38.0625 
Q 25.296875 31.34375 25.296875 29.109375 
Q 25.296875 22.515625 25.640625 19.609375 
Q 25.984375 16.703125 26.8125 15.375 
Q 27.875 13.671875 29.609375 12.734375 
Q 31.34375 11.8125 33.59375 11.8125 
Q 39.0625 11.8125 42.1875 16.015625 
Q 45.3125 20.21875 45.3125 27.6875 
L 45.3125 54.6875 
L 62.796875 54.6875 
L 62.796875 0 
L 45.3125 0 
L 45.3125 7.90625 
Q 41.359375 3.125 36.9375 0.84375 
Q 32.515625 -1.421875 27.203125 -1.421875 
Q 17.71875 -1.421875 12.765625 4.390625 
Q 7.8125 10.203125 7.8125 21.296875 
z
" id="DejaVuSans-Bold-117"/>
     <path d="M 51.125 52.984375 
L 51.125 39.703125 
Q 45.515625 42.046875 40.28125 43.21875 
Q 35.0625 44.390625 30.421875 44.390625 
Q 25.4375 44.390625 23.015625 43.140625 
Q 20.609375 41.890625 20.609375 39.3125 
Q 20.609375 37.203125 22.4375 36.078125 
Q 24.265625 34.96875 29 34.421875 
L 32.078125 33.984375 
Q 45.515625 32.28125 50.140625 28.375 
Q 54.78125 24.46875 54.78125 16.109375 
Q 54.78125 7.375 48.328125 2.96875 
Q 41.890625 -1.421875 29.109375 -1.421875 
Q 23.6875 -1.421875 17.890625 -0.5625 
Q 12.109375 0.296875 6 2 
L 6 15.28125 
Q 11.234375 12.75 16.71875 11.46875 
Q 22.21875 10.203125 27.875 10.203125 
Q 33.015625 10.203125 35.59375 11.609375 
Q 38.1875 13.03125 38.1875 15.828125 
Q 38.1875 18.171875 36.40625 19.3125 
Q 34.625 20.453125 29.296875 21.09375 
L 26.21875 21.484375 
Q 14.546875 22.953125 9.859375 26.90625 
Q 5.171875 30.859375 5.171875 38.921875 
Q 5.171875 47.609375 11.125 51.796875 
Q 17.09375 56 29.390625 56 
Q 34.234375 56 39.546875 55.265625 
Q 44.875 54.546875 51.125 52.984375 
z
" id="DejaVuSans-Bold-115"/>
     <path id="DejaVuSans-Bold-32"/>
     <path d="M 44.390625 75.984375 
L 44.390625 64.5 
L 34.71875 64.5 
Q 31 64.5 29.53125 63.15625 
Q 28.078125 61.8125 28.078125 58.5 
L 28.078125 54.6875 
L 43.015625 54.6875 
L 43.015625 42.1875 
L 28.078125 42.1875 
L 28.078125 0 
L 10.59375 0 
L 10.59375 42.1875 
L 1.90625 42.1875 
L 1.90625 54.6875 
L 10.59375 54.6875 
L 10.59375 58.5 
Q 10.59375 67.4375 15.578125 71.703125 
Q 20.5625 75.984375 31 75.984375 
z
" id="DejaVuSans-Bold-102"/>
     <path d="M 59.078125 45.609375 
Q 62.40625 50.6875 66.96875 53.34375 
Q 71.53125 56 77 56 
Q 86.421875 56 91.359375 50.1875 
Q 96.296875 44.390625 96.296875 33.296875 
L 96.296875 0 
L 78.71875 0 
L 78.71875 28.515625 
Q 78.765625 29.15625 78.78125 29.828125 
Q 78.8125 30.515625 78.8125 31.78125 
Q 78.8125 37.59375 77.09375 40.203125 
Q 75.390625 42.828125 71.578125 42.828125 
Q 66.609375 42.828125 63.890625 38.71875 
Q 61.1875 34.625 61.078125 26.859375 
L 61.078125 0 
L 43.5 0 
L 43.5 28.515625 
Q 43.5 37.59375 41.9375 40.203125 
Q 40.375 42.828125 36.375 42.828125 
Q 31.34375 42.828125 28.609375 38.703125 
Q 25.875 34.578125 25.875 26.90625 
L 25.875 0 
L 8.296875 0 
L 8.296875 54.6875 
L 25.875 54.6875 
L 25.875 46.6875 
Q 29.109375 51.3125 33.28125 53.65625 
Q 37.453125 56 42.484375 56 
Q 48.140625 56 52.484375 53.265625 
Q 56.84375 50.53125 59.078125 45.609375 
z
" id="DejaVuSans-Bold-109"/>
     <path d="M 27.484375 70.21875 
L 27.484375 54.6875 
L 45.515625 54.6875 
L 45.515625 42.1875 
L 27.484375 42.1875 
L 27.484375 19 
Q 27.484375 15.1875 29 13.84375 
Q 30.515625 12.5 35.015625 12.5 
L 44 12.5 
L 44 0 
L 29 0 
Q 18.65625 0 14.328125 4.3125 
Q 10.015625 8.640625 10.015625 19 
L 10.015625 42.1875 
L 1.3125 42.1875 
L 1.3125 54.6875 
L 10.015625 54.6875 
L 10.015625 70.21875 
z
" id="DejaVuSans-Bold-116"/>
     <path d="M 8.40625 54.6875 
L 25.875 54.6875 
L 25.875 0 
L 8.40625 0 
z
M 8.40625 75.984375 
L 25.875 75.984375 
L 25.875 61.71875 
L 8.40625 61.71875 
z
" id="DejaVuSans-Bold-105"/>
     <path d="M 63.375 33.296875 
L 63.375 0 
L 45.796875 0 
L 45.796875 5.421875 
L 45.796875 25.390625 
Q 45.796875 32.5625 45.484375 35.25 
Q 45.171875 37.9375 44.390625 39.203125 
Q 43.359375 40.921875 41.59375 41.875 
Q 39.84375 42.828125 37.59375 42.828125 
Q 32.125 42.828125 29 38.59375 
Q 25.875 34.375 25.875 26.90625 
L 25.875 0 
L 8.40625 0 
L 8.40625 75.984375 
L 25.875 75.984375 
L 25.875 46.6875 
Q 29.828125 51.46875 34.265625 53.734375 
Q 38.71875 56 44.09375 56 
Q 53.5625 56 58.46875 50.1875 
Q 63.375 44.390625 63.375 33.296875 
z
" id="DejaVuSans-Bold-104"/>
     <path d="M 63.375 33.296875 
L 63.375 0 
L 45.796875 0 
L 45.796875 5.421875 
L 45.796875 25.484375 
Q 45.796875 32.5625 45.484375 35.25 
Q 45.171875 37.9375 44.390625 39.203125 
Q 43.359375 40.921875 41.59375 41.875 
Q 39.84375 42.828125 37.59375 42.828125 
Q 32.125 42.828125 29 38.59375 
Q 25.875 34.375 25.875 26.90625 
L 25.875 0 
L 8.40625 0 
L 8.40625 54.6875 
L 25.875 54.6875 
L 25.875 46.6875 
Q 29.828125 51.46875 34.265625 53.734375 
Q 38.71875 56 44.09375 56 
Q 53.5625 56 58.46875 50.1875 
Q 63.375 44.390625 63.375 33.296875 
z
" id="DejaVuSans-Bold-110"/>
     <path d="M 45.609375 9.28125 
Q 42 4.5 37.640625 2.25 
Q 33.296875 0 27.59375 0 
Q 17.578125 0 11.03125 7.875 
Q 4.5 15.765625 4.5 27.984375 
Q 4.5 40.234375 11.03125 48.0625 
Q 17.578125 55.90625 27.59375 55.90625 
Q 33.296875 55.90625 37.640625 53.65625 
Q 42 51.421875 45.609375 46.578125 
L 45.609375 54.6875 
L 63.1875 54.6875 
L 63.1875 5.515625 
Q 63.1875 -7.671875 54.859375 -14.625 
Q 46.53125 -21.578125 30.71875 -21.578125 
Q 25.59375 -21.578125 20.796875 -20.796875 
Q 16.015625 -20.015625 11.1875 -18.40625 
L 11.1875 -4.78125 
Q 15.765625 -7.421875 20.15625 -8.71875 
Q 24.5625 -10.015625 29 -10.015625 
Q 37.59375 -10.015625 41.59375 -6.25 
Q 45.609375 -2.484375 45.609375 5.515625 
z
M 34.078125 43.3125 
Q 28.65625 43.3125 25.625 39.296875 
Q 22.609375 35.296875 22.609375 27.984375 
Q 22.609375 20.453125 25.53125 16.578125 
Q 28.46875 12.703125 34.078125 12.703125 
Q 39.546875 12.703125 42.578125 16.703125 
Q 45.609375 20.703125 45.609375 27.984375 
Q 45.609375 35.296875 42.578125 39.296875 
Q 39.546875 43.3125 34.078125 43.3125 
z
" id="DejaVuSans-Bold-103"/>
    </defs>
    <g transform="translate(91 37.2)scale(0.2 -0.2)">
     <use transform="translate(0 0.015625)" xlink:href="#DejaVuSans-Bold-118"/>
     <use transform="translate(65.185547 0.015625)" xlink:href="#DejaVuSans-Bold-97"/>
     <use transform="translate(132.666016 0.015625)" xlink:href="#DejaVuSans-Bold-108"/>
     <use transform="translate(166.943359 0.015625)" xlink:href="#DejaVuSans-Bold-117"/>
     <use transform="translate(238.134766 0.015625)" xlink:href="#DejaVuSans-Bold-101"/>
     <use transform="translate(305.957031 0.015625)" xlink:href="#DejaVuSans-Bold-115"/>
     <use transform="translate(365.478516 0.015625)" xlink:href="#DejaVuSans-Bold-32"/>
     <use transform="translate(400.292969 0.015625)" xlink:href="#DejaVuSans-Bold-111"/>
     <use transform="translate(468.994141 0.015625)" xlink:href="#DejaVuSans-Bold-102"/>
     <use transform="translate(512.5 0.015625)" xlink:href="#DejaVuSans-Bold-32"/>
     <use transform="translate(547.314453 0.015625)" xlink:href="#DejaVuSans-Bold-109"/>
     <use transform="translate(651.513672 0.015625)" xlink:href="#DejaVuSans-Bold-101"/>
     <use transform="translate(719.335938 0.015625)" xlink:href="#DejaVuSans-Bold-116"/>
     <use transform="translate(767.138672 0.015625)" xlink:href="#DejaVuSans-Bold-114"/>
     <use transform="translate(816.455078 0.015625)" xlink:href="#DejaVuSans-Bold-105"/>
     <use transform="translate(850.732422 0.015625)" xlink:href="#DejaVuSans-Bold-99"/>
     <use transform="translate(910.009766 0.015625)" xlink:href="#DejaVuSans-Bold-115"/>
     <use transform="translate(969.53125 0.015625)" xlink:href="#DejaVuSans-Bold-32"/>
     <use transform="translate(1004.345703 0.015625)" xlink:href="#DejaVuSans-Bold-97"/>
     <use transform="translate(1071.826172 0.015625)" xlink:href="#DejaVuSans-Bold-115"/>
     <use transform="translate(1131.347656 0.015625)" xlink:href="#DejaVuSans-Bold-32"/>
     <use transform="translate(1166.162109 0.015625)" xlink:href="#DejaVuSans-Bold-116"/>
     <use transform="translate(1213.964844 0.015625)" xlink:href="#DejaVuSans-Bold-104"/>
     <use transform="translate(1285.15625 0.015625)" xlink:href="#DejaVuSans-Bold-101"/>
     <use transform="translate(1352.978516 0.015625)" xlink:href="#DejaVuSans-Bold-32"/>
     <use transform="translate(1387.792969 0.015625)" xlink:href="#DejaVuSans-Bold-99"/>
     <use transform="translate(1447.070312 0.015625)" xlink:href="#DejaVuSans-Bold-104"/>
     <use transform="translate(1518.261719 0.015625)" xlink:href="#DejaVuSans-Bold-97"/>
     <use transform="translate(1585.742188 0.015625)" xlink:href="#DejaVuSans-Bold-110"/>
     <use transform="translate(1656.933594 0.015625)" xlink:href="#DejaVuSans-Bold-103"/>
     <use transform="translate(1728.515625 0.015625)" xlink:href="#DejaVuSans-Bold-101"/>
     <use transform="translate(1796.337891 0.015625)" xlink:href="#DejaVuSans-Bold-32"/>
     <use transform="translate(1831.152344 0.015625)" xlink:href="#DejaVuSans-Bold-111"/>
     <use transform="translate(1899.853516 0.015625)" xlink:href="#DejaVuSans-Bold-102"/>
     <use transform="translate(1943.359375 0.015625)" xlink:href="#DejaVuSans-Bold-32"/>
     <use transform="translate(1978.173828 0.015625)" xlink:href="#DejaVuSans-Oblique-963"/>
    </g>
   </g>
   <g id="legend_1">
    <g id="patch_5">
     <path d="M 79 315.4 
L 245.921563 315.4 
Q 247.921563 315.4 247.921563 313.4 
L 247.921563 249.90875 
Q 247.921563 247.90875 245.921563 247.90875 
L 79 247.90875 
Q 77 247.90875 77 249.90875 
L 77 313.4 
Q 77 315.4 79 315.4 
z
" style="fill:#ffffff;opacity:0.8;stroke:#cccccc;stroke-linejoin:miter;"/>
    </g>
    <g id="line2d_28">
     <path d="M 81 261.326094 
L 101 261.326094 
" style="fill:none;stroke:#ff0000;stroke-linecap:square;"/>
    </g>
    <g id="line2d_29">
     <g>
      <use style="fill:#ff0000;stroke:#ff0000;" x="91" xlink:href="#mb5bbb9cd86" y="261.326094"/>
     </g>
    </g>
    <g id="text_16">
     <!-- Completeness -->
     <defs>
      <path d="M 67 4 
Q 61.8125 1.3125 56.203125 -0.046875 
Q 50.59375 -1.421875 44.484375 -1.421875 
Q 26.265625 -1.421875 15.625 8.765625 
Q 4.984375 18.953125 4.984375 36.375 
Q 4.984375 53.859375 15.625 64.03125 
Q 26.265625 74.21875 44.484375 74.21875 
Q 50.59375 74.21875 56.203125 72.84375 
Q 61.8125 71.484375 67 68.796875 
L 67 53.71875 
Q 61.765625 57.28125 56.6875 58.9375 
Q 51.609375 60.59375 46 60.59375 
Q 35.9375 60.59375 30.171875 54.140625 
Q 24.421875 47.703125 24.421875 36.375 
Q 24.421875 25.09375 30.171875 18.640625 
Q 35.9375 12.203125 46 12.203125 
Q 51.609375 12.203125 56.6875 13.859375 
Q 61.765625 15.53125 67 19.09375 
z
" id="DejaVuSans-Bold-67"/>
      <path d="M 25.875 7.90625 
L 25.875 -20.796875 
L 8.40625 -20.796875 
L 8.40625 54.6875 
L 25.875 54.6875 
L 25.875 46.6875 
Q 29.5 51.46875 33.890625 53.734375 
Q 38.28125 56 44 56 
Q 54.109375 56 60.59375 47.96875 
Q 67.09375 39.9375 67.09375 27.296875 
Q 67.09375 14.65625 60.59375 6.609375 
Q 54.109375 -1.421875 44 -1.421875 
Q 38.28125 -1.421875 33.890625 0.84375 
Q 29.5 3.125 25.875 7.90625 
z
M 37.5 43.3125 
Q 31.890625 43.3125 28.875 39.1875 
Q 25.875 35.0625 25.875 27.296875 
Q 25.875 19.53125 28.875 15.40625 
Q 31.890625 11.28125 37.5 11.28125 
Q 43.109375 11.28125 46.0625 15.375 
Q 49.03125 19.484375 49.03125 27.296875 
Q 49.03125 35.109375 46.0625 39.203125 
Q 43.109375 43.3125 37.5 43.3125 
z
" id="DejaVuSans-Bold-112"/>
     </defs>
     <g transform="translate(109 264.826094)scale(0.17 -0.17)">
      <use xlink:href="#DejaVuSans-Bold-67"/>
      <use x="73.388672" xlink:href="#DejaVuSans-Bold-111"/>
      <use x="142.089844" xlink:href="#DejaVuSans-Bold-109"/>
      <use x="246.289062" xlink:href="#DejaVuSans-Bold-112"/>
      <use x="317.871094" xlink:href="#DejaVuSans-Bold-108"/>
      <use x="352.148438" xlink:href="#DejaVuSans-Bold-101"/>
      <use x="419.970703" xlink:href="#DejaVuSans-Bold-116"/>
      <use x="467.773438" xlink:href="#DejaVuSans-Bold-101"/>
      <use x="535.595703" xlink:href="#DejaVuSans-Bold-110"/>
      <use x="606.787109" xlink:href="#DejaVuSans-Bold-101"/>
      <use x="674.609375" xlink:href="#DejaVuSans-Bold-115"/>
      <use x="734.130859" xlink:href="#DejaVuSans-Bold-115"/>
     </g>
    </g>
    <g id="line2d_30">
     <path d="M 81 282.778906 
L 101 282.778906 
" style="fill:none;stroke:#008000;stroke-linecap:square;"/>
    </g>
    <g id="line2d_31">
     <g>
      <use style="fill:#008000;stroke:#008000;" x="91" xlink:href="#m6aca835c7d" y="282.778906"/>
     </g>
    </g>
    <g id="text_17">
     <!-- Correctness -->
     <g transform="translate(109 286.278906)scale(0.17 -0.17)">
      <use xlink:href="#DejaVuSans-Bold-67"/>
      <use x="73.388672" xlink:href="#DejaVuSans-Bold-111"/>
      <use x="142.089844" xlink:href="#DejaVuSans-Bold-114"/>
      <use x="191.40625" xlink:href="#DejaVuSans-Bold-114"/>
      <use x="240.722656" xlink:href="#DejaVuSans-Bold-101"/>
      <use x="308.544922" xlink:href="#DejaVuSans-Bold-99"/>
      <use x="367.822266" xlink:href="#DejaVuSans-Bold-116"/>
      <use x="415.625" xlink:href="#DejaVuSans-Bold-110"/>
      <use x="486.816406" xlink:href="#DejaVuSans-Bold-101"/>
      <use x="554.638672" xlink:href="#DejaVuSans-Bold-115"/>
      <use x="614.160156" xlink:href="#DejaVuSans-Bold-115"/>
     </g>
    </g>
    <g id="line2d_32">
     <path d="M 81 304.231719 
L 101 304.231719 
" style="fill:none;stroke:#0000ff;stroke-linecap:square;"/>
    </g>
    <g id="line2d_33">
     <g>
      <use style="fill:#0000ff;stroke:#0000ff;" x="91" xlink:href="#mc77d6c67be" y="304.231719"/>
     </g>
    </g>
    <g id="text_18">
     <!-- Quality -->
     <defs>
      <path d="M 44.484375 -1.3125 
L 43.015625 -1.3125 
Q 25 -1.3125 14.984375 8.640625 
Q 4.984375 18.609375 4.984375 36.375 
Q 4.984375 54.109375 14.96875 64.15625 
Q 24.953125 74.21875 42.484375 74.21875 
Q 60.203125 74.21875 70.09375 64.25 
Q 79.984375 54.296875 79.984375 36.375 
Q 79.984375 24.078125 74.734375 15.1875 
Q 69.484375 6.296875 59.625 1.8125 
L 74.3125 -14.59375 
L 56.390625 -14.59375 
z
M 42.484375 60.59375 
Q 33.890625 60.59375 29.15625 54.25 
Q 24.421875 47.90625 24.421875 36.375 
Q 24.421875 24.65625 29.046875 18.421875 
Q 33.6875 12.203125 42.484375 12.203125 
Q 51.125 12.203125 55.859375 18.546875 
Q 60.59375 24.90625 60.59375 36.375 
Q 60.59375 47.90625 55.859375 54.25 
Q 51.125 60.59375 42.484375 60.59375 
z
" id="DejaVuSans-Bold-81"/>
      <path d="M 1.21875 54.6875 
L 18.703125 54.6875 
L 33.40625 17.578125 
L 45.90625 54.6875 
L 63.375 54.6875 
L 40.375 -5.171875 
Q 36.921875 -14.3125 32.296875 -17.9375 
Q 27.6875 -21.578125 20.125 -21.578125 
L 10.015625 -21.578125 
L 10.015625 -10.109375 
L 15.484375 -10.109375 
Q 19.921875 -10.109375 21.9375 -8.6875 
Q 23.96875 -7.28125 25.09375 -3.609375 
L 25.59375 -2.09375 
z
" id="DejaVuSans-Bold-121"/>
     </defs>
     <g transform="translate(109 307.731719)scale(0.17 -0.17)">
      <use xlink:href="#DejaVuSans-Bold-81"/>
      <use x="85.009766" xlink:href="#DejaVuSans-Bold-117"/>
      <use x="156.201172" xlink:href="#DejaVuSans-Bold-97"/>
      <use x="223.681641" xlink:href="#DejaVuSans-Bold-108"/>
      <use x="257.958984" xlink:href="#DejaVuSans-Bold-105"/>
      <use x="292.236328" xlink:href="#DejaVuSans-Bold-116"/>
      <use x="340.039062" xlink:href="#DejaVuSans-Bold-121"/>
     </g>
    </g>
   </g>
  </g>
 </g>
 <defs>
  <clipPath id="pb3a33aeda8">
   <rect height="277.2" width="446.4" x="72" y="43.2"/>
  </clipPath>
 </defs>
</svg>
