<?xml version="1.0" encoding="utf-8" standalone="no"?>
<!DOCTYPE svg PUBLIC "-//W3C//DTD SVG 1.1//EN"
  "http://www.w3.org/Graphics/SVG/1.1/DTD/svg11.dtd">
<!-- Created with matplotlib (https://matplotlib.org/) -->
<svg height="360pt" version="1.1" viewBox="0 0 576 360" width="576pt" xmlns="http://www.w3.org/2000/svg" xmlns:xlink="http://www.w3.org/1999/xlink">
 <defs>
  <style type="text/css">
*{stroke-linecap:butt;stroke-linejoin:round;}
  </style>
 </defs>
 <g id="figure_1">
  <g id="patch_1">
   <path d="M 0 360 
L 576 360 
L 576 0 
L 0 0 
z
" style="fill:#ffffff;"/>
  </g>
  <g id="axes_1">
   <g id="patch_2">
    <path d="M 72 320.4 
L 518.4 320.4 
L 518.4 43.2 
L 72 43.2 
z
" style="fill:#ffffff;"/>
   </g>
   <g id="matplotlib.axis_1">
    <g id="xtick_1">
     <g id="line2d_1">
      <path clip-path="url(#p20905b7b15)" d="M 146.4 320.4 
L 146.4 43.2 
" style="fill:none;stroke:#b0b0b0;stroke-dasharray:2.96,1.28;stroke-dashoffset:0;stroke-width:0.8;"/>
     </g>
     <g id="line2d_2">
      <defs>
       <path d="M 0 0 
L 0 3.5 
" id="mfa48911b97" style="stroke:#000000;stroke-width:0.8;"/>
      </defs>
      <g>
       <use style="stroke:#000000;stroke-width:0.8;" x="146.4" xlink:href="#mfa48911b97" y="320.4"/>
      </g>
     </g>
     <g id="text_1">
      <!-- 1000 -->
      <defs>
       <path d="M 11.71875 12.984375 
L 28.328125 12.984375 
L 28.328125 60.109375 
L 11.28125 56.59375 
L 11.28125 69.390625 
L 28.21875 72.90625 
L 46.09375 72.90625 
L 46.09375 12.984375 
L 62.703125 12.984375 
L 62.703125 0 
L 11.71875 0 
z
" id="DejaVuSans-Bold-49"/>
       <path d="M 46 36.53125 
Q 46 50.203125 43.4375 55.78125 
Q 40.875 61.375 34.8125 61.375 
Q 28.765625 61.375 26.171875 55.78125 
Q 23.578125 50.203125 23.578125 36.53125 
Q 23.578125 22.703125 26.171875 17.03125 
Q 28.765625 11.375 34.8125 11.375 
Q 40.828125 11.375 43.40625 17.03125 
Q 46 22.703125 46 36.53125 
z
M 64.796875 36.375 
Q 64.796875 18.265625 56.984375 8.421875 
Q 49.171875 -1.421875 34.8125 -1.421875 
Q 20.40625 -1.421875 12.59375 8.421875 
Q 4.78125 18.265625 4.78125 36.375 
Q 4.78125 54.546875 12.59375 64.375 
Q 20.40625 74.21875 34.8125 74.21875 
Q 49.171875 74.21875 56.984375 64.375 
Q 64.796875 54.546875 64.796875 36.375 
z
" id="DejaVuSans-Bold-48"/>
      </defs>
      <g transform="translate(125.526563 338.797656)scale(0.15 -0.15)">
       <use xlink:href="#DejaVuSans-Bold-49"/>
       <use x="69.580078" xlink:href="#DejaVuSans-Bold-48"/>
       <use x="139.160156" xlink:href="#DejaVuSans-Bold-48"/>
       <use x="208.740234" xlink:href="#DejaVuSans-Bold-48"/>
      </g>
     </g>
    </g>
    <g id="xtick_2">
     <g id="line2d_3">
      <path clip-path="url(#p20905b7b15)" d="M 239.4 320.4 
L 239.4 43.2 
" style="fill:none;stroke:#b0b0b0;stroke-dasharray:2.96,1.28;stroke-dashoffset:0;stroke-width:0.8;"/>
     </g>
     <g id="line2d_4">
      <g>
       <use style="stroke:#000000;stroke-width:0.8;" x="239.4" xlink:href="#mfa48911b97" y="320.4"/>
      </g>
     </g>
     <g id="text_2">
      <!-- 2000 -->
      <defs>
       <path d="M 28.8125 13.8125 
L 60.890625 13.8125 
L 60.890625 0 
L 7.90625 0 
L 7.90625 13.8125 
L 34.515625 37.3125 
Q 38.09375 40.53125 39.796875 43.609375 
Q 41.5 46.6875 41.5 50 
Q 41.5 55.125 38.0625 58.25 
Q 34.625 61.375 28.90625 61.375 
Q 24.515625 61.375 19.28125 59.5 
Q 14.0625 57.625 8.109375 53.90625 
L 8.109375 69.921875 
Q 14.453125 72.015625 20.65625 73.109375 
Q 26.859375 74.21875 32.8125 74.21875 
Q 45.90625 74.21875 53.15625 68.453125 
Q 60.40625 62.703125 60.40625 52.390625 
Q 60.40625 46.4375 57.328125 41.28125 
Q 54.25 36.140625 44.390625 27.484375 
z
" id="DejaVuSans-Bold-50"/>
      </defs>
      <g transform="translate(218.526563 338.797656)scale(0.15 -0.15)">
       <use xlink:href="#DejaVuSans-Bold-50"/>
       <use x="69.580078" xlink:href="#DejaVuSans-Bold-48"/>
       <use x="139.160156" xlink:href="#DejaVuSans-Bold-48"/>
       <use x="208.740234" xlink:href="#DejaVuSans-Bold-48"/>
      </g>
     </g>
    </g>
    <g id="xtick_3">
     <g id="line2d_5">
      <path clip-path="url(#p20905b7b15)" d="M 332.4 320.4 
L 332.4 43.2 
" style="fill:none;stroke:#b0b0b0;stroke-dasharray:2.96,1.28;stroke-dashoffset:0;stroke-width:0.8;"/>
     </g>
     <g id="line2d_6">
      <g>
       <use style="stroke:#000000;stroke-width:0.8;" x="332.4" xlink:href="#mfa48911b97" y="320.4"/>
      </g>
     </g>
     <g id="text_3">
      <!-- 3000 -->
      <defs>
       <path d="M 46.578125 39.3125 
Q 53.953125 37.40625 57.78125 32.6875 
Q 61.625 27.984375 61.625 20.703125 
Q 61.625 9.859375 53.3125 4.21875 
Q 45.015625 -1.421875 29.109375 -1.421875 
Q 23.484375 -1.421875 17.84375 -0.515625 
Q 12.203125 0.390625 6.6875 2.203125 
L 6.6875 16.703125 
Q 11.96875 14.0625 17.15625 12.71875 
Q 22.359375 11.375 27.390625 11.375 
Q 34.859375 11.375 38.84375 13.953125 
Q 42.828125 16.546875 42.828125 21.390625 
Q 42.828125 26.375 38.75 28.9375 
Q 34.671875 31.5 26.703125 31.5 
L 19.1875 31.5 
L 19.1875 43.609375 
L 27.09375 43.609375 
Q 34.1875 43.609375 37.640625 45.828125 
Q 41.109375 48.046875 41.109375 52.59375 
Q 41.109375 56.78125 37.734375 59.078125 
Q 34.375 61.375 28.21875 61.375 
Q 23.6875 61.375 19.046875 60.34375 
Q 14.40625 59.328125 9.8125 57.328125 
L 9.8125 71.09375 
Q 15.375 72.65625 20.84375 73.4375 
Q 26.3125 74.21875 31.59375 74.21875 
Q 45.796875 74.21875 52.84375 69.546875 
Q 59.90625 64.890625 59.90625 55.515625 
Q 59.90625 49.125 56.53125 45.046875 
Q 53.171875 40.96875 46.578125 39.3125 
z
" id="DejaVuSans-Bold-51"/>
      </defs>
      <g transform="translate(311.526562 338.797656)scale(0.15 -0.15)">
       <use xlink:href="#DejaVuSans-Bold-51"/>
       <use x="69.580078" xlink:href="#DejaVuSans-Bold-48"/>
       <use x="139.160156" xlink:href="#DejaVuSans-Bold-48"/>
       <use x="208.740234" xlink:href="#DejaVuSans-Bold-48"/>
      </g>
     </g>
    </g>
    <g id="xtick_4">
     <g id="line2d_7">
      <path clip-path="url(#p20905b7b15)" d="M 425.4 320.4 
L 425.4 43.2 
" style="fill:none;stroke:#b0b0b0;stroke-dasharray:2.96,1.28;stroke-dashoffset:0;stroke-width:0.8;"/>
     </g>
     <g id="line2d_8">
      <g>
       <use style="stroke:#000000;stroke-width:0.8;" x="425.4" xlink:href="#mfa48911b97" y="320.4"/>
      </g>
     </g>
     <g id="text_4">
      <!-- 4000 -->
      <defs>
       <path d="M 36.8125 57.421875 
L 16.21875 26.90625 
L 36.8125 26.90625 
z
M 33.6875 72.90625 
L 54.59375 72.90625 
L 54.59375 26.90625 
L 64.984375 26.90625 
L 64.984375 13.28125 
L 54.59375 13.28125 
L 54.59375 0 
L 36.8125 0 
L 36.8125 13.28125 
L 4.5 13.28125 
L 4.5 29.390625 
z
" id="DejaVuSans-Bold-52"/>
      </defs>
      <g transform="translate(404.526562 338.797656)scale(0.15 -0.15)">
       <use xlink:href="#DejaVuSans-Bold-52"/>
       <use x="69.580078" xlink:href="#DejaVuSans-Bold-48"/>
       <use x="139.160156" xlink:href="#DejaVuSans-Bold-48"/>
       <use x="208.740234" xlink:href="#DejaVuSans-Bold-48"/>
      </g>
     </g>
    </g>
    <g id="xtick_5">
     <g id="line2d_9">
      <path clip-path="url(#p20905b7b15)" d="M 518.4 320.4 
L 518.4 43.2 
" style="fill:none;stroke:#b0b0b0;stroke-dasharray:2.96,1.28;stroke-dashoffset:0;stroke-width:0.8;"/>
     </g>
     <g id="line2d_10">
      <g>
       <use style="stroke:#000000;stroke-width:0.8;" x="518.4" xlink:href="#mfa48911b97" y="320.4"/>
      </g>
     </g>
     <g id="text_5">
      <!-- 5000 -->
      <defs>
       <path d="M 10.59375 72.90625 
L 57.328125 72.90625 
L 57.328125 59.078125 
L 25.59375 59.078125 
L 25.59375 47.796875 
Q 27.734375 48.390625 29.90625 48.703125 
Q 32.078125 49.03125 34.421875 49.03125 
Q 47.75 49.03125 55.171875 42.359375 
Q 62.59375 35.6875 62.59375 23.78125 
Q 62.59375 11.96875 54.515625 5.265625 
Q 46.4375 -1.421875 32.078125 -1.421875 
Q 25.875 -1.421875 19.796875 -0.21875 
Q 13.71875 0.984375 7.71875 3.421875 
L 7.71875 18.21875 
Q 13.671875 14.796875 19.015625 13.078125 
Q 24.359375 11.375 29.109375 11.375 
Q 35.9375 11.375 39.859375 14.71875 
Q 43.796875 18.0625 43.796875 23.78125 
Q 43.796875 29.546875 39.859375 32.859375 
Q 35.9375 36.1875 29.109375 36.1875 
Q 25.046875 36.1875 20.453125 35.125 
Q 15.875 34.078125 10.59375 31.890625 
z
" id="DejaVuSans-Bold-53"/>
      </defs>
      <g transform="translate(497.526562 338.797656)scale(0.15 -0.15)">
       <use xlink:href="#DejaVuSans-Bold-53"/>
       <use x="69.580078" xlink:href="#DejaVuSans-Bold-48"/>
       <use x="139.160156" xlink:href="#DejaVuSans-Bold-48"/>
       <use x="208.740234" xlink:href="#DejaVuSans-Bold-48"/>
      </g>
     </g>
    </g>
    <g id="text_6">
     <!-- K -->
     <defs>
      <path d="M 9.1875 72.90625 
L 27.984375 72.90625 
L 27.984375 46.296875 
L 55.078125 72.90625 
L 76.90625 72.90625 
L 41.796875 38.375 
L 80.515625 0 
L 56.984375 0 
L 27.984375 28.71875 
L 27.984375 0 
L 9.1875 0 
z
" id="DejaVuSans-Bold-75"/>
     </defs>
     <g transform="translate(288.613828 358.834531)scale(0.17 -0.17)">
      <use xlink:href="#DejaVuSans-Bold-75"/>
     </g>
    </g>
   </g>
   <g id="matplotlib.axis_2">
    <g id="ytick_1">
     <g id="line2d_11">
      <path clip-path="url(#p20905b7b15)" d="M 72 312.736007 
L 518.4 312.736007 
" style="fill:none;stroke:#b0b0b0;stroke-dasharray:2.96,1.28;stroke-dashoffset:0;stroke-width:0.8;"/>
     </g>
     <g id="line2d_12">
      <defs>
       <path d="M 0 0 
L -3.5 0 
" id="md12a60a93c" style="stroke:#000000;stroke-width:0.8;"/>
      </defs>
      <g>
       <use style="stroke:#000000;stroke-width:0.8;" x="72" xlink:href="#md12a60a93c" y="312.736007"/>
      </g>
     </g>
     <g id="text_7">
      <!-- 0.75 -->
      <defs>
       <path d="M 10.203125 18.890625 
L 27.78125 18.890625 
L 27.78125 0 
L 10.203125 0 
z
" id="DejaVuSans-Bold-46"/>
       <path d="M 6.6875 72.90625 
L 61.625 72.90625 
L 61.625 62.3125 
L 33.203125 0 
L 14.890625 0 
L 41.796875 59.078125 
L 6.6875 59.078125 
z
" id="DejaVuSans-Bold-55"/>
      </defs>
      <g transform="translate(27.992188 318.434835)scale(0.15 -0.15)">
       <use xlink:href="#DejaVuSans-Bold-48"/>
       <use x="69.580078" xlink:href="#DejaVuSans-Bold-46"/>
       <use x="107.568359" xlink:href="#DejaVuSans-Bold-55"/>
       <use x="177.148438" xlink:href="#DejaVuSans-Bold-53"/>
      </g>
     </g>
    </g>
    <g id="ytick_2">
     <g id="line2d_13">
      <path clip-path="url(#p20905b7b15)" d="M 72 260.434815 
L 518.4 260.434815 
" style="fill:none;stroke:#b0b0b0;stroke-dasharray:2.96,1.28;stroke-dashoffset:0;stroke-width:0.8;"/>
     </g>
     <g id="line2d_14">
      <g>
       <use style="stroke:#000000;stroke-width:0.8;" x="72" xlink:href="#md12a60a93c" y="260.434815"/>
      </g>
     </g>
     <g id="text_8">
      <!-- 0.80 -->
      <defs>
       <path d="M 34.8125 32.625 
Q 29.546875 32.625 26.703125 29.734375 
Q 23.875 26.859375 23.875 21.484375 
Q 23.875 16.109375 26.703125 13.25 
Q 29.546875 10.40625 34.8125 10.40625 
Q 40.046875 10.40625 42.828125 13.25 
Q 45.609375 16.109375 45.609375 21.484375 
Q 45.609375 26.90625 42.828125 29.765625 
Q 40.046875 32.625 34.8125 32.625 
z
M 21.09375 38.8125 
Q 14.453125 40.828125 11.078125 44.96875 
Q 7.71875 49.125 7.71875 55.328125 
Q 7.71875 64.546875 14.59375 69.375 
Q 21.484375 74.21875 34.8125 74.21875 
Q 48.046875 74.21875 54.921875 69.40625 
Q 61.8125 64.59375 61.8125 55.328125 
Q 61.8125 49.125 58.421875 44.96875 
Q 55.03125 40.828125 48.390625 38.8125 
Q 55.8125 36.765625 59.59375 32.15625 
Q 63.375 27.546875 63.375 20.515625 
Q 63.375 9.671875 56.171875 4.125 
Q 48.96875 -1.421875 34.8125 -1.421875 
Q 20.609375 -1.421875 13.359375 4.125 
Q 6.109375 9.671875 6.109375 20.515625 
Q 6.109375 27.546875 9.890625 32.15625 
Q 13.671875 36.765625 21.09375 38.8125 
z
M 25.484375 53.421875 
Q 25.484375 49.078125 27.90625 46.734375 
Q 30.328125 44.390625 34.8125 44.390625 
Q 39.203125 44.390625 41.59375 46.734375 
Q 44 49.078125 44 53.421875 
Q 44 57.765625 41.59375 60.078125 
Q 39.203125 62.40625 34.8125 62.40625 
Q 30.328125 62.40625 27.90625 60.0625 
Q 25.484375 57.71875 25.484375 53.421875 
z
" id="DejaVuSans-Bold-56"/>
      </defs>
      <g transform="translate(27.992188 266.133643)scale(0.15 -0.15)">
       <use xlink:href="#DejaVuSans-Bold-48"/>
       <use x="69.580078" xlink:href="#DejaVuSans-Bold-46"/>
       <use x="107.568359" xlink:href="#DejaVuSans-Bold-56"/>
       <use x="177.148438" xlink:href="#DejaVuSans-Bold-48"/>
      </g>
     </g>
    </g>
    <g id="ytick_3">
     <g id="line2d_15">
      <path clip-path="url(#p20905b7b15)" d="M 72 208.133623 
L 518.4 208.133623 
" style="fill:none;stroke:#b0b0b0;stroke-dasharray:2.96,1.28;stroke-dashoffset:0;stroke-width:0.8;"/>
     </g>
     <g id="line2d_16">
      <g>
       <use style="stroke:#000000;stroke-width:0.8;" x="72" xlink:href="#md12a60a93c" y="208.133623"/>
      </g>
     </g>
     <g id="text_9">
      <!-- 0.85 -->
      <g transform="translate(27.992188 213.832451)scale(0.15 -0.15)">
       <use xlink:href="#DejaVuSans-Bold-48"/>
       <use x="69.580078" xlink:href="#DejaVuSans-Bold-46"/>
       <use x="107.568359" xlink:href="#DejaVuSans-Bold-56"/>
       <use x="177.148438" xlink:href="#DejaVuSans-Bold-53"/>
      </g>
     </g>
    </g>
    <g id="ytick_4">
     <g id="line2d_17">
      <path clip-path="url(#p20905b7b15)" d="M 72 155.832431 
L 518.4 155.832431 
" style="fill:none;stroke:#b0b0b0;stroke-dasharray:2.96,1.28;stroke-dashoffset:0;stroke-width:0.8;"/>
     </g>
     <g id="line2d_18">
      <g>
       <use style="stroke:#000000;stroke-width:0.8;" x="72" xlink:href="#md12a60a93c" y="155.832431"/>
      </g>
     </g>
     <g id="text_10">
      <!-- 0.90 -->
      <defs>
       <path d="M 10.015625 1.609375 
L 10.015625 15.09375 
Q 14.5 12.984375 18.59375 11.9375 
Q 22.703125 10.890625 26.703125 10.890625 
Q 35.109375 10.890625 39.796875 15.546875 
Q 44.484375 20.21875 45.3125 29.390625 
Q 42 26.953125 38.234375 25.734375 
Q 34.46875 24.515625 30.078125 24.515625 
Q 18.890625 24.515625 12.03125 31.03125 
Q 5.171875 37.546875 5.171875 48.1875 
Q 5.171875 59.96875 12.8125 67.046875 
Q 20.453125 74.125 33.296875 74.125 
Q 47.5625 74.125 55.375 64.5 
Q 63.1875 54.890625 63.1875 37.3125 
Q 63.1875 19.234375 54.046875 8.90625 
Q 44.921875 -1.421875 29 -1.421875 
Q 23.875 -1.421875 19.1875 -0.65625 
Q 14.5 0.09375 10.015625 1.609375 
z
M 33.203125 36.71875 
Q 38.140625 36.71875 40.625 39.90625 
Q 43.109375 43.109375 43.109375 49.515625 
Q 43.109375 55.859375 40.625 59.078125 
Q 38.140625 62.3125 33.203125 62.3125 
Q 28.265625 62.3125 25.78125 59.078125 
Q 23.296875 55.859375 23.296875 49.515625 
Q 23.296875 43.109375 25.78125 39.90625 
Q 28.265625 36.71875 33.203125 36.71875 
z
" id="DejaVuSans-Bold-57"/>
      </defs>
      <g transform="translate(27.992188 161.531259)scale(0.15 -0.15)">
       <use xlink:href="#DejaVuSans-Bold-48"/>
       <use x="69.580078" xlink:href="#DejaVuSans-Bold-46"/>
       <use x="107.568359" xlink:href="#DejaVuSans-Bold-57"/>
       <use x="177.148438" xlink:href="#DejaVuSans-Bold-48"/>
      </g>
     </g>
    </g>
    <g id="ytick_5">
     <g id="line2d_19">
      <path clip-path="url(#p20905b7b15)" d="M 72 103.531239 
L 518.4 103.531239 
" style="fill:none;stroke:#b0b0b0;stroke-dasharray:2.96,1.28;stroke-dashoffset:0;stroke-width:0.8;"/>
     </g>
     <g id="line2d_20">
      <g>
       <use style="stroke:#000000;stroke-width:0.8;" x="72" xlink:href="#md12a60a93c" y="103.531239"/>
      </g>
     </g>
     <g id="text_11">
      <!-- 0.95 -->
      <g transform="translate(27.992188 109.230068)scale(0.15 -0.15)">
       <use xlink:href="#DejaVuSans-Bold-48"/>
       <use x="69.580078" xlink:href="#DejaVuSans-Bold-46"/>
       <use x="107.568359" xlink:href="#DejaVuSans-Bold-57"/>
       <use x="177.148438" xlink:href="#DejaVuSans-Bold-53"/>
      </g>
     </g>
    </g>
    <g id="ytick_6">
     <g id="line2d_21">
      <path clip-path="url(#p20905b7b15)" d="M 72 51.230048 
L 518.4 51.230048 
" style="fill:none;stroke:#b0b0b0;stroke-dasharray:2.96,1.28;stroke-dashoffset:0;stroke-width:0.8;"/>
     </g>
     <g id="line2d_22">
      <g>
       <use style="stroke:#000000;stroke-width:0.8;" x="72" xlink:href="#md12a60a93c" y="51.230048"/>
      </g>
     </g>
     <g id="text_12">
      <!-- 1.00 -->
      <g transform="translate(27.992188 56.928876)scale(0.15 -0.15)">
       <use xlink:href="#DejaVuSans-Bold-49"/>
       <use x="69.580078" xlink:href="#DejaVuSans-Bold-46"/>
       <use x="107.568359" xlink:href="#DejaVuSans-Bold-48"/>
       <use x="177.148438" xlink:href="#DejaVuSans-Bold-48"/>
      </g>
     </g>
    </g>
    <g id="text_13">
     <!-- Score -->
     <defs>
      <path d="M 59.90625 70.609375 
L 59.90625 55.171875 
Q 53.90625 57.859375 48.1875 59.21875 
Q 42.484375 60.59375 37.40625 60.59375 
Q 30.671875 60.59375 27.4375 58.734375 
Q 24.21875 56.890625 24.21875 52.984375 
Q 24.21875 50.046875 26.390625 48.40625 
Q 28.5625 46.78125 34.28125 45.609375 
L 42.28125 44 
Q 54.4375 41.546875 59.5625 36.5625 
Q 64.703125 31.59375 64.703125 22.40625 
Q 64.703125 10.359375 57.546875 4.46875 
Q 50.390625 -1.421875 35.6875 -1.421875 
Q 28.765625 -1.421875 21.78125 -0.09375 
Q 14.796875 1.21875 7.8125 3.8125 
L 7.8125 19.671875 
Q 14.796875 15.96875 21.3125 14.078125 
Q 27.828125 12.203125 33.890625 12.203125 
Q 40.046875 12.203125 43.3125 14.25 
Q 46.578125 16.3125 46.578125 20.125 
Q 46.578125 23.53125 44.359375 25.390625 
Q 42.140625 27.25 35.5 28.71875 
L 28.21875 30.328125 
Q 17.28125 32.671875 12.21875 37.796875 
Q 7.171875 42.921875 7.171875 51.609375 
Q 7.171875 62.5 14.203125 68.359375 
Q 21.234375 74.21875 34.421875 74.21875 
Q 40.4375 74.21875 46.78125 73.3125 
Q 53.125 72.40625 59.90625 70.609375 
z
" id="DejaVuSans-Bold-83"/>
      <path d="M 52.59375 52.984375 
L 52.59375 38.71875 
Q 49.03125 41.15625 45.4375 42.328125 
Q 41.84375 43.5 37.984375 43.5 
Q 30.671875 43.5 26.59375 39.234375 
Q 22.515625 34.96875 22.515625 27.296875 
Q 22.515625 19.625 26.59375 15.34375 
Q 30.671875 11.078125 37.984375 11.078125 
Q 42.09375 11.078125 45.78125 12.296875 
Q 49.46875 13.53125 52.59375 15.921875 
L 52.59375 1.609375 
Q 48.484375 0.09375 44.265625 -0.65625 
Q 40.046875 -1.421875 35.796875 -1.421875 
Q 21 -1.421875 12.640625 6.171875 
Q 4.296875 13.765625 4.296875 27.296875 
Q 4.296875 40.828125 12.640625 48.40625 
Q 21 56 35.796875 56 
Q 40.09375 56 44.265625 55.25 
Q 48.4375 54.5 52.59375 52.984375 
z
" id="DejaVuSans-Bold-99"/>
      <path d="M 34.421875 43.5 
Q 28.609375 43.5 25.5625 39.328125 
Q 22.515625 35.15625 22.515625 27.296875 
Q 22.515625 19.4375 25.5625 15.25 
Q 28.609375 11.078125 34.421875 11.078125 
Q 40.140625 11.078125 43.15625 15.25 
Q 46.1875 19.4375 46.1875 27.296875 
Q 46.1875 35.15625 43.15625 39.328125 
Q 40.140625 43.5 34.421875 43.5 
z
M 34.421875 56 
Q 48.53125 56 56.46875 48.375 
Q 64.40625 40.765625 64.40625 27.296875 
Q 64.40625 13.8125 56.46875 6.1875 
Q 48.53125 -1.421875 34.421875 -1.421875 
Q 20.265625 -1.421875 12.28125 6.1875 
Q 4.296875 13.8125 4.296875 27.296875 
Q 4.296875 40.765625 12.28125 48.375 
Q 20.265625 56 34.421875 56 
z
" id="DejaVuSans-Bold-111"/>
      <path d="M 49.03125 39.796875 
Q 46.734375 40.875 44.453125 41.375 
Q 42.1875 41.890625 39.890625 41.890625 
Q 33.15625 41.890625 29.515625 37.5625 
Q 25.875 33.25 25.875 25.203125 
L 25.875 0 
L 8.40625 0 
L 8.40625 54.6875 
L 25.875 54.6875 
L 25.875 45.703125 
Q 29.25 51.078125 33.609375 53.53125 
Q 37.984375 56 44.09375 56 
Q 44.96875 56 45.984375 55.921875 
Q 47.015625 55.859375 48.96875 55.609375 
z
" id="DejaVuSans-Bold-114"/>
      <path d="M 62.984375 27.484375 
L 62.984375 22.515625 
L 22.125 22.515625 
Q 22.75 16.359375 26.5625 13.28125 
Q 30.375 10.203125 37.203125 10.203125 
Q 42.71875 10.203125 48.5 11.84375 
Q 54.296875 13.484375 60.40625 16.796875 
L 60.40625 3.328125 
Q 54.203125 0.984375 48 -0.21875 
Q 41.796875 -1.421875 35.59375 -1.421875 
Q 20.75 -1.421875 12.515625 6.125 
Q 4.296875 13.671875 4.296875 27.296875 
Q 4.296875 40.671875 12.375 48.328125 
Q 20.453125 56 34.625 56 
Q 47.515625 56 55.25 48.234375 
Q 62.984375 40.484375 62.984375 27.484375 
z
M 45.015625 33.296875 
Q 45.015625 38.28125 42.109375 41.328125 
Q 39.203125 44.390625 34.515625 44.390625 
Q 29.4375 44.390625 26.265625 41.53125 
Q 23.09375 38.671875 22.3125 33.296875 
z
" id="DejaVuSans-Bold-101"/>
     </defs>
     <g transform="translate(20.456719 208.756953)rotate(-90)scale(0.17 -0.17)">
      <use xlink:href="#DejaVuSans-Bold-83"/>
      <use x="72.021484" xlink:href="#DejaVuSans-Bold-99"/>
      <use x="131.298828" xlink:href="#DejaVuSans-Bold-111"/>
      <use x="200" xlink:href="#DejaVuSans-Bold-114"/>
      <use x="249.316406" xlink:href="#DejaVuSans-Bold-101"/>
     </g>
    </g>
   </g>
   <g id="line2d_23">
    <path clip-path="url(#p20905b7b15)" d="M 72 305.176843 
L 90.6 265.368391 
L 109.2 234.364352 
L 127.8 222.623437 
L 146.4 199.721675 
L 165 186.22328 
L 183.6 179.3781 
L 202.2 173.37432 
L 220.8 168.485214 
L 239.4 157.922504 
L 258 154.462518 
L 276.6 149.138007 
L 295.2 147.742556 
L 313.8 147.437818 
L 332.4 137.114809 
L 351 137.062934 
L 369.6 136.88778 
L 388.2 136.621624 
L 406.8 132.656067 
L 425.4 132.011774 
L 444 131.525608 
L 462.6 131.525608 
L 481.2 131.525608 
L 499.8 121.390406 
L 518.4 121.390406 
" style="fill:none;stroke:#ff0000;stroke-linecap:square;"/>
    <defs>
     <path d="M 0 1.5 
C 0.397805 1.5 0.77937 1.341951 1.06066 1.06066 
C 1.341951 0.77937 1.5 0.397805 1.5 0 
C 1.5 -0.397805 1.341951 -0.77937 1.06066 -1.06066 
C 0.77937 -1.341951 0.397805 -1.5 0 -1.5 
C -0.397805 -1.5 -0.77937 -1.341951 -1.06066 -1.06066 
C -1.341951 -0.77937 -1.5 -0.397805 -1.5 0 
C -1.5 0.397805 -1.341951 0.77937 -1.06066 1.06066 
C -0.77937 1.341951 -0.397805 1.5 0 1.5 
z
" id="m7690ea7577" style="stroke:#ff0000;"/>
    </defs>
    <g clip-path="url(#p20905b7b15)">
     <use style="fill:#ff0000;stroke:#ff0000;" x="72" xlink:href="#m7690ea7577" y="305.176843"/>
     <use style="fill:#ff0000;stroke:#ff0000;" x="90.6" xlink:href="#m7690ea7577" y="265.368391"/>
     <use style="fill:#ff0000;stroke:#ff0000;" x="109.2" xlink:href="#m7690ea7577" y="234.364352"/>
     <use style="fill:#ff0000;stroke:#ff0000;" x="127.8" xlink:href="#m7690ea7577" y="222.623437"/>
     <use style="fill:#ff0000;stroke:#ff0000;" x="146.4" xlink:href="#m7690ea7577" y="199.721675"/>
     <use style="fill:#ff0000;stroke:#ff0000;" x="165" xlink:href="#m7690ea7577" y="186.22328"/>
     <use style="fill:#ff0000;stroke:#ff0000;" x="183.6" xlink:href="#m7690ea7577" y="179.3781"/>
     <use style="fill:#ff0000;stroke:#ff0000;" x="202.2" xlink:href="#m7690ea7577" y="173.37432"/>
     <use style="fill:#ff0000;stroke:#ff0000;" x="220.8" xlink:href="#m7690ea7577" y="168.485214"/>
     <use style="fill:#ff0000;stroke:#ff0000;" x="239.4" xlink:href="#m7690ea7577" y="157.922504"/>
     <use style="fill:#ff0000;stroke:#ff0000;" x="258" xlink:href="#m7690ea7577" y="154.462518"/>
     <use style="fill:#ff0000;stroke:#ff0000;" x="276.6" xlink:href="#m7690ea7577" y="149.138007"/>
     <use style="fill:#ff0000;stroke:#ff0000;" x="295.2" xlink:href="#m7690ea7577" y="147.742556"/>
     <use style="fill:#ff0000;stroke:#ff0000;" x="313.8" xlink:href="#m7690ea7577" y="147.437818"/>
     <use style="fill:#ff0000;stroke:#ff0000;" x="332.4" xlink:href="#m7690ea7577" y="137.114809"/>
     <use style="fill:#ff0000;stroke:#ff0000;" x="351" xlink:href="#m7690ea7577" y="137.062934"/>
     <use style="fill:#ff0000;stroke:#ff0000;" x="369.6" xlink:href="#m7690ea7577" y="136.88778"/>
     <use style="fill:#ff0000;stroke:#ff0000;" x="388.2" xlink:href="#m7690ea7577" y="136.621624"/>
     <use style="fill:#ff0000;stroke:#ff0000;" x="406.8" xlink:href="#m7690ea7577" y="132.656067"/>
     <use style="fill:#ff0000;stroke:#ff0000;" x="425.4" xlink:href="#m7690ea7577" y="132.011774"/>
     <use style="fill:#ff0000;stroke:#ff0000;" x="444" xlink:href="#m7690ea7577" y="131.525608"/>
     <use style="fill:#ff0000;stroke:#ff0000;" x="462.6" xlink:href="#m7690ea7577" y="131.525608"/>
     <use style="fill:#ff0000;stroke:#ff0000;" x="481.2" xlink:href="#m7690ea7577" y="131.525608"/>
     <use style="fill:#ff0000;stroke:#ff0000;" x="499.8" xlink:href="#m7690ea7577" y="121.390406"/>
     <use style="fill:#ff0000;stroke:#ff0000;" x="518.4" xlink:href="#m7690ea7577" y="121.390406"/>
    </g>
   </g>
   <g id="line2d_24">
    <path clip-path="url(#p20905b7b15)" d="M 72 55.8 
L 90.6 56.9181 
L 109.2 58.914171 
L 127.8 57.968664 
L 146.4 60.760162 
L 165 64.197006 
L 183.6 65.71282 
L 202.2 71.671017 
L 220.8 67.536298 
L 239.4 76.398554 
L 258 77.291533 
L 276.6 74.755172 
L 295.2 75.055333 
L 313.8 76.526122 
L 332.4 77.314045 
L 351 77.314045 
L 369.6 77.734271 
L 388.2 77.734271 
L 406.8 85.628507 
L 425.4 85.666027 
L 444 84.082678 
L 462.6 84.082678 
L 481.2 84.082678 
L 499.8 94.325674 
L 518.4 94.325674 
" style="fill:none;stroke:#008000;stroke-linecap:square;"/>
    <defs>
     <path d="M 0 -3 
L -3 3 
L 3 3 
z
" id="m4cc4af28e7" style="stroke:#008000;stroke-linejoin:miter;"/>
    </defs>
    <g clip-path="url(#p20905b7b15)">
     <use style="fill:#008000;stroke:#008000;stroke-linejoin:miter;" x="72" xlink:href="#m4cc4af28e7" y="55.8"/>
     <use style="fill:#008000;stroke:#008000;stroke-linejoin:miter;" x="90.6" xlink:href="#m4cc4af28e7" y="56.9181"/>
     <use style="fill:#008000;stroke:#008000;stroke-linejoin:miter;" x="109.2" xlink:href="#m4cc4af28e7" y="58.914171"/>
     <use style="fill:#008000;stroke:#008000;stroke-linejoin:miter;" x="127.8" xlink:href="#m4cc4af28e7" y="57.968664"/>
     <use style="fill:#008000;stroke:#008000;stroke-linejoin:miter;" x="146.4" xlink:href="#m4cc4af28e7" y="60.760162"/>
     <use style="fill:#008000;stroke:#008000;stroke-linejoin:miter;" x="165" xlink:href="#m4cc4af28e7" y="64.197006"/>
     <use style="fill:#008000;stroke:#008000;stroke-linejoin:miter;" x="183.6" xlink:href="#m4cc4af28e7" y="65.71282"/>
     <use style="fill:#008000;stroke:#008000;stroke-linejoin:miter;" x="202.2" xlink:href="#m4cc4af28e7" y="71.671017"/>
     <use style="fill:#008000;stroke:#008000;stroke-linejoin:miter;" x="220.8" xlink:href="#m4cc4af28e7" y="67.536298"/>
     <use style="fill:#008000;stroke:#008000;stroke-linejoin:miter;" x="239.4" xlink:href="#m4cc4af28e7" y="76.398554"/>
     <use style="fill:#008000;stroke:#008000;stroke-linejoin:miter;" x="258" xlink:href="#m4cc4af28e7" y="77.291533"/>
     <use style="fill:#008000;stroke:#008000;stroke-linejoin:miter;" x="276.6" xlink:href="#m4cc4af28e7" y="74.755172"/>
     <use style="fill:#008000;stroke:#008000;stroke-linejoin:miter;" x="295.2" xlink:href="#m4cc4af28e7" y="75.055333"/>
     <use style="fill:#008000;stroke:#008000;stroke-linejoin:miter;" x="313.8" xlink:href="#m4cc4af28e7" y="76.526122"/>
     <use style="fill:#008000;stroke:#008000;stroke-linejoin:miter;" x="332.4" xlink:href="#m4cc4af28e7" y="77.314045"/>
     <use style="fill:#008000;stroke:#008000;stroke-linejoin:miter;" x="351" xlink:href="#m4cc4af28e7" y="77.314045"/>
     <use style="fill:#008000;stroke:#008000;stroke-linejoin:miter;" x="369.6" xlink:href="#m4cc4af28e7" y="77.734271"/>
     <use style="fill:#008000;stroke:#008000;stroke-linejoin:miter;" x="388.2" xlink:href="#m4cc4af28e7" y="77.734271"/>
     <use style="fill:#008000;stroke:#008000;stroke-linejoin:miter;" x="406.8" xlink:href="#m4cc4af28e7" y="85.628507"/>
     <use style="fill:#008000;stroke:#008000;stroke-linejoin:miter;" x="425.4" xlink:href="#m4cc4af28e7" y="85.666027"/>
     <use style="fill:#008000;stroke:#008000;stroke-linejoin:miter;" x="444" xlink:href="#m4cc4af28e7" y="84.082678"/>
     <use style="fill:#008000;stroke:#008000;stroke-linejoin:miter;" x="462.6" xlink:href="#m4cc4af28e7" y="84.082678"/>
     <use style="fill:#008000;stroke:#008000;stroke-linejoin:miter;" x="481.2" xlink:href="#m4cc4af28e7" y="84.082678"/>
     <use style="fill:#008000;stroke:#008000;stroke-linejoin:miter;" x="499.8" xlink:href="#m4cc4af28e7" y="94.325674"/>
     <use style="fill:#008000;stroke:#008000;stroke-linejoin:miter;" x="518.4" xlink:href="#m4cc4af28e7" y="94.325674"/>
    </g>
   </g>
   <g id="line2d_25">
    <path clip-path="url(#p20905b7b15)" d="M 72 197.447178 
L 90.6 172.747516 
L 109.2 154.734752 
L 127.8 147.378702 
L 146.4 135.233174 
L 165 129.039809 
L 183.6 125.859219 
L 202.2 125.175595 
L 220.8 120.61243 
L 239.4 118.855815 
L 258 117.394119 
L 276.6 113.350417 
L 295.2 112.738754 
L 313.8 113.257879 
L 332.4 108.117455 
L 351 108.089927 
L 369.6 108.194697 
L 388.2 108.053567 
L 406.8 109.701837 
L 425.4 109.382177 
L 444 108.37285 
L 462.6 108.37285 
L 481.2 108.37285 
L 499.8 108.043128 
L 518.4 108.043128 
" style="fill:none;stroke:#0000ff;stroke-linecap:square;"/>
    <defs>
     <path d="M 0 0 
L -3 -0 
M 0 0 
L 1.5 2.4 
M 0 0 
L 1.5 -2.4 
" id="m07bdd1c51d" style="stroke:#0000ff;"/>
    </defs>
    <g clip-path="url(#p20905b7b15)">
     <use style="fill:#0000ff;stroke:#0000ff;" x="72" xlink:href="#m07bdd1c51d" y="197.447178"/>
     <use style="fill:#0000ff;stroke:#0000ff;" x="90.6" xlink:href="#m07bdd1c51d" y="172.747516"/>
     <use style="fill:#0000ff;stroke:#0000ff;" x="109.2" xlink:href="#m07bdd1c51d" y="154.734752"/>
     <use style="fill:#0000ff;stroke:#0000ff;" x="127.8" xlink:href="#m07bdd1c51d" y="147.378702"/>
     <use style="fill:#0000ff;stroke:#0000ff;" x="146.4" xlink:href="#m07bdd1c51d" y="135.233174"/>
     <use style="fill:#0000ff;stroke:#0000ff;" x="165" xlink:href="#m07bdd1c51d" y="129.039809"/>
     <use style="fill:#0000ff;stroke:#0000ff;" x="183.6" xlink:href="#m07bdd1c51d" y="125.859219"/>
     <use style="fill:#0000ff;stroke:#0000ff;" x="202.2" xlink:href="#m07bdd1c51d" y="125.175595"/>
     <use style="fill:#0000ff;stroke:#0000ff;" x="220.8" xlink:href="#m07bdd1c51d" y="120.61243"/>
     <use style="fill:#0000ff;stroke:#0000ff;" x="239.4" xlink:href="#m07bdd1c51d" y="118.855815"/>
     <use style="fill:#0000ff;stroke:#0000ff;" x="258" xlink:href="#m07bdd1c51d" y="117.394119"/>
     <use style="fill:#0000ff;stroke:#0000ff;" x="276.6" xlink:href="#m07bdd1c51d" y="113.350417"/>
     <use style="fill:#0000ff;stroke:#0000ff;" x="295.2" xlink:href="#m07bdd1c51d" y="112.738754"/>
     <use style="fill:#0000ff;stroke:#0000ff;" x="313.8" xlink:href="#m07bdd1c51d" y="113.257879"/>
     <use style="fill:#0000ff;stroke:#0000ff;" x="332.4" xlink:href="#m07bdd1c51d" y="108.117455"/>
     <use style="fill:#0000ff;stroke:#0000ff;" x="351" xlink:href="#m07bdd1c51d" y="108.089927"/>
     <use style="fill:#0000ff;stroke:#0000ff;" x="369.6" xlink:href="#m07bdd1c51d" y="108.194697"/>
     <use style="fill:#0000ff;stroke:#0000ff;" x="388.2" xlink:href="#m07bdd1c51d" y="108.053567"/>
     <use style="fill:#0000ff;stroke:#0000ff;" x="406.8" xlink:href="#m07bdd1c51d" y="109.701837"/>
     <use style="fill:#0000ff;stroke:#0000ff;" x="425.4" xlink:href="#m07bdd1c51d" y="109.382177"/>
     <use style="fill:#0000ff;stroke:#0000ff;" x="444" xlink:href="#m07bdd1c51d" y="108.37285"/>
     <use style="fill:#0000ff;stroke:#0000ff;" x="462.6" xlink:href="#m07bdd1c51d" y="108.37285"/>
     <use style="fill:#0000ff;stroke:#0000ff;" x="481.2" xlink:href="#m07bdd1c51d" y="108.37285"/>
     <use style="fill:#0000ff;stroke:#0000ff;" x="499.8" xlink:href="#m07bdd1c51d" y="108.043128"/>
     <use style="fill:#0000ff;stroke:#0000ff;" x="518.4" xlink:href="#m07bdd1c51d" y="108.043128"/>
    </g>
   </g>
   <g id="line2d_26">
    <path clip-path="url(#p20905b7b15)" d="M 72 307.8 
L 90.6 268.969956 
L 109.2 239.600121 
L 127.8 227.339672 
L 146.4 206.747173 
L 165 196.075094 
L 183.6 190.548626 
L 202.2 189.35669 
L 220.8 181.363131 
L 239.4 178.268507 
L 258 175.685988 
L 276.6 168.506096 
L 295.2 167.415479 
L 313.8 168.341175 
L 332.4 159.136434 
L 351 159.086912 
L 369.6 159.275384 
L 388.2 159.021495 
L 406.8 161.982656 
L 425.4 161.409068 
L 444 159.595786 
L 462.6 159.595786 
L 481.2 159.595786 
L 499.8 159.002711 
L 518.4 159.002711 
" style="fill:none;stroke:#a52a2a;stroke-linecap:square;"/>
    <defs>
     <path d="M 0 -3 
L -0.673542 -0.927051 
L -2.85317 -0.927051 
L -1.089814 0.354102 
L -1.763356 2.427051 
L -0 1.145898 
L 1.763356 2.427051 
L 1.089814 0.354102 
L 2.85317 -0.927051 
L 0.673542 -0.927051 
z
" id="m69a63fa346" style="stroke:#a52a2a;stroke-linejoin:bevel;"/>
    </defs>
    <g clip-path="url(#p20905b7b15)">
     <use style="fill:#a52a2a;stroke:#a52a2a;stroke-linejoin:bevel;" x="72" xlink:href="#m69a63fa346" y="307.8"/>
     <use style="fill:#a52a2a;stroke:#a52a2a;stroke-linejoin:bevel;" x="90.6" xlink:href="#m69a63fa346" y="268.969956"/>
     <use style="fill:#a52a2a;stroke:#a52a2a;stroke-linejoin:bevel;" x="109.2" xlink:href="#m69a63fa346" y="239.600121"/>
     <use style="fill:#a52a2a;stroke:#a52a2a;stroke-linejoin:bevel;" x="127.8" xlink:href="#m69a63fa346" y="227.339672"/>
     <use style="fill:#a52a2a;stroke:#a52a2a;stroke-linejoin:bevel;" x="146.4" xlink:href="#m69a63fa346" y="206.747173"/>
     <use style="fill:#a52a2a;stroke:#a52a2a;stroke-linejoin:bevel;" x="165" xlink:href="#m69a63fa346" y="196.075094"/>
     <use style="fill:#a52a2a;stroke:#a52a2a;stroke-linejoin:bevel;" x="183.6" xlink:href="#m69a63fa346" y="190.548626"/>
     <use style="fill:#a52a2a;stroke:#a52a2a;stroke-linejoin:bevel;" x="202.2" xlink:href="#m69a63fa346" y="189.35669"/>
     <use style="fill:#a52a2a;stroke:#a52a2a;stroke-linejoin:bevel;" x="220.8" xlink:href="#m69a63fa346" y="181.363131"/>
     <use style="fill:#a52a2a;stroke:#a52a2a;stroke-linejoin:bevel;" x="239.4" xlink:href="#m69a63fa346" y="178.268507"/>
     <use style="fill:#a52a2a;stroke:#a52a2a;stroke-linejoin:bevel;" x="258" xlink:href="#m69a63fa346" y="175.685988"/>
     <use style="fill:#a52a2a;stroke:#a52a2a;stroke-linejoin:bevel;" x="276.6" xlink:href="#m69a63fa346" y="168.506096"/>
     <use style="fill:#a52a2a;stroke:#a52a2a;stroke-linejoin:bevel;" x="295.2" xlink:href="#m69a63fa346" y="167.415479"/>
     <use style="fill:#a52a2a;stroke:#a52a2a;stroke-linejoin:bevel;" x="313.8" xlink:href="#m69a63fa346" y="168.341175"/>
     <use style="fill:#a52a2a;stroke:#a52a2a;stroke-linejoin:bevel;" x="332.4" xlink:href="#m69a63fa346" y="159.136434"/>
     <use style="fill:#a52a2a;stroke:#a52a2a;stroke-linejoin:bevel;" x="351" xlink:href="#m69a63fa346" y="159.086912"/>
     <use style="fill:#a52a2a;stroke:#a52a2a;stroke-linejoin:bevel;" x="369.6" xlink:href="#m69a63fa346" y="159.275384"/>
     <use style="fill:#a52a2a;stroke:#a52a2a;stroke-linejoin:bevel;" x="388.2" xlink:href="#m69a63fa346" y="159.021495"/>
     <use style="fill:#a52a2a;stroke:#a52a2a;stroke-linejoin:bevel;" x="406.8" xlink:href="#m69a63fa346" y="161.982656"/>
     <use style="fill:#a52a2a;stroke:#a52a2a;stroke-linejoin:bevel;" x="425.4" xlink:href="#m69a63fa346" y="161.409068"/>
     <use style="fill:#a52a2a;stroke:#a52a2a;stroke-linejoin:bevel;" x="444" xlink:href="#m69a63fa346" y="159.595786"/>
     <use style="fill:#a52a2a;stroke:#a52a2a;stroke-linejoin:bevel;" x="462.6" xlink:href="#m69a63fa346" y="159.595786"/>
     <use style="fill:#a52a2a;stroke:#a52a2a;stroke-linejoin:bevel;" x="481.2" xlink:href="#m69a63fa346" y="159.595786"/>
     <use style="fill:#a52a2a;stroke:#a52a2a;stroke-linejoin:bevel;" x="499.8" xlink:href="#m69a63fa346" y="159.002711"/>
     <use style="fill:#a52a2a;stroke:#a52a2a;stroke-linejoin:bevel;" x="518.4" xlink:href="#m69a63fa346" y="159.002711"/>
    </g>
   </g>
   <g id="patch_3">
    <path d="M 72 320.4 
L 72 43.2 
" style="fill:none;stroke:#000000;stroke-linecap:square;stroke-linejoin:miter;stroke-width:0.8;"/>
   </g>
   <g id="patch_4">
    <path d="M 72 320.4 
L 518.4 320.4 
" style="fill:none;stroke:#000000;stroke-linecap:square;stroke-linejoin:miter;stroke-width:0.8;"/>
   </g>
   <g id="text_14">
    <!-- values of metrics as the change of K -->
    <defs>
     <path d="M 1.515625 54.6875 
L 19 54.6875 
L 32.625 16.890625 
L 46.1875 54.6875 
L 63.71875 54.6875 
L 42.1875 0 
L 23 0 
z
" id="DejaVuSans-Bold-118"/>
     <path d="M 32.90625 24.609375 
Q 27.4375 24.609375 24.671875 22.75 
Q 21.921875 20.90625 21.921875 17.28125 
Q 21.921875 13.96875 24.140625 12.078125 
Q 26.375 10.203125 30.328125 10.203125 
Q 35.25 10.203125 38.625 13.734375 
Q 42 17.28125 42 22.609375 
L 42 24.609375 
z
M 59.625 31.203125 
L 59.625 0 
L 42 0 
L 42 8.109375 
Q 38.484375 3.125 34.078125 0.84375 
Q 29.6875 -1.421875 23.390625 -1.421875 
Q 14.890625 -1.421875 9.59375 3.53125 
Q 4.296875 8.5 4.296875 16.40625 
Q 4.296875 26.03125 10.90625 30.515625 
Q 17.53125 35.015625 31.6875 35.015625 
L 42 35.015625 
L 42 36.375 
Q 42 40.53125 38.71875 42.453125 
Q 35.453125 44.390625 28.515625 44.390625 
Q 22.90625 44.390625 18.0625 43.265625 
Q 13.234375 42.140625 9.078125 39.890625 
L 9.078125 53.21875 
Q 14.703125 54.59375 20.359375 55.296875 
Q 26.03125 56 31.6875 56 
Q 46.484375 56 53.046875 50.171875 
Q 59.625 44.34375 59.625 31.203125 
z
" id="DejaVuSans-Bold-97"/>
     <path d="M 8.40625 75.984375 
L 25.875 75.984375 
L 25.875 0 
L 8.40625 0 
z
" id="DejaVuSans-Bold-108"/>
     <path d="M 7.8125 21.296875 
L 7.8125 54.6875 
L 25.390625 54.6875 
L 25.390625 49.21875 
Q 25.390625 44.78125 25.34375 38.0625 
Q 25.296875 31.34375 25.296875 29.109375 
Q 25.296875 22.515625 25.640625 19.609375 
Q 25.984375 16.703125 26.8125 15.375 
Q 27.875 13.671875 29.609375 12.734375 
Q 31.34375 11.8125 33.59375 11.8125 
Q 39.0625 11.8125 42.1875 16.015625 
Q 45.3125 20.21875 45.3125 27.6875 
L 45.3125 54.6875 
L 62.796875 54.6875 
L 62.796875 0 
L 45.3125 0 
L 45.3125 7.90625 
Q 41.359375 3.125 36.9375 0.84375 
Q 32.515625 -1.421875 27.203125 -1.421875 
Q 17.71875 -1.421875 12.765625 4.390625 
Q 7.8125 10.203125 7.8125 21.296875 
z
" id="DejaVuSans-Bold-117"/>
     <path d="M 51.125 52.984375 
L 51.125 39.703125 
Q 45.515625 42.046875 40.28125 43.21875 
Q 35.0625 44.390625 30.421875 44.390625 
Q 25.4375 44.390625 23.015625 43.140625 
Q 20.609375 41.890625 20.609375 39.3125 
Q 20.609375 37.203125 22.4375 36.078125 
Q 24.265625 34.96875 29 34.421875 
L 32.078125 33.984375 
Q 45.515625 32.28125 50.140625 28.375 
Q 54.78125 24.46875 54.78125 16.109375 
Q 54.78125 7.375 48.328125 2.96875 
Q 41.890625 -1.421875 29.109375 -1.421875 
Q 23.6875 -1.421875 17.890625 -0.5625 
Q 12.109375 0.296875 6 2 
L 6 15.28125 
Q 11.234375 12.75 16.71875 11.46875 
Q 22.21875 10.203125 27.875 10.203125 
Q 33.015625 10.203125 35.59375 11.609375 
Q 38.1875 13.03125 38.1875 15.828125 
Q 38.1875 18.171875 36.40625 19.3125 
Q 34.625 20.453125 29.296875 21.09375 
L 26.21875 21.484375 
Q 14.546875 22.953125 9.859375 26.90625 
Q 5.171875 30.859375 5.171875 38.921875 
Q 5.171875 47.609375 11.125 51.796875 
Q 17.09375 56 29.390625 56 
Q 34.234375 56 39.546875 55.265625 
Q 44.875 54.546875 51.125 52.984375 
z
" id="DejaVuSans-Bold-115"/>
     <path id="DejaVuSans-Bold-32"/>
     <path d="M 44.390625 75.984375 
L 44.390625 64.5 
L 34.71875 64.5 
Q 31 64.5 29.53125 63.15625 
Q 28.078125 61.8125 28.078125 58.5 
L 28.078125 54.6875 
L 43.015625 54.6875 
L 43.015625 42.1875 
L 28.078125 42.1875 
L 28.078125 0 
L 10.59375 0 
L 10.59375 42.1875 
L 1.90625 42.1875 
L 1.90625 54.6875 
L 10.59375 54.6875 
L 10.59375 58.5 
Q 10.59375 67.4375 15.578125 71.703125 
Q 20.5625 75.984375 31 75.984375 
z
" id="DejaVuSans-Bold-102"/>
     <path d="M 59.078125 45.609375 
Q 62.40625 50.6875 66.96875 53.34375 
Q 71.53125 56 77 56 
Q 86.421875 56 91.359375 50.1875 
Q 96.296875 44.390625 96.296875 33.296875 
L 96.296875 0 
L 78.71875 0 
L 78.71875 28.515625 
Q 78.765625 29.15625 78.78125 29.828125 
Q 78.8125 30.515625 78.8125 31.78125 
Q 78.8125 37.59375 77.09375 40.203125 
Q 75.390625 42.828125 71.578125 42.828125 
Q 66.609375 42.828125 63.890625 38.71875 
Q 61.1875 34.625 61.078125 26.859375 
L 61.078125 0 
L 43.5 0 
L 43.5 28.515625 
Q 43.5 37.59375 41.9375 40.203125 
Q 40.375 42.828125 36.375 42.828125 
Q 31.34375 42.828125 28.609375 38.703125 
Q 25.875 34.578125 25.875 26.90625 
L 25.875 0 
L 8.296875 0 
L 8.296875 54.6875 
L 25.875 54.6875 
L 25.875 46.6875 
Q 29.109375 51.3125 33.28125 53.65625 
Q 37.453125 56 42.484375 56 
Q 48.140625 56 52.484375 53.265625 
Q 56.84375 50.53125 59.078125 45.609375 
z
" id="DejaVuSans-Bold-109"/>
     <path d="M 27.484375 70.21875 
L 27.484375 54.6875 
L 45.515625 54.6875 
L 45.515625 42.1875 
L 27.484375 42.1875 
L 27.484375 19 
Q 27.484375 15.1875 29 13.84375 
Q 30.515625 12.5 35.015625 12.5 
L 44 12.5 
L 44 0 
L 29 0 
Q 18.65625 0 14.328125 4.3125 
Q 10.015625 8.640625 10.015625 19 
L 10.015625 42.1875 
L 1.3125 42.1875 
L 1.3125 54.6875 
L 10.015625 54.6875 
L 10.015625 70.21875 
z
" id="DejaVuSans-Bold-116"/>
     <path d="M 8.40625 54.6875 
L 25.875 54.6875 
L 25.875 0 
L 8.40625 0 
z
M 8.40625 75.984375 
L 25.875 75.984375 
L 25.875 61.71875 
L 8.40625 61.71875 
z
" id="DejaVuSans-Bold-105"/>
     <path d="M 63.375 33.296875 
L 63.375 0 
L 45.796875 0 
L 45.796875 5.421875 
L 45.796875 25.390625 
Q 45.796875 32.5625 45.484375 35.25 
Q 45.171875 37.9375 44.390625 39.203125 
Q 43.359375 40.921875 41.59375 41.875 
Q 39.84375 42.828125 37.59375 42.828125 
Q 32.125 42.828125 29 38.59375 
Q 25.875 34.375 25.875 26.90625 
L 25.875 0 
L 8.40625 0 
L 8.40625 75.984375 
L 25.875 75.984375 
L 25.875 46.6875 
Q 29.828125 51.46875 34.265625 53.734375 
Q 38.71875 56 44.09375 56 
Q 53.5625 56 58.46875 50.1875 
Q 63.375 44.390625 63.375 33.296875 
z
" id="DejaVuSans-Bold-104"/>
     <path d="M 63.375 33.296875 
L 63.375 0 
L 45.796875 0 
L 45.796875 5.421875 
L 45.796875 25.484375 
Q 45.796875 32.5625 45.484375 35.25 
Q 45.171875 37.9375 44.390625 39.203125 
Q 43.359375 40.921875 41.59375 41.875 
Q 39.84375 42.828125 37.59375 42.828125 
Q 32.125 42.828125 29 38.59375 
Q 25.875 34.375 25.875 26.90625 
L 25.875 0 
L 8.40625 0 
L 8.40625 54.6875 
L 25.875 54.6875 
L 25.875 46.6875 
Q 29.828125 51.46875 34.265625 53.734375 
Q 38.71875 56 44.09375 56 
Q 53.5625 56 58.46875 50.1875 
Q 63.375 44.390625 63.375 33.296875 
z
" id="DejaVuSans-Bold-110"/>
     <path d="M 45.609375 9.28125 
Q 42 4.5 37.640625 2.25 
Q 33.296875 0 27.59375 0 
Q 17.578125 0 11.03125 7.875 
Q 4.5 15.765625 4.5 27.984375 
Q 4.5 40.234375 11.03125 48.0625 
Q 17.578125 55.90625 27.59375 55.90625 
Q 33.296875 55.90625 37.640625 53.65625 
Q 42 51.421875 45.609375 46.578125 
L 45.609375 54.6875 
L 63.1875 54.6875 
L 63.1875 5.515625 
Q 63.1875 -7.671875 54.859375 -14.625 
Q 46.53125 -21.578125 30.71875 -21.578125 
Q 25.59375 -21.578125 20.796875 -20.796875 
Q 16.015625 -20.015625 11.1875 -18.40625 
L 11.1875 -4.78125 
Q 15.765625 -7.421875 20.15625 -8.71875 
Q 24.5625 -10.015625 29 -10.015625 
Q 37.59375 -10.015625 41.59375 -6.25 
Q 45.609375 -2.484375 45.609375 5.515625 
z
M 34.078125 43.3125 
Q 28.65625 43.3125 25.625 39.296875 
Q 22.609375 35.296875 22.609375 27.984375 
Q 22.609375 20.453125 25.53125 16.578125 
Q 28.46875 12.703125 34.078125 12.703125 
Q 39.546875 12.703125 42.578125 16.703125 
Q 45.609375 20.703125 45.609375 27.984375 
Q 45.609375 35.296875 42.578125 39.296875 
Q 39.546875 43.3125 34.078125 43.3125 
z
" id="DejaVuSans-Bold-103"/>
    </defs>
    <g transform="translate(89.635937 37.2)scale(0.2 -0.2)">
     <use xlink:href="#DejaVuSans-Bold-118"/>
     <use x="65.185547" xlink:href="#DejaVuSans-Bold-97"/>
     <use x="132.666016" xlink:href="#DejaVuSans-Bold-108"/>
     <use x="166.943359" xlink:href="#DejaVuSans-Bold-117"/>
     <use x="238.134766" xlink:href="#DejaVuSans-Bold-101"/>
     <use x="305.957031" xlink:href="#DejaVuSans-Bold-115"/>
     <use x="365.478516" xlink:href="#DejaVuSans-Bold-32"/>
     <use x="400.292969" xlink:href="#DejaVuSans-Bold-111"/>
     <use x="468.994141" xlink:href="#DejaVuSans-Bold-102"/>
     <use x="512.5" xlink:href="#DejaVuSans-Bold-32"/>
     <use x="547.314453" xlink:href="#DejaVuSans-Bold-109"/>
     <use x="651.513672" xlink:href="#DejaVuSans-Bold-101"/>
     <use x="719.335938" xlink:href="#DejaVuSans-Bold-116"/>
     <use x="767.138672" xlink:href="#DejaVuSans-Bold-114"/>
     <use x="816.455078" xlink:href="#DejaVuSans-Bold-105"/>
     <use x="850.732422" xlink:href="#DejaVuSans-Bold-99"/>
     <use x="910.009766" xlink:href="#DejaVuSans-Bold-115"/>
     <use x="969.53125" xlink:href="#DejaVuSans-Bold-32"/>
     <use x="1004.345703" xlink:href="#DejaVuSans-Bold-97"/>
     <use x="1071.826172" xlink:href="#DejaVuSans-Bold-115"/>
     <use x="1131.347656" xlink:href="#DejaVuSans-Bold-32"/>
     <use x="1166.162109" xlink:href="#DejaVuSans-Bold-116"/>
     <use x="1213.964844" xlink:href="#DejaVuSans-Bold-104"/>
     <use x="1285.15625" xlink:href="#DejaVuSans-Bold-101"/>
     <use x="1352.978516" xlink:href="#DejaVuSans-Bold-32"/>
     <use x="1387.792969" xlink:href="#DejaVuSans-Bold-99"/>
     <use x="1447.070312" xlink:href="#DejaVuSans-Bold-104"/>
     <use x="1518.261719" xlink:href="#DejaVuSans-Bold-97"/>
     <use x="1585.742188" xlink:href="#DejaVuSans-Bold-110"/>
     <use x="1656.933594" xlink:href="#DejaVuSans-Bold-103"/>
     <use x="1728.515625" xlink:href="#DejaVuSans-Bold-101"/>
     <use x="1796.337891" xlink:href="#DejaVuSans-Bold-32"/>
     <use x="1831.152344" xlink:href="#DejaVuSans-Bold-111"/>
     <use x="1899.853516" xlink:href="#DejaVuSans-Bold-102"/>
     <use x="1943.359375" xlink:href="#DejaVuSans-Bold-32"/>
     <use x="1978.173828" xlink:href="#DejaVuSans-Bold-75"/>
    </g>
   </g>
   <g id="legend_1">
    <g id="patch_5">
     <path d="M 391.393125 315.4 
L 511.4 315.4 
Q 513.4 315.4 513.4 313.4 
L 513.4 228.58875 
Q 513.4 226.58875 511.4 226.58875 
L 391.393125 226.58875 
Q 389.393125 226.58875 389.393125 228.58875 
L 389.393125 313.4 
Q 389.393125 315.4 391.393125 315.4 
z
" style="fill:#ffffff;opacity:0.8;stroke:#cccccc;stroke-linejoin:miter;"/>
    </g>
    <g id="line2d_27">
     <path d="M 393.393125 240.006094 
L 413.393125 240.006094 
" style="fill:none;stroke:#ff0000;stroke-linecap:square;"/>
    </g>
    <g id="line2d_28">
     <g>
      <use style="fill:#ff0000;stroke:#ff0000;" x="403.393125" xlink:href="#m7690ea7577" y="240.006094"/>
     </g>
    </g>
    <g id="text_15">
     <!-- Precision -->
     <defs>
      <path d="M 9.1875 72.90625 
L 40.375 72.90625 
Q 54.296875 72.90625 61.734375 66.71875 
Q 69.1875 60.546875 69.1875 49.125 
Q 69.1875 37.640625 61.734375 31.46875 
Q 54.296875 25.296875 40.375 25.296875 
L 27.984375 25.296875 
L 27.984375 0 
L 9.1875 0 
z
M 27.984375 59.28125 
L 27.984375 38.921875 
L 38.375 38.921875 
Q 43.84375 38.921875 46.828125 41.578125 
Q 49.8125 44.234375 49.8125 49.125 
Q 49.8125 54 46.828125 56.640625 
Q 43.84375 59.28125 38.375 59.28125 
z
" id="DejaVuSans-Bold-80"/>
     </defs>
     <g transform="translate(421.393125 243.506094)scale(0.17 -0.17)">
      <use xlink:href="#DejaVuSans-Bold-80"/>
      <use x="73.291016" xlink:href="#DejaVuSans-Bold-114"/>
      <use x="122.607422" xlink:href="#DejaVuSans-Bold-101"/>
      <use x="190.429688" xlink:href="#DejaVuSans-Bold-99"/>
      <use x="249.707031" xlink:href="#DejaVuSans-Bold-105"/>
      <use x="283.984375" xlink:href="#DejaVuSans-Bold-115"/>
      <use x="343.505859" xlink:href="#DejaVuSans-Bold-105"/>
      <use x="377.783203" xlink:href="#DejaVuSans-Bold-111"/>
      <use x="446.484375" xlink:href="#DejaVuSans-Bold-110"/>
     </g>
    </g>
    <g id="line2d_29">
     <path d="M 393.393125 261.458906 
L 413.393125 261.458906 
" style="fill:none;stroke:#008000;stroke-linecap:square;"/>
    </g>
    <g id="line2d_30">
     <g>
      <use style="fill:#008000;stroke:#008000;stroke-linejoin:miter;" x="403.393125" xlink:href="#m4cc4af28e7" y="261.458906"/>
     </g>
    </g>
    <g id="text_16">
     <!-- Recall -->
     <defs>
      <path d="M 35.890625 40.578125 
Q 41.796875 40.578125 44.359375 42.765625 
Q 46.921875 44.96875 46.921875 50 
Q 46.921875 54.984375 44.359375 57.125 
Q 41.796875 59.28125 35.890625 59.28125 
L 27.984375 59.28125 
L 27.984375 40.578125 
z
M 27.984375 27.59375 
L 27.984375 0 
L 9.1875 0 
L 9.1875 72.90625 
L 37.890625 72.90625 
Q 52.296875 72.90625 59 68.0625 
Q 65.71875 63.234375 65.71875 52.78125 
Q 65.71875 45.5625 62.21875 40.921875 
Q 58.734375 36.28125 51.703125 34.078125 
Q 55.5625 33.203125 58.609375 30.09375 
Q 61.671875 27 64.796875 20.703125 
L 75 0 
L 54.984375 0 
L 46.09375 18.109375 
Q 43.40625 23.578125 40.640625 25.578125 
Q 37.890625 27.59375 33.296875 27.59375 
z
" id="DejaVuSans-Bold-82"/>
     </defs>
     <g transform="translate(421.393125 264.958906)scale(0.17 -0.17)">
      <use xlink:href="#DejaVuSans-Bold-82"/>
      <use x="77.001953" xlink:href="#DejaVuSans-Bold-101"/>
      <use x="144.824219" xlink:href="#DejaVuSans-Bold-99"/>
      <use x="204.101562" xlink:href="#DejaVuSans-Bold-97"/>
      <use x="271.582031" xlink:href="#DejaVuSans-Bold-108"/>
      <use x="305.859375" xlink:href="#DejaVuSans-Bold-108"/>
     </g>
    </g>
    <g id="line2d_31">
     <path d="M 393.393125 282.911719 
L 413.393125 282.911719 
" style="fill:none;stroke:#0000ff;stroke-linecap:square;"/>
    </g>
    <g id="line2d_32">
     <g>
      <use style="fill:#0000ff;stroke:#0000ff;" x="403.393125" xlink:href="#m07bdd1c51d" y="282.911719"/>
     </g>
    </g>
    <g id="text_17">
     <!-- F1 -->
     <defs>
      <path d="M 9.1875 72.90625 
L 59.90625 72.90625 
L 59.90625 58.6875 
L 27.984375 58.6875 
L 27.984375 45.125 
L 58.015625 45.125 
L 58.015625 30.90625 
L 27.984375 30.90625 
L 27.984375 0 
L 9.1875 0 
z
" id="DejaVuSans-Bold-70"/>
     </defs>
     <g transform="translate(421.393125 286.411719)scale(0.17 -0.17)">
      <use xlink:href="#DejaVuSans-Bold-70"/>
      <use x="68.310547" xlink:href="#DejaVuSans-Bold-49"/>
     </g>
    </g>
    <g id="line2d_33">
     <path d="M 393.393125 304.364531 
L 413.393125 304.364531 
" style="fill:none;stroke:#a52a2a;stroke-linecap:square;"/>
    </g>
    <g id="line2d_34">
     <g>
      <use style="fill:#a52a2a;stroke:#a52a2a;stroke-linejoin:bevel;" x="403.393125" xlink:href="#m69a63fa346" y="304.364531"/>
     </g>
    </g>
    <g id="text_18">
     <!-- IoU -->
     <defs>
      <path d="M 9.1875 72.90625 
L 27.984375 72.90625 
L 27.984375 0 
L 9.1875 0 
z
" id="DejaVuSans-Bold-73"/>
      <path d="M 9.1875 72.90625 
L 27.984375 72.90625 
L 27.984375 29.203125 
Q 27.984375 20.171875 30.9375 16.28125 
Q 33.890625 12.40625 40.578125 12.40625 
Q 47.3125 12.40625 50.265625 16.28125 
Q 53.21875 20.171875 53.21875 29.203125 
L 53.21875 72.90625 
L 72.015625 72.90625 
L 72.015625 29.203125 
Q 72.015625 13.71875 64.25 6.140625 
Q 56.5 -1.421875 40.578125 -1.421875 
Q 24.703125 -1.421875 16.9375 6.140625 
Q 9.1875 13.71875 9.1875 29.203125 
z
" id="DejaVuSans-Bold-85"/>
     </defs>
     <g transform="translate(421.393125 307.864531)scale(0.17 -0.17)">
      <use xlink:href="#DejaVuSans-Bold-73"/>
      <use x="37.207031" xlink:href="#DejaVuSans-Bold-111"/>
      <use x="105.908203" xlink:href="#DejaVuSans-Bold-85"/>
     </g>
    </g>
   </g>
  </g>
 </g>
 <defs>
  <clipPath id="p20905b7b15">
   <rect height="277.2" width="446.4" x="72" y="43.2"/>
  </clipPath>
 </defs>
</svg>
