<?xml version="1.0" encoding="UTF-8" standalone="no"?>
<svg
   xmlns:dc="http://purl.org/dc/elements/1.1/"
   xmlns:cc="http://creativecommons.org/ns#"
   xmlns:rdf="http://www.w3.org/1999/02/22-rdf-syntax-ns#"
   xmlns:svg="http://www.w3.org/2000/svg"
   xmlns="http://www.w3.org/2000/svg"
   xmlns:xlink="http://www.w3.org/1999/xlink"
   xmlns:sodipodi="http://sodipodi.sourceforge.net/DTD/sodipodi-0.dtd"
   xmlns:inkscape="http://www.inkscape.org/namespaces/inkscape"
   inkscape:export-ydpi="300"
   inkscape:export-xdpi="300"
   inkscape:export-filename="C:\python_pycharm_label_test\compared_experiments\segmentation\216802_216803-100050_100051-18_lmda_polyline.png"
   inkscape:version="1.0 (4035a4fb49, 2020-05-01)"
   sodipodi:docname="216802_216803-100050_100051-18_lmda_polyline.svg"
   id="svg564"
   width="231.13625pt"
   viewBox="0 0 231.13625 146.265"
   version="1.1"
   height="146.265pt">
  <metadata
     id="metadata568">
    <rdf:RDF>
      <cc:Work
         rdf:about="">
        <dc:format>image/svg+xml</dc:format>
        <dc:type
           rdf:resource="http://purl.org/dc/dcmitype/StillImage" />
      </cc:Work>
    </rdf:RDF>
  </metadata>
  <sodipodi:namedview
     inkscape:current-layer="svg564"
     inkscape:window-maximized="1"
     inkscape:window-y="-8"
     inkscape:window-x="-8"
     inkscape:cy="89.066667"
     inkscape:cx="168.83833"
     inkscape:zoom="3.2738095"
     showgrid="false"
     id="namedview566"
     inkscape:window-height="1058"
     inkscape:window-width="1858"
     inkscape:pageshadow="2"
     inkscape:pageopacity="0"
     guidetolerance="10"
     gridtolerance="10"
     objecttolerance="10"
     borderopacity="1"
     bordercolor="#666666"
     pagecolor="#ffffff" />
  <defs
     id="defs4">
    <style
       id="style2"
       type="text/css">
*{stroke-linecap:butt;stroke-linejoin:round;}
  </style>
  </defs>
  <g
     transform="translate(0.62875,-5.2)"
     id="patch_2">
    <path
       id="path9"
       style="fill:#ffffff"
       d="M 31.5,128.16 H 226.8 V 17.28 H 31.5 Z" />
  </g>
  <g
     transform="translate(0.62875,-5.2)"
     id="matplotlib.axis_1">
    <g
       id="xtick_1">
      <g
         id="line2d_1">
        <path
           id="path12"
           style="fill:none;stroke:#b0b0b0;stroke-width:0.8;stroke-dasharray:2.96, 1.28;stroke-dashoffset:0"
           d="M 31.5,128.16 V 17.28"
           clip-path="url(#p8612c0f1ef)" />
      </g>
      <g
         id="line2d_2">
        <defs
           id="defs16">
          <path
             style="stroke:#000000;stroke-width:0.8"
             id="m62fc60c156"
             d="M 0,0 V 3.5" />
        </defs>
        <g
           id="g20">
          <use
             height="100%"
             width="100%"
             id="use18"
             y="128.16"
             xlink:href="#m62fc60c156"
             x="31.5"
             style="stroke:#000000;stroke-width:0.8" />
        </g>
      </g>
      <g
         id="text_1">
        <!-- 0 -->
        <defs
           id="defs24">
          <path
             id="TimesNewRomanPS-BoldMT-48"
             d="M 46.34375,33.109375 Q 46.34375,23.1875 43.5625,14.59375 41.890625,9.328125 39.078125,5.953125 36.28125,2.59375 32.71875,0.609375 29.15625,-1.375 24.953125,-1.375 q -4.78125,0 -8.640625,2.4375 -3.859375,2.453125 -6.84375,7 -2.140625,3.3125 -3.75,8.828125 -2.109375,7.46875 -2.109375,15.4375 0,10.78125 3.03125,19.828125 2.484375,7.46875 7.5625,11.4375 5.078125,3.984375 10.75,3.984375 5.765625,0 10.765625,-3.9375 5,-3.921875 7.34375,-10.5625 3.28125,-9.125 3.28125,-19.96875 z m -15.046875,0.09375 q 0,17.390625 -0.1875,20.265625 -0.5,6.78125 -2.34375,9.171875 -1.21875,1.5625 -3.953125,1.5625 -2.109375,0 -3.328125,-1.171875 Q 19.671875,61.328125 19.03125,57 q -0.625,-4.3125 -0.625,-30.140625 0,-14.0625 0.984375,-18.84375 0.734375,-3.46875 2.09375,-4.640625 1.375,-1.171875 3.609375,-1.171875 2.453125,0 3.671875,1.5625 2.046875,2.734375 2.34375,8.4375 z" />
        </defs>
        <g
           id="g28"
           transform="matrix(0.08,0,0,-0.08,29.5,140.4575)">
          <use
             height="100%"
             width="100%"
             y="0"
             x="0"
             id="use26"
             xlink:href="#TimesNewRomanPS-BoldMT-48" />
        </g>
      </g>
    </g>
    <g
       id="xtick_2">
      <g
         id="line2d_3">
        <path
           id="path32"
           style="fill:none;stroke:#b0b0b0;stroke-width:0.8;stroke-dasharray:2.96, 1.28;stroke-dashoffset:0"
           d="M 70.56,128.16 V 17.28"
           clip-path="url(#p8612c0f1ef)" />
      </g>
      <g
         id="line2d_4">
        <g
           id="g37">
          <use
             height="100%"
             width="100%"
             id="use35"
             y="128.16"
             xlink:href="#m62fc60c156"
             x="70.559998"
             style="stroke:#000000;stroke-width:0.8" />
        </g>
      </g>
      <g
         id="text_2">
        <!-- 2 -->
        <defs
           id="defs41">
          <path
             id="TimesNewRomanPS-BoldMT-50"
             d="M 41.40625,0 H 2.4375 v 1.078125 q 17.921875,21.328125 21.75,28.703125 3.84375,7.375 3.84375,14.40625 0,5.125 -3.171875,8.515625 -3.171875,3.40625 -7.765625,3.40625 -7.515625,0 -11.671875,-7.53125 l -1.8125,0.640625 Q 6.25,58.59375 11.625,63.078125 q 5.375,4.5 12.40625,4.5 5.015625,0 9.171875,-2.34375 4.15625,-2.34375 6.5,-6.421875 2.34375,-4.078125 2.34375,-7.640625 0,-6.5 -3.625,-13.1875 Q 33.5,28.953125 16.890625,12.796875 h 14.3125 q 5.265625,0 6.859375,0.4375 1.59375,0.4375 2.609375,1.484375 1.03125,1.046875 2.6875,4.421875 H 45.125 Z" />
        </defs>
        <g
           id="g45"
           transform="matrix(0.08,0,0,-0.08,68.56,140.4575)">
          <use
             height="100%"
             width="100%"
             y="0"
             x="0"
             id="use43"
             xlink:href="#TimesNewRomanPS-BoldMT-50" />
        </g>
      </g>
    </g>
    <g
       id="xtick_3">
      <g
         id="line2d_5">
        <path
           id="path49"
           style="fill:none;stroke:#b0b0b0;stroke-width:0.8;stroke-dasharray:2.96, 1.28;stroke-dashoffset:0"
           d="M 109.62,128.16 V 17.28"
           clip-path="url(#p8612c0f1ef)" />
      </g>
      <g
         id="line2d_6">
        <g
           id="g54">
          <use
             height="100%"
             width="100%"
             id="use52"
             y="128.16"
             xlink:href="#m62fc60c156"
             x="109.62"
             style="stroke:#000000;stroke-width:0.8" />
        </g>
      </g>
      <g
         id="text_3">
        <!-- 4 -->
        <defs
           id="defs58">
          <path
             id="TimesNewRomanPS-BoldMT-52"
             d="m 2.484375,24.953125 31.453125,42.625 h 5.953125 v -42.625 h 6.0625 V 14.84375 h -6.0625 V 0 H 26.46875 V 14.84375 H 2.484375 Z m 4.75,0 H 26.46875 v 26.125 z" />
        </defs>
        <g
           id="g62"
           transform="matrix(0.08,0,0,-0.08,107.62,140.4575)">
          <use
             height="100%"
             width="100%"
             y="0"
             x="0"
             id="use60"
             xlink:href="#TimesNewRomanPS-BoldMT-52" />
        </g>
      </g>
    </g>
    <g
       id="xtick_4">
      <g
         id="line2d_7">
        <path
           id="path66"
           style="fill:none;stroke:#b0b0b0;stroke-width:0.8;stroke-dasharray:2.96, 1.28;stroke-dashoffset:0"
           d="M 148.68,128.16 V 17.28"
           clip-path="url(#p8612c0f1ef)" />
      </g>
      <g
         id="line2d_8">
        <g
           id="g71">
          <use
             height="100%"
             width="100%"
             id="use69"
             y="128.16"
             xlink:href="#m62fc60c156"
             x="148.67999"
             style="stroke:#000000;stroke-width:0.8" />
        </g>
      </g>
      <g
         id="text_4">
        <!-- 6 -->
        <defs
           id="defs75">
          <path
             id="TimesNewRomanPS-BoldMT-54"
             d="M 46.96875,67.578125 V 66.21875 q -8.828125,-2.25 -14.1875,-5.796875 -5.34375,-3.53125 -8.453125,-8.59375 -3.09375,-5.046875 -4.796875,-12.515625 2.15625,1.453125 3.5625,1.90625 3.171875,0.96875 6.40625,0.96875 7.421875,0 12.375,-5.40625 4.953125,-5.390625 4.953125,-14.703125 0,-6.546875 -2.6875,-12.015625 -2.6875,-5.46875 -7.625,-8.453125 Q 31.59375,-1.375 25.984375,-1.375 19.875,-1.375 14.6875,1.96875 9.515625,5.328125 6.609375,11.765625 3.71875,18.21875 3.71875,25.78125 q 0,11.140625 5.34375,20.734375 5.34375,9.59375 15.171875,15.28125 9.84375,5.6875 22.734375,5.78125 z M 18.890625,35.359375 Q 18.5,28.609375 18.5,25.484375 18.5,18.75 19.796875,12.453125 21.09375,6.15625 23.34375,3.609375 24.953125,1.8125 27.15625,1.8125 q 2.234375,0 3.984375,2.609375 1.765625,2.609375 1.765625,10.625 0,13.46875 -3.265625,18.59375 -2.09375,3.328125 -5.671875,3.328125 -1.953125,0 -5.078125,-1.609375 z" />
        </defs>
        <g
           id="g79"
           transform="matrix(0.08,0,0,-0.08,146.68,140.4575)">
          <use
             height="100%"
             width="100%"
             y="0"
             x="0"
             id="use77"
             xlink:href="#TimesNewRomanPS-BoldMT-54" />
        </g>
      </g>
    </g>
    <g
       id="xtick_5">
      <g
         id="line2d_9">
        <path
           id="path83"
           style="fill:none;stroke:#b0b0b0;stroke-width:0.8;stroke-dasharray:2.96, 1.28;stroke-dashoffset:0"
           d="M 187.74,128.16 V 17.28"
           clip-path="url(#p8612c0f1ef)" />
      </g>
      <g
         id="line2d_10">
        <g
           id="g88">
          <use
             height="100%"
             width="100%"
             id="use86"
             y="128.16"
             xlink:href="#m62fc60c156"
             x="187.74001"
             style="stroke:#000000;stroke-width:0.8" />
        </g>
      </g>
      <g
         id="text_5">
        <!-- 8 -->
        <defs
           id="defs92">
          <path
             id="TimesNewRomanPS-BoldMT-56"
             d="m 34.078125,37.40625 q 6.984375,-5.125 9.6875,-9.546875 2.71875,-4.421875 2.71875,-10.140625 0,-8 -6.03125,-13.546875 -6.03125,-5.546875 -16.375,-5.546875 -9.8125,0 -15.1875,4.828125 -5.375,4.84375 -5.375,11.828125 0,5.328125 3.09375,9.328125 3.109375,4 10.328125,7.328125 -7.859375,6 -10.078125,9.8125 -2.21875,3.8125 -2.21875,8.84375 0,6.640625 5.640625,11.6875 5.640625,5.046875 15.453125,5.046875 9.46875,0 14.5625,-4.46875 5.109375,-4.453125 5.109375,-10.703125 0,-4.6875 -2.765625,-8.28125 -2.75,-3.59375 -8.5625,-6.46875 z M 30.375,39.890625 q 1.796875,2.4375 2.671875,5.46875 Q 33.9375,48.390625 33.9375,52 q 0,6.34375 -2.734375,9.71875 -2.046875,2.59375 -5.671875,2.59375 -3.265625,0 -5.5625,-2.375 -2.296875,-2.359375 -2.296875,-5.875 0,-3.578125 2.5625,-7.40625 2.5625,-3.828125 10.140625,-8.765625 z M 20.609375,29.59375 q -1.515625,-1.375 -2.15625,-2.5 -0.96875,-1.703125 -1.75,-4.984375 -0.78125,-3.265625 -0.78125,-6.828125 0,-4.59375 1.171875,-7.6875 Q 18.265625,4.5 20.4375,3.125 q 2.171875,-1.359375 4.46875,-1.359375 3.5625,0 6,2.609375 2.4375,2.609375 2.4375,7.15625 0,9.46875 -12.734375,18.0625 z" />
        </defs>
        <g
           id="g96"
           transform="matrix(0.08,0,0,-0.08,185.74,140.4575)">
          <use
             height="100%"
             width="100%"
             y="0"
             x="0"
             id="use94"
             xlink:href="#TimesNewRomanPS-BoldMT-56" />
        </g>
      </g>
    </g>
    <g
       id="xtick_6">
      <g
         id="line2d_11">
        <path
           id="path100"
           style="fill:none;stroke:#b0b0b0;stroke-width:0.8;stroke-dasharray:2.96, 1.28;stroke-dashoffset:0"
           d="M 226.8,128.16 V 17.28"
           clip-path="url(#p8612c0f1ef)" />
      </g>
      <g
         id="line2d_12">
        <g
           id="g105">
          <use
             height="100%"
             width="100%"
             id="use103"
             y="128.16"
             xlink:href="#m62fc60c156"
             x="226.8"
             style="stroke:#000000;stroke-width:0.8" />
        </g>
      </g>
      <g
         id="text_6">
        <!-- 10 -->
        <defs
           id="defs109">
          <path
             id="TimesNewRomanPS-BoldMT-49"
             d="m 32.5625,67.578125 v -54.15625 q 0,-6.09375 0.53125,-7.78125 0.546875,-1.6875 2.25,-2.765625 1.71875,-1.0625 5.484375,-1.0625 h 1.5 V 0 H 7.46875 v 1.8125 h 1.765625 q 4.25,0 6.046875,0.96875 1.8125,0.984375 2.4375,2.6875 0.640625,1.703125 0.640625,7.953125 V 47.75 q 0,4.59375 -0.4375,5.734375 -0.4375,1.15625 -1.640625,1.953125 -1.1875,0.8125 -2.75,0.8125 -2.5,0 -6.0625,-1.5625 l -0.875,1.765625 24.359375,11.125 z" />
        </defs>
        <g
           id="g115"
           transform="matrix(0.08,0,0,-0.08,222.8,140.4575)">
          <use
             height="100%"
             width="100%"
             y="0"
             x="0"
             id="use111"
             xlink:href="#TimesNewRomanPS-BoldMT-49" />
          <use
             height="100%"
             width="100%"
             y="0"
             id="use113"
             xlink:href="#TimesNewRomanPS-BoldMT-48"
             x="50" />
        </g>
      </g>
    </g>
    <g
       id="text_7">
      <!-- $\lambda$ -->
      <defs
         id="defs120">
        <path
           id="DejaVuSans-Oblique-955"
           d="M 36.71875,67.4375 48.828125,0 H 39.3125 L 31.84375,40.4375 5.125,0 h -9.515625 l 34.125,52.4375 -1.703125,9.671875 q -1.078125,6.15625 -6.296875,6.15625 h -4.6875 L 18.5,75.984375 24.21875,75.875 q 10.984375,-0.140625 12.5,-8.4375 z" />
      </defs>
      <g
         id="g124"
         transform="matrix(0.08,0,0,-0.08,126.75,151.46625)">
        <use
           height="100%"
           width="100%"
           y="0"
           x="0"
           id="use122"
           xlink:href="#DejaVuSans-Oblique-955"
           transform="translate(0,0.015625)" />
      </g>
    </g>
  </g>
  <g
     transform="translate(0.62875,-5.2)"
     id="matplotlib.axis_2">
    <g
       id="ytick_1">
      <g
         id="line2d_13">
        <path
           id="path128"
           style="fill:none;stroke:#b0b0b0;stroke-width:0.8;stroke-dasharray:2.96, 1.28;stroke-dashoffset:0"
           d="M 31.5,107.44393 H 226.8"
           clip-path="url(#p8612c0f1ef)" />
      </g>
      <g
         id="line2d_14">
        <defs
           id="defs132">
          <path
             style="stroke:#000000;stroke-width:0.8"
             id="m4801157cdc"
             d="M 0,0 H -3.5" />
        </defs>
        <g
           id="g136">
          <use
             height="100%"
             width="100%"
             id="use134"
             y="107.44392"
             xlink:href="#m4801157cdc"
             x="31.5"
             style="stroke:#000000;stroke-width:0.8" />
        </g>
      </g>
      <g
         id="text_8">
        <!-- 0.75 -->
        <defs
           id="defs142">
          <path
             id="TimesNewRomanPS-BoldMT-46"
             d="m 12.5,15.046875 q 3.421875,0 5.78125,-2.40625 2.375,-2.390625 2.375,-5.75 0,-3.375 -2.390625,-5.75 Q 15.875,-1.21875 12.5,-1.21875 q -3.375,0 -5.75,2.359375 -2.359375,2.375 -2.359375,5.75 0,3.359375 2.359375,5.75 2.375,2.40625 5.75,2.40625 z" />
          <path
             id="TimesNewRomanPS-BoldMT-55"
             d="M 17.71875,-1.375 35.75,53.265625 H 22.015625 q -8.046875,0 -12.109375,-2.09375 -2.828125,-1.46875 -4.6875,-5.515625 H 3.375 l 4.78125,20.5625 H 47.609375 L 25.390625,-1.375 Z" />
          <path
             id="TimesNewRomanPS-BoldMT-53"
             d="m 15.234375,66.21875 h 31 L 41.3125,53.609375 H 15.234375 L 12.75,47.015625 q 16.84375,-0.625 25.921875,-8.390625 7.46875,-6.390625 7.46875,-15.921875 0,-6.09375 -3.46875,-11.9375 Q 39.203125,4.9375 32.90625,1.78125 26.609375,-1.375 19.09375,-1.375 q -8.109375,0 -12.453125,3.03125 -3.03125,2.15625 -3.03125,4.890625 0,2.09375 1.578125,3.703125 1.59375,1.609375 3.703125,1.609375 1.90625,0 3.859375,-0.78125 1.953125,-0.78125 6.6875,-4.09375 2.96875,-2.046875 5.125,-2.828125 1.515625,-0.59375 3.421875,-0.59375 4,0 6.796875,2.921875 2.8125,2.9375 2.8125,7.046875 0,8.59375 -8.59375,13.953125 -8.59375,5.375 -21.671875,5.375 Q 6,32.859375 3.375,32.8125 Z" />
        </defs>
        <g
           id="g152"
           transform="matrix(0.08,0,0,-0.08,10.5,110.09268)">
          <use
             height="100%"
             width="100%"
             y="0"
             x="0"
             id="use144"
             xlink:href="#TimesNewRomanPS-BoldMT-48" />
          <use
             height="100%"
             width="100%"
             y="0"
             id="use146"
             xlink:href="#TimesNewRomanPS-BoldMT-46"
             x="50" />
          <use
             height="100%"
             width="100%"
             y="0"
             id="use148"
             xlink:href="#TimesNewRomanPS-BoldMT-55"
             x="75" />
          <use
             height="100%"
             width="100%"
             y="0"
             id="use150"
             xlink:href="#TimesNewRomanPS-BoldMT-53"
             x="125" />
        </g>
      </g>
    </g>
    <g
       id="ytick_2">
      <g
         id="line2d_15">
        <path
           id="path156"
           style="fill:none;stroke:#b0b0b0;stroke-width:0.8;stroke-dasharray:2.96, 1.28;stroke-dashoffset:0"
           d="M 31.5,82.360134 H 226.8"
           clip-path="url(#p8612c0f1ef)" />
      </g>
      <g
         id="line2d_16">
        <g
           id="g161">
          <use
             height="100%"
             width="100%"
             id="use159"
             y="82.36013"
             xlink:href="#m4801157cdc"
             x="31.5"
             style="stroke:#000000;stroke-width:0.8" />
        </g>
      </g>
      <g
         id="text_9">
        <!-- 0.80 -->
        <g
           id="g172"
           transform="matrix(0.08,0,0,-0.08,10.5,85.008884)">
          <use
             height="100%"
             width="100%"
             y="0"
             x="0"
             id="use164"
             xlink:href="#TimesNewRomanPS-BoldMT-48" />
          <use
             height="100%"
             width="100%"
             y="0"
             id="use166"
             xlink:href="#TimesNewRomanPS-BoldMT-46"
             x="50" />
          <use
             height="100%"
             width="100%"
             y="0"
             id="use168"
             xlink:href="#TimesNewRomanPS-BoldMT-56"
             x="75" />
          <use
             height="100%"
             width="100%"
             y="0"
             id="use170"
             xlink:href="#TimesNewRomanPS-BoldMT-48"
             x="125" />
        </g>
      </g>
    </g>
    <g
       id="ytick_3">
      <g
         id="line2d_17">
        <path
           id="path176"
           style="fill:none;stroke:#b0b0b0;stroke-width:0.8;stroke-dasharray:2.96, 1.28;stroke-dashoffset:0"
           d="M 31.5,57.27634 H 226.8"
           clip-path="url(#p8612c0f1ef)" />
      </g>
      <g
         id="line2d_18">
        <g
           id="g181">
          <use
             height="100%"
             width="100%"
             id="use179"
             y="57.27634"
             xlink:href="#m4801157cdc"
             x="31.5"
             style="stroke:#000000;stroke-width:0.8" />
        </g>
      </g>
      <g
         id="text_10">
        <!-- 0.85 -->
        <g
           id="g192"
           transform="matrix(0.08,0,0,-0.08,10.5,59.92509)">
          <use
             height="100%"
             width="100%"
             y="0"
             x="0"
             id="use184"
             xlink:href="#TimesNewRomanPS-BoldMT-48" />
          <use
             height="100%"
             width="100%"
             y="0"
             id="use186"
             xlink:href="#TimesNewRomanPS-BoldMT-46"
             x="50" />
          <use
             height="100%"
             width="100%"
             y="0"
             id="use188"
             xlink:href="#TimesNewRomanPS-BoldMT-56"
             x="75" />
          <use
             height="100%"
             width="100%"
             y="0"
             id="use190"
             xlink:href="#TimesNewRomanPS-BoldMT-53"
             x="125" />
        </g>
      </g>
    </g>
    <g
       id="ytick_4">
      <g
         id="line2d_19">
        <path
           id="path196"
           style="fill:none;stroke:#b0b0b0;stroke-width:0.8;stroke-dasharray:2.96, 1.28;stroke-dashoffset:0"
           d="M 31.5,32.192546 H 226.8"
           clip-path="url(#p8612c0f1ef)" />
      </g>
      <g
         id="line2d_20">
        <g
           id="g201">
          <use
             height="100%"
             width="100%"
             id="use199"
             y="32.192547"
             xlink:href="#m4801157cdc"
             x="31.5"
             style="stroke:#000000;stroke-width:0.8" />
        </g>
      </g>
      <g
         id="text_11">
        <!-- 0.90 -->
        <defs
           id="defs205">
          <path
             id="TimesNewRomanPS-BoldMT-57"
             d="M 3.078125,-1.375 V 0 q 8.109375,1.859375 13.75,5.46875 5.640625,3.609375 8.921875,8.9375 3.296875,5.328125 4.625,12.25 -3.03125,-1.5625 -5.15625,-2.171875 Q 23.09375,23.875 20.75,23.875 q -7.515625,0 -12.53125,5.421875 -5,5.421875 -5,14.84375 0,6.546875 2.703125,11.984375 2.71875,5.453125 7.75,8.453125 5.03125,3 10.453125,3 5.8125,0 10.984375,-3.328125 5.171875,-3.3125 8.25,-9.609375 Q 46.4375,48.34375 46.4375,40.28125 q 0,-10.453125 -5.015625,-20.03125 -5,-9.5625 -14.90625,-15.34375 Q 16.609375,-0.875 3.078125,-1.375 Z m 28.03125,32.140625 q 0.484375,5.46875 0.484375,9.609375 0,8.890625 -2.046875,16.5625 -1.171875,4.25 -3.46875,6.25 -1.21875,1.078125 -3.171875,1.078125 -2.453125,0 -3.8125,-2.109375 -1.90625,-2.875 -1.90625,-10.984375 0,-13.53125 3.21875,-18.65625 2.109375,-3.3125 5.671875,-3.3125 1.90625,0 5.03125,1.5625 z" />
        </defs>
        <g
           id="g215"
           transform="matrix(0.08,0,0,-0.08,10.5,34.841296)">
          <use
             height="100%"
             width="100%"
             y="0"
             x="0"
             id="use207"
             xlink:href="#TimesNewRomanPS-BoldMT-48" />
          <use
             height="100%"
             width="100%"
             y="0"
             id="use209"
             xlink:href="#TimesNewRomanPS-BoldMT-46"
             x="50" />
          <use
             height="100%"
             width="100%"
             y="0"
             id="use211"
             xlink:href="#TimesNewRomanPS-BoldMT-57"
             x="75" />
          <use
             height="100%"
             width="100%"
             y="0"
             id="use213"
             xlink:href="#TimesNewRomanPS-BoldMT-48"
             x="125" />
        </g>
      </g>
    </g>
    <g
       id="text_12">
      <!-- Score -->
      <defs
         id="defs224">
        <path
           id="TimesNewRomanPS-BoldMT-83"
           d="m 46.96875,67.71875 0.546875,-22.0625 h -2 Q 44.09375,53.953125 38.546875,59 q -5.53125,5.0625 -11.984375,5.0625 -4.984375,0 -7.890625,-2.671875 -2.90625,-2.65625 -2.90625,-6.109375 0,-2.203125 1.03125,-3.90625 1.421875,-2.296875 4.546875,-4.546875 2.296875,-1.609375 10.59375,-5.71875 11.625,-5.703125 15.671875,-10.78125 4,-5.078125 4,-11.625 0,-8.296875 -6.46875,-14.28125 Q 38.671875,-1.5625 28.71875,-1.5625 q -3.125,0 -5.921875,0.640625 -2.78125,0.625 -6.96875,2.390625 -2.34375,0.96875 -3.859375,0.96875 -1.28125,0 -2.703125,-0.984375 -1.40625,-0.96875 -2.28125,-2.96875 h -1.8125 v 25 h 1.8125 Q 9.125,12.9375 15.25,7.390625 q 6.140625,-5.53125 13.21875,-5.53125 5.46875,0 8.71875,2.96875 3.25,2.984375 3.25,6.9375 0,2.34375 -1.25,4.53125 -1.25,2.203125 -3.796875,4.1875 -2.53125,1.984375 -8.96875,5.15625 -9.03125,4.4375 -13,7.5625 -3.953125,3.125 -6.078125,6.984375 -2.125,3.859375 -2.125,8.5 0,7.90625 5.8125,13.46875 5.8125,5.5625 14.65625,5.5625 3.21875,0 6.25,-0.78125 2.296875,-0.578125 5.59375,-2.171875 3.296875,-1.578125 4.609375,-1.578125 1.265625,0 2,0.78125 0.734375,0.78125 1.375,3.75 z" />
        <path
           id="TimesNewRomanPS-BoldMT-99"
           d="M 40.625,11.765625 42.140625,10.59375 Q 38.921875,4.546875 34.109375,1.578125 29.296875,-1.375 23.875,-1.375 q -9.125,0 -14.59375,6.890625 -5.46875,6.890625 -5.46875,16.5625 0,9.3125 4.984375,16.40625 6,8.53125 16.546875,8.53125 7.078125,0 11.25,-3.5625 4.171875,-3.5625 4.171875,-7.953125 0,-2.78125 -1.6875,-4.453125 -1.671875,-1.65625 -4.40625,-1.65625 -2.890625,0 -4.765625,1.90625 -1.875,1.90625 -2.3125,6.796875 -0.296875,3.0625 -1.421875,4.296875 -1.125,1.21875 -2.640625,1.21875 -2.34375,0 -4,-2.5 Q 17,37.359375 17,29.59375 17,23.140625 19.046875,17.25 21.09375,11.375 24.65625,8.5 27.34375,6.390625 31,6.390625 q 2.40625,0 4.546875,1.125 2.15625,1.125 5.078125,4.25 z" />
        <path
           id="TimesNewRomanPS-BoldMT-111"
           d="m 24.90625,47.015625 q 5.953125,0 11.078125,-3.078125 5.125,-3.0625 7.78125,-8.734375 2.671875,-5.65625 2.671875,-12.40625 0,-9.703125 -4.9375,-16.25 Q 35.546875,-1.375 25.046875,-1.375 q -10.296875,0 -15.875,7.234375 -5.5625,7.234375 -5.5625,16.75 0,9.8125 5.6875,17.109375 5.6875,7.296875 15.609375,7.296875 z m 0.1875,-3.453125 q -2.484375,0 -4.265625,-1.890625 -1.78125,-1.875 -2.34375,-7.421875 -0.5625,-5.53125 -0.5625,-15.40625 0,-5.21875 0.6875,-9.765625 0.53125,-3.46875 2.28125,-5.28125 Q 22.65625,2 24.90625,2 q 2.1875,0 3.65625,1.21875 1.90625,1.671875 2.546875,4.640625 0.96875,4.640625 0.96875,18.75 0,8.296875 -0.9375,11.390625 -0.921875,3.109375 -2.71875,4.53125 -1.265625,1.03125 -3.328125,1.03125 z" />
        <path
           id="TimesNewRomanPS-BoldMT-114"
           d="M 22.3125,45.65625 V 35.296875 q 4.546875,7.09375 7.953125,9.40625 3.421875,2.3125 6.59375,2.3125 2.734375,0 4.375,-1.6875 1.640625,-1.671875 1.640625,-4.75 0,-3.265625 -1.59375,-5.078125 -1.578125,-1.8125 -3.828125,-1.8125 -2.59375,0 -4.5,1.65625 -1.890625,1.671875 -2.234375,1.859375 -0.5,0.296875 -1.125,0.296875 -1.421875,0 -2.6875,-1.078125 -2,-1.65625 -3.03125,-4.734375 -1.5625,-4.734375 -1.5625,-10.453125 V 10.75 l 0.04687,-2.734375 q 0,-2.796875 0.34375,-3.578125 0.59375,-1.3125 1.734375,-1.921875 1.15625,-0.609375 3.890625,-0.75 V 0 H 3.65625 V 1.765625 Q 6.640625,2 7.6875,3.390625 8.734375,4.78125 8.734375,10.75 v 25.234375 q 0,3.90625 -0.390625,4.984375 -0.484375,1.359375 -1.421875,2 Q 6,43.609375 3.65625,43.84375 v 1.8125 z" />
        <path
           id="TimesNewRomanPS-BoldMT-101"
           d="M 42.046875,24.46875 H 17 Q 17.4375,15.375 21.828125,10.109375 25.203125,6.0625 29.9375,6.0625 q 2.921875,0 5.3125,1.625 2.390625,1.640625 5.125,5.890625 L 42.046875,12.5 Q 38.328125,4.9375 33.828125,1.78125 29.34375,-1.375 23.4375,-1.375 13.28125,-1.375 8.0625,6.453125 3.859375,12.75 3.859375,22.078125 3.859375,33.5 10.03125,40.25 q 6.1875,6.765625 14.484375,6.765625 6.9375,0 12.03125,-5.6875 5.109375,-5.6875 5.5,-16.859375 z M 30.03125,27.734375 q 0,7.859375 -0.859375,10.78125 -0.84375,2.9375 -2.65625,4.453125 -1.03125,0.875 -2.734375,0.875 -2.546875,0 -4.15625,-2.484375 Q 16.75,37.015625 16.75,29.4375 v -1.703125 z" />
      </defs>
      <g
         id="g236"
         transform="matrix(0,-0.08,-0.08,0,4.78875,82.270625)">
        <use
           height="100%"
           width="100%"
           y="0"
           x="0"
           id="use226"
           xlink:href="#TimesNewRomanPS-BoldMT-83" />
        <use
           height="100%"
           width="100%"
           y="0"
           id="use228"
           xlink:href="#TimesNewRomanPS-BoldMT-99"
           x="55.615234" />
        <use
           height="100%"
           width="100%"
           y="0"
           id="use230"
           xlink:href="#TimesNewRomanPS-BoldMT-111"
           x="100" />
        <use
           height="100%"
           width="100%"
           y="0"
           id="use232"
           xlink:href="#TimesNewRomanPS-BoldMT-114"
           x="150" />
        <use
           height="100%"
           width="100%"
           y="0"
           id="use234"
           xlink:href="#TimesNewRomanPS-BoldMT-101"
           x="194.36914" />
      </g>
    </g>
  </g>
  <g
     transform="translate(0.62875,-5.2)"
     id="line2d_21">
    <path
       id="path240"
       style="fill:none;stroke:#ff0000;stroke-width:0.5;stroke-linecap:square"
       d="m 31.5,97.681953 19.53,-1.207984 19.53,-3.15043 h 19.53 l 19.53,-6.467707 19.53,-5.79446 19.53,1.377138 h 19.53 19.53 19.53 l 19.53,-2.932066"
       clip-path="url(#p8612c0f1ef)" />
    <defs
       id="defs243">
      <path
         style="stroke:#ff0000"
         id="mfc2d489209"
         d="M 0,1 C 0.265203,1 0.51958,0.894634 0.707107,0.707107 0.894634,0.51958 1,0.265203 1,0 1,-0.265203 0.894634,-0.51958 0.707107,-0.707107 0.51958,-0.894634 0.265203,-1 0,-1 -0.265203,-1 -0.51958,-0.894634 -0.707107,-0.707107 -0.894634,-0.51958 -1,-0.265203 -1,0 -1,0.265203 -0.894634,0.51958 -0.707107,0.707107 -0.51958,0.894634 -0.265203,1 0,1 Z" />
    </defs>
    <g
       id="g267"
       clip-path="url(#p8612c0f1ef)">
      <use
         height="100%"
         width="100%"
         id="use245"
         y="97.681953"
         xlink:href="#mfc2d489209"
         x="31.5"
         style="fill:#ff0000;stroke:#ff0000" />
      <use
         height="100%"
         width="100%"
         id="use247"
         y="96.473969"
         xlink:href="#mfc2d489209"
         x="51.029999"
         style="fill:#ff0000;stroke:#ff0000" />
      <use
         height="100%"
         width="100%"
         id="use249"
         y="93.32354"
         xlink:href="#mfc2d489209"
         x="70.559998"
         style="fill:#ff0000;stroke:#ff0000" />
      <use
         height="100%"
         width="100%"
         id="use251"
         y="93.32354"
         xlink:href="#mfc2d489209"
         x="90.089996"
         style="fill:#ff0000;stroke:#ff0000" />
      <use
         height="100%"
         width="100%"
         id="use253"
         y="86.855835"
         xlink:href="#mfc2d489209"
         x="109.62"
         style="fill:#ff0000;stroke:#ff0000" />
      <use
         height="100%"
         width="100%"
         id="use255"
         y="81.061371"
         xlink:href="#mfc2d489209"
         x="129.14999"
         style="fill:#ff0000;stroke:#ff0000" />
      <use
         height="100%"
         width="100%"
         id="use257"
         y="82.438507"
         xlink:href="#mfc2d489209"
         x="148.67999"
         style="fill:#ff0000;stroke:#ff0000" />
      <use
         height="100%"
         width="100%"
         id="use259"
         y="82.438507"
         xlink:href="#mfc2d489209"
         x="168.21001"
         style="fill:#ff0000;stroke:#ff0000" />
      <use
         height="100%"
         width="100%"
         id="use261"
         y="82.438507"
         xlink:href="#mfc2d489209"
         x="187.74001"
         style="fill:#ff0000;stroke:#ff0000" />
      <use
         height="100%"
         width="100%"
         id="use263"
         y="82.438507"
         xlink:href="#mfc2d489209"
         x="207.27"
         style="fill:#ff0000;stroke:#ff0000" />
      <use
         height="100%"
         width="100%"
         id="use265"
         y="79.506447"
         xlink:href="#mfc2d489209"
         x="226.8"
         style="fill:#ff0000;stroke:#ff0000" />
    </g>
  </g>
  <g
     transform="translate(0.62875,-5.2)"
     id="line2d_22">
    <path
       id="path270"
       style="fill:none;stroke:#008000;stroke-width:0.5;stroke-linecap:square"
       d="m 31.5,22.32 19.53,2.247324 19.53,5.61831 h 19.53 l 19.53,0.94074 19.53,0.522634 19.53,-2.822221 h 19.53 19.53 19.53 l 19.53,5.539915"
       clip-path="url(#p8612c0f1ef)" />
    <defs
       id="defs273">
      <path
         style="stroke:#008000;stroke-linejoin:miter"
         id="mffa482e93e"
         d="M 0,-2 -2,2 H 2 Z" />
    </defs>
    <g
       id="g297"
       clip-path="url(#p8612c0f1ef)">
      <use
         height="100%"
         width="100%"
         id="use275"
         y="22.32"
         xlink:href="#mffa482e93e"
         x="31.5"
         style="fill:#008000;stroke:#008000;stroke-linejoin:miter" />
      <use
         height="100%"
         width="100%"
         id="use277"
         y="24.567324"
         xlink:href="#mffa482e93e"
         x="51.029999"
         style="fill:#008000;stroke:#008000;stroke-linejoin:miter" />
      <use
         height="100%"
         width="100%"
         id="use279"
         y="30.185635"
         xlink:href="#mffa482e93e"
         x="70.559998"
         style="fill:#008000;stroke:#008000;stroke-linejoin:miter" />
      <use
         height="100%"
         width="100%"
         id="use281"
         y="30.185635"
         xlink:href="#mffa482e93e"
         x="90.089996"
         style="fill:#008000;stroke:#008000;stroke-linejoin:miter" />
      <use
         height="100%"
         width="100%"
         id="use283"
         y="31.126373"
         xlink:href="#mffa482e93e"
         x="109.62"
         style="fill:#008000;stroke:#008000;stroke-linejoin:miter" />
      <use
         height="100%"
         width="100%"
         id="use285"
         y="31.649008"
         xlink:href="#mffa482e93e"
         x="129.14999"
         style="fill:#008000;stroke:#008000;stroke-linejoin:miter" />
      <use
         height="100%"
         width="100%"
         id="use287"
         y="28.826788"
         xlink:href="#mffa482e93e"
         x="148.67999"
         style="fill:#008000;stroke:#008000;stroke-linejoin:miter" />
      <use
         height="100%"
         width="100%"
         id="use289"
         y="28.826788"
         xlink:href="#mffa482e93e"
         x="168.21001"
         style="fill:#008000;stroke:#008000;stroke-linejoin:miter" />
      <use
         height="100%"
         width="100%"
         id="use291"
         y="28.826788"
         xlink:href="#mffa482e93e"
         x="187.74001"
         style="fill:#008000;stroke:#008000;stroke-linejoin:miter" />
      <use
         height="100%"
         width="100%"
         id="use293"
         y="28.826788"
         xlink:href="#mffa482e93e"
         x="207.27"
         style="fill:#008000;stroke:#008000;stroke-linejoin:miter" />
      <use
         height="100%"
         width="100%"
         id="use295"
         y="34.366703"
         xlink:href="#mffa482e93e"
         x="226.8"
         style="fill:#008000;stroke:#008000;stroke-linejoin:miter" />
    </g>
  </g>
  <g
     transform="translate(0.62875,-5.2)"
     id="line2d_23">
    <path
       id="path300"
       style="fill:none;stroke:#0000ff;stroke-width:0.5;stroke-linecap:square"
       d="m 31.5,63.352065 19.53,0.22317 19.53,0.541261 h 19.53 l 19.53,-3.29722 19.53,-3.035745 19.53,-0.472285 h 19.53 19.53 19.53 l 19.53,0.818958"
       clip-path="url(#p8612c0f1ef)" />
    <defs
       id="defs303">
      <path
         style="stroke:#0000ff"
         id="m1a4df702e8"
         d="M 0,0 H -2 M 0,0 1,1.6 M 0,0 1,-1.6" />
    </defs>
    <g
       id="g327"
       clip-path="url(#p8612c0f1ef)">
      <use
         height="100%"
         width="100%"
         id="use305"
         y="63.352066"
         xlink:href="#m1a4df702e8"
         x="31.5"
         style="fill:#0000ff;stroke:#0000ff" />
      <use
         height="100%"
         width="100%"
         id="use307"
         y="63.575233"
         xlink:href="#m1a4df702e8"
         x="51.029999"
         style="fill:#0000ff;stroke:#0000ff" />
      <use
         height="100%"
         width="100%"
         id="use309"
         y="64.116493"
         xlink:href="#m1a4df702e8"
         x="70.559998"
         style="fill:#0000ff;stroke:#0000ff" />
      <use
         height="100%"
         width="100%"
         id="use311"
         y="64.116493"
         xlink:href="#m1a4df702e8"
         x="90.089996"
         style="fill:#0000ff;stroke:#0000ff" />
      <use
         height="100%"
         width="100%"
         id="use313"
         y="60.819275"
         xlink:href="#m1a4df702e8"
         x="109.62"
         style="fill:#0000ff;stroke:#0000ff" />
      <use
         height="100%"
         width="100%"
         id="use315"
         y="57.783531"
         xlink:href="#m1a4df702e8"
         x="129.14999"
         style="fill:#0000ff;stroke:#0000ff" />
      <use
         height="100%"
         width="100%"
         id="use317"
         y="57.311245"
         xlink:href="#m1a4df702e8"
         x="148.67999"
         style="fill:#0000ff;stroke:#0000ff" />
      <use
         height="100%"
         width="100%"
         id="use319"
         y="57.311245"
         xlink:href="#m1a4df702e8"
         x="168.21001"
         style="fill:#0000ff;stroke:#0000ff" />
      <use
         height="100%"
         width="100%"
         id="use321"
         y="57.311245"
         xlink:href="#m1a4df702e8"
         x="187.74001"
         style="fill:#0000ff;stroke:#0000ff" />
      <use
         height="100%"
         width="100%"
         id="use323"
         y="57.311245"
         xlink:href="#m1a4df702e8"
         x="207.27"
         style="fill:#0000ff;stroke:#0000ff" />
      <use
         height="100%"
         width="100%"
         id="use325"
         y="58.130203"
         xlink:href="#m1a4df702e8"
         x="226.8"
         style="fill:#0000ff;stroke:#0000ff" />
    </g>
  </g>
  <g
     transform="translate(0.62875,-5.2)"
     id="line2d_24">
    <path
       id="path330"
       style="fill:none;stroke:#a52a2a;stroke-width:0.5;stroke-linecap:square"
       d="m 31.5,121.98941 19.53,0.33038 19.53,0.80021 h 19.53 l 19.53,-4.89784 19.53,-4.55889 19.53,-0.71356 h 19.53 19.53 19.53 l 19.53,1.2366"
       clip-path="url(#p8612c0f1ef)" />
    <defs
       id="defs333">
      <path
         style="stroke:#a52a2a;stroke-linejoin:bevel"
         id="m3251ee08ef"
         d="m 0,-2 -0.449028,1.381966 H -1.902113 L -0.726543,0.236068 -1.175571,1.618034 0,0.763932 1.175571,1.618034 0.726543,0.236068 1.902113,-0.618034 H 0.449028 Z" />
    </defs>
    <g
       id="g357"
       clip-path="url(#p8612c0f1ef)">
      <use
         height="100%"
         width="100%"
         id="use335"
         y="121.98941"
         xlink:href="#m3251ee08ef"
         x="31.5"
         style="fill:#a52a2a;stroke:#a52a2a;stroke-linejoin:bevel" />
      <use
         height="100%"
         width="100%"
         id="use337"
         y="122.31979"
         xlink:href="#m3251ee08ef"
         x="51.029999"
         style="fill:#a52a2a;stroke:#a52a2a;stroke-linejoin:bevel" />
      <use
         height="100%"
         width="100%"
         id="use339"
         y="123.12"
         xlink:href="#m3251ee08ef"
         x="70.559998"
         style="fill:#a52a2a;stroke:#a52a2a;stroke-linejoin:bevel" />
      <use
         height="100%"
         width="100%"
         id="use341"
         y="123.12"
         xlink:href="#m3251ee08ef"
         x="90.089996"
         style="fill:#a52a2a;stroke:#a52a2a;stroke-linejoin:bevel" />
      <use
         height="100%"
         width="100%"
         id="use343"
         y="118.22216"
         xlink:href="#m3251ee08ef"
         x="109.62"
         style="fill:#a52a2a;stroke:#a52a2a;stroke-linejoin:bevel" />
      <use
         height="100%"
         width="100%"
         id="use345"
         y="113.66327"
         xlink:href="#m3251ee08ef"
         x="129.14999"
         style="fill:#a52a2a;stroke:#a52a2a;stroke-linejoin:bevel" />
      <use
         height="100%"
         width="100%"
         id="use347"
         y="112.94971"
         xlink:href="#m3251ee08ef"
         x="148.67999"
         style="fill:#a52a2a;stroke:#a52a2a;stroke-linejoin:bevel" />
      <use
         height="100%"
         width="100%"
         id="use349"
         y="112.94971"
         xlink:href="#m3251ee08ef"
         x="168.21001"
         style="fill:#a52a2a;stroke:#a52a2a;stroke-linejoin:bevel" />
      <use
         height="100%"
         width="100%"
         id="use351"
         y="112.94971"
         xlink:href="#m3251ee08ef"
         x="187.74001"
         style="fill:#a52a2a;stroke:#a52a2a;stroke-linejoin:bevel" />
      <use
         height="100%"
         width="100%"
         id="use353"
         y="112.94971"
         xlink:href="#m3251ee08ef"
         x="207.27"
         style="fill:#a52a2a;stroke:#a52a2a;stroke-linejoin:bevel" />
      <use
         height="100%"
         width="100%"
         id="use355"
         y="114.1863"
         xlink:href="#m3251ee08ef"
         x="226.8"
         style="fill:#a52a2a;stroke:#a52a2a;stroke-linejoin:bevel" />
    </g>
  </g>
  <g
     transform="translate(0.62875,-5.2)"
     id="patch_3">
    <path
       id="path360"
       style="fill:none;stroke:#000000;stroke-width:0.8;stroke-linecap:square;stroke-linejoin:miter"
       d="M 31.5,128.16 V 17.28" />
  </g>
  <g
     transform="translate(0.62875,-5.2)"
     id="patch_4">
    <path
       id="path363"
       style="fill:none;stroke:#000000;stroke-width:0.8;stroke-linecap:square;stroke-linejoin:miter"
       d="M 31.5,128.16 H 226.8" />
  </g>
  <g
     transform="translate(0.62875,-5.2)"
     id="text_13">
    <!-- values of metrics as the change of $\lambda$ -->
    <defs
       id="defs379">
      <path
         id="TimesNewRomanPS-BoldMT-118"
         d="M 23.96875,-1.375 8.59375,34.03125 Q 5.8125,40.4375 4.25,42.140625 3.125,43.40625 0.921875,43.84375 v 1.8125 h 24.28125 v -1.8125 q -2.296875,0 -3.125,-0.828125 -1.171875,-1.078125 -1.171875,-2.53125 0,-1.8125 2.140625,-6.796875 L 30.5625,16.546875 36.578125,31.34375 q 2.578125,6.359375 2.578125,8.984375 0,1.515625 -1.09375,2.46875 -1.09375,0.953125 -3.875,1.046875 v 1.8125 H 49.125 v -1.8125 Q 46.96875,43.5625 45.59375,42.234375 44.234375,40.921875 41.5,34.46875 L 26.265625,-1.375 Z" />
      <path
         id="TimesNewRomanPS-BoldMT-97"
         d="m 28.5625,6.734375 q -8.34375,-7.375 -14.984375,-7.375 -3.90625,0 -6.5,2.5625 Q 4.5,4.5 4.5,8.34375 q 0,5.234375 4.484375,9.40625 4.5,4.171875 19.578125,11.109375 v 4.59375 q 0,5.171875 -0.5625,6.515625 -0.5625,1.34375 -2.125,2.34375 -1.5625,1 -3.515625,1 -3.171875,0 -5.21875,-1.421875 -1.265625,-0.875 -1.265625,-2.046875 0,-1.03125 1.359375,-2.53125 1.859375,-2.109375 1.859375,-4.0625 0,-2.390625 -1.78125,-4.078125 -1.78125,-1.6875 -4.671875,-1.6875 -3.0625,0 -5.140625,1.859375 -2.078125,1.859375 -2.078125,4.34375 0,3.515625 2.78125,6.71875 2.78125,3.203125 7.765625,4.90625 4.984375,1.703125 10.34375,1.703125 6.5,0 10.28125,-2.765625 Q 40.375,41.5 41.5,38.28125 q 0.6875,-2.046875 0.6875,-9.421875 v -17.71875 q 0,-3.125 0.234375,-3.9375 0.25,-0.8125 0.734375,-1.203125 0.5,-0.390625 1.125,-0.390625 1.28125,0 2.59375,1.8125 L 48.34375,6.25 Q 45.90625,2.640625 43.28125,1 q -2.609375,-1.640625 -5.921875,-1.640625 -3.90625,0 -6.109375,1.828125 -2.203125,1.84375 -2.6875,5.546875 z m 0,3.5625 V 25.59375 Q 22.65625,22.125 19.78125,18.171875 17.875,15.53125 17.875,12.84375 q 0,-2.25 1.609375,-3.953125 1.21875,-1.328125 3.421875,-1.328125 2.4375,0 5.65625,2.734375 z" />
      <path
         id="TimesNewRomanPS-BoldMT-108"
         d="m 21.234375,66.21875 v -56.75 q 0,-4.828125 1.125,-6.171875 1.125,-1.34375 4.40625,-1.53125 V 0 H 2.09375 v 1.765625 q 3.03125,0.09375 4.5,1.75 0.96875,1.125 0.96875,5.953125 v 47.265625 q 0,4.796875 -1.125,6.125 -1.109375,1.34375 -4.34375,1.546875 v 1.8125 z" />
      <path
         id="TimesNewRomanPS-BoldMT-117"
         d="m 47.46875,45.65625 v -35.75 q 0,-5.21875 0.96875,-6.515625 0.984375,-1.296875 3.953125,-1.625 V 0 H 33.796875 V 6.109375 Q 30.515625,2.203125 27.234375,0.40625 23.96875,-1.375 19.921875,-1.375 16.0625,-1.375 13.0625,1 10.0625,3.375 9.03125,6.546875 8.015625,9.71875 8.015625,17.625 V 35.75 q 0,5.171875 -0.953125,6.4375 -0.953125,1.265625 -3.984375,1.65625 v 1.8125 H 21.6875 V 14.453125 q 0,-4.875 0.453125,-6.296875 0.46875,-1.421875 1.46875,-2.15625 1,-0.71875 2.3125,-0.71875 1.765625,0 3.1875,0.921875 1.953125,1.265625 4.6875,5.125 V 35.75 q 0,5.171875 -0.953125,6.4375 -0.953125,1.265625 -3.984375,1.65625 v 1.8125 z" />
      <path
         id="TimesNewRomanPS-BoldMT-115"
         d="m 32.234375,46.921875 0.71875,-15.578125 h -1.65625 q -2.96875,6.9375 -6.171875,9.46875 -3.203125,2.546875 -6.375,2.546875 -2,0 -3.421875,-1.34375 -1.40625,-1.34375 -1.40625,-3.09375 0,-1.328125 0.96875,-2.546875 1.5625,-2 8.734375,-6.859375 7.1875,-4.859375 9.453125,-8.25 2.28125,-3.390625 2.28125,-7.59375 0,-3.8125 -1.90625,-7.46875 -1.90625,-3.65625 -5.375,-5.625 Q 24.609375,-1.375 20.40625,-1.375 q -3.265625,0 -8.734375,2.0625 -1.46875,0.53125 -2,0.53125 -1.609375,0 -2.6875,-2.4375 H 5.375 L 4.59375,15.1875 H 6.25 q 2.203125,-6.453125 6.03125,-9.671875 3.828125,-3.21875 7.25,-3.21875 2.34375,0 3.828125,1.4375 1.5,1.4375 1.5,3.5 0,2.34375 -1.46875,4.046875 -1.46875,1.703125 -6.546875,5.171875 -7.46875,5.171875 -9.671875,7.90625 -3.21875,4.015625 -3.21875,8.84375 0,5.28125 3.640625,9.546875 3.640625,4.265625 10.515625,4.265625 3.71875,0 7.1875,-1.796875 1.3125,-0.734375 2.140625,-0.734375 0.890625,0 1.421875,0.359375 0.53125,0.375 1.703125,2.078125 z" />
      <path
         d=""
         id="TimesNewRomanPS-BoldMT-32" />
      <path
         id="TimesNewRomanPS-BoldMT-102"
         d="M 23.390625,40.875 V 9.1875 q 0,-4.59375 0.96875,-5.765625 1.5625,-1.8125 5.765625,-1.65625 V 0 H 3.21875 V 1.765625 Q 6.296875,1.8125 7.59375,2.46875 8.890625,3.125 9.375,4.296875 9.859375,5.46875 9.859375,9.1875 V 40.875 H 3.21875 v 4.78125 h 6.640625 v 3.375 L 9.8125,51.3125 q 0,7.03125 5.15625,11.71875 5.15625,4.6875 13.9375,4.6875 6,0 8.90625,-2.25 2.90625,-2.234375 2.90625,-4.96875 0,-2.203125 -1.8125,-3.8125 -1.796875,-1.609375 -4.78125,-1.609375 -2.53125,0 -4.03125,1.3125 -1.484375,1.328125 -1.484375,2.9375 0,0.4375 0.296875,1.8125 0.203125,0.828125 0.203125,1.5625 0,1.015625 -0.59375,1.5 -0.78125,0.734375 -1.90625,0.734375 -1.40625,0 -2.359375,-1.171875 -0.953125,-1.171875 -0.953125,-3.75 l 0.09375,-8.546875 v -5.8125 H 30.125 V 40.875 Z" />
      <path
         id="TimesNewRomanPS-BoldMT-109"
         d="m 22.3125,45.65625 v -6 q 3.765625,4.09375 6.953125,5.71875 3.203125,1.640625 7.015625,1.640625 4.390625,0 7.359375,-2.046875 2.984375,-2.046875 4.609375,-6.25 3.90625,4.390625 7.484375,6.34375 3.59375,1.953125 7.5,1.953125 4.734375,0 7.53125,-2.171875 2.8125,-2.171875 3.90625,-5.515625 1.109375,-3.34375 1.109375,-10.671875 V 9.96875 q 0,-5.28125 0.953125,-6.546875 Q 77.6875,2.15625 80.71875,1.765625 V 0 H 57.125 V 1.765625 Q 59.90625,2 61.234375,3.90625 q 0.875,1.3125 0.875,6.0625 v 19.625 q 0,6.09375 -0.484375,7.75 -0.484375,1.671875 -1.546875,2.46875 -1.046875,0.8125 -2.453125,0.8125 -2.109375,0 -4.265625,-1.546875 -2.140625,-1.53125 -4.328125,-4.609375 v -24.5 q 0,-4.9375 0.828125,-6.203125 1.125,-1.8125 4.296875,-2 V 0 H 30.515625 v 1.765625 q 1.90625,0.09375 3,0.9375 Q 34.625,3.5625 34.984375,4.75 q 0.375,1.203125 0.375,5.21875 v 19.625 q 0,6.203125 -0.5,7.765625 -0.484375,1.5625 -1.640625,2.4375 -1.140625,0.875 -2.453125,0.875 -1.953125,0 -3.5625,-1.015625 -2.296875,-1.515625 -4.890625,-5.1875 v -24.5 q 0,-4.84375 0.953125,-6.390625 Q 24.21875,2.046875 27.25,1.765625 V 0 H 3.71875 v 1.765625 q 2.875,0.28125 4.09375,1.84375 Q 8.640625,4.6875 8.640625,9.96875 V 35.75 q 0,5.171875 -0.953125,6.4375 -0.953125,1.265625 -3.96875,1.65625 v 1.8125 z" />
      <path
         id="TimesNewRomanPS-BoldMT-116"
         d="M 21.484375,62.359375 V 45.65625 h 10.84375 v -4.828125 h -10.84375 v -28.1875 q 0,-3.953125 0.359375,-5.109375 0.375,-1.140625 1.296875,-1.84375 0.9375,-0.703125 1.71875,-0.703125 3.171875,0 6,4.828125 l 1.46875,-1.078125 q -3.953125,-9.375 -12.84375,-9.375 -4.34375,0 -7.359375,2.421875 -3,2.421875 -3.828125,5.390625 Q 7.8125,8.84375 7.8125,16.15625 V 40.828125 H 1.859375 v 1.703125 q 6.15625,4.34375 10.46875,9.125 4.328125,4.796875 7.546875,10.703125 z" />
      <path
         id="TimesNewRomanPS-BoldMT-105"
         d="m 14.359375,67.78125 q 3.171875,0 5.359375,-2.234375 2.203125,-2.21875 2.203125,-5.34375 0,-3.125 -2.21875,-5.328125 -2.21875,-2.1875 -5.34375,-2.1875 -3.125,0 -5.328125,2.1875 -2.1875,2.203125 -2.1875,5.328125 0,3.125 2.1875,5.34375 2.203125,2.234375 5.328125,2.234375 z M 21.1875,45.65625 V 9.46875 q 0,-4.828125 1.125,-6.171875 1.125,-1.34375 4.390625,-1.53125 V 0 H 2.046875 v 1.765625 q 3.03125,0.09375 4.5,1.75 0.96875,1.125 0.96875,5.953125 v 26.671875 q 0,4.828125 -1.125,6.171875 -1.109375,1.34375 -4.34375,1.53125 v 1.8125 z" />
      <path
         id="TimesNewRomanPS-BoldMT-104"
         d="M 22.015625,66.21875 V 39.796875 Q 25.78125,43.75 28.90625,45.375 q 3.125,1.640625 6.5,1.640625 4.296875,0 7.34375,-2.4375 3.046875,-2.4375 4.046875,-5.734375 1,-3.296875 1,-11.109375 V 9.90625 q 0,-5.21875 0.96875,-6.515625 0.984375,-1.296875 3.96875,-1.625 V 0 H 29.59375 v 1.765625 q 2.4375,0.328125 3.65625,1.953125 0.875,1.265625 0.875,6.1875 v 20.375 q 0,5.65625 -0.4375,7.09375 -0.4375,1.4375 -1.484375,2.25 -1.046875,0.8125 -2.375,0.8125 -1.953125,0 -3.8125,-1.34375 -1.84375,-1.34375 -4,-4.71875 V 9.90625 q 0,-4.875 0.734375,-6.09375 0.9375,-1.65625 3.8125,-2.046875 V 0 H 3.421875 v 1.765625 q 2.875,0.28125 4.09375,1.84375 Q 8.34375,4.6875 8.34375,9.90625 v 46.390625 q 0,5.171875 -0.953125,6.4375 -0.9375,1.28125 -3.96875,1.671875 v 1.8125 z" />
      <path
         id="TimesNewRomanPS-BoldMT-110"
         d="M 22.015625,45.65625 V 39.75 q 3.515625,3.8125 6.734375,5.53125 3.234375,1.734375 6.9375,1.734375 4.453125,0 7.375,-2.46875 Q 46,42.09375 46.96875,38.421875 47.75,35.640625 47.75,27.734375 V 9.96875 q 0,-5.28125 0.953125,-6.578125 0.953125,-1.296875 3.984375,-1.625 V 0 H 29.59375 v 1.765625 q 2.578125,0.328125 3.703125,2.140625 0.78125,1.21875 0.78125,6.0625 v 20.3125 q 0,5.609375 -0.4375,7.0625 -0.4375,1.46875 -1.484375,2.28125 -1.046875,0.8125 -2.328125,0.8125 -4.1875,0 -7.8125,-6.015625 V 9.96875 q 0,-5.140625 0.953125,-6.515625 0.953125,-1.359375 3.546875,-1.6875 V 0 H 3.421875 v 1.765625 q 2.875,0.28125 4.09375,1.84375 Q 8.34375,4.6875 8.34375,9.96875 V 35.75 q 0,5.171875 -0.953125,6.4375 -0.9375,1.265625 -3.96875,1.65625 v 1.8125 z" />
      <path
         id="TimesNewRomanPS-BoldMT-103"
         d="m 32.671875,45.125 h 15.375 V 39.75 H 39.3125 q 2.390625,-2.390625 3.3125,-4.34375 1.171875,-2.640625 1.171875,-5.515625 0,-4.890625 -2.71875,-8.484375 -2.703125,-3.578125 -7.375,-5.609375 -4.65625,-2.03125 -8.265625,-2.03125 -0.296875,0 -5.859375,0.25 -2.1875,0 -3.6875,-1.4375 -1.484375,-1.4375 -1.484375,-3.453125 0,-1.75 1.34375,-2.875 1.34375,-1.125 4.375,-1.125 l 8.4375,0.09375 q 10.25,0 14.109375,-2.234375 5.515625,-3.125 5.515625,-9.625 0,-4.15625 -2.546875,-7.546875 -2.53125,-3.390625 -6.671875,-5 -6.296875,-2.390625 -14.5,-2.390625 -6.15625,0 -11.234375,1.203125 -5.078125,1.1875 -7.28125,3.3125 -2.1875,2.125 -2.1875,4.46875 0,2.234375 1.671875,4.03125 1.6875,1.78125 6.28125,3 Q 5.375,-2.4375 5.375,3.125 q 0,3.375 2.578125,6.546875 2.59375,3.171875 8.203125,5.515625 -6.53125,2.390625 -9.46875,6.296875 -2.921875,3.90625 -2.921875,9.03125 0,6.6875 5.46875,11.59375 5.46875,4.90625 14.0625,4.90625 4.53125,0 9.375,-1.890625 z M 24.21875,44 q -2.828125,0 -4.78125,-2.859375 -1.953125,-2.859375 -1.953125,-11.84375 0,-7.28125 1.921875,-9.984375 1.9375,-2.703125 4.5625,-2.703125 2.9375,0 4.890625,2.671875 1.953125,2.6875 1.953125,10.453125 0,8.75 -2.203125,11.921875 Q 27.046875,44 24.21875,44 Z m -2.875,-50.734375 q -4.984375,0 -6.59375,-0.828125 -2.78125,-1.515625 -2.78125,-4.109375 0,-2.484375 2.875,-4.515625 2.875,-2.03125 10.84375,-2.03125 6.78125,0 10.65625,1.8125 3.890625,1.8125 3.890625,5.078125 0,1.21875 -0.734375,2.046875 -1.3125,1.46875 -3.984375,2.015625 -2.65625,0.53125 -14.171875,0.53125 z" />
    </defs>
    <g
       id="g453"
       transform="matrix(0.08,0,0,-0.08,68.87,11.28)">
      <use
         height="100%"
         width="100%"
         y="0"
         x="0"
         id="use381"
         xlink:href="#TimesNewRomanPS-BoldMT-118"
         transform="translate(0,0.015625)" />
      <use
         height="100%"
         width="100%"
         y="0"
         x="0"
         id="use383"
         xlink:href="#TimesNewRomanPS-BoldMT-97"
         transform="translate(50,0.015625)" />
      <use
         height="100%"
         width="100%"
         y="0"
         x="0"
         id="use385"
         xlink:href="#TimesNewRomanPS-BoldMT-108"
         transform="translate(100,0.015625)" />
      <use
         height="100%"
         width="100%"
         y="0"
         x="0"
         id="use387"
         xlink:href="#TimesNewRomanPS-BoldMT-117"
         transform="translate(127.7832,0.015625)" />
      <use
         height="100%"
         width="100%"
         y="0"
         x="0"
         id="use389"
         xlink:href="#TimesNewRomanPS-BoldMT-101"
         transform="translate(183.39844,0.015625)" />
      <use
         height="100%"
         width="100%"
         y="0"
         x="0"
         id="use391"
         xlink:href="#TimesNewRomanPS-BoldMT-115"
         transform="translate(227.7832,0.015625)" />
      <use
         height="100%"
         width="100%"
         y="0"
         x="0"
         id="use393"
         xlink:href="#TimesNewRomanPS-BoldMT-32"
         transform="translate(266.69922,0.015625)" />
      <use
         height="100%"
         width="100%"
         y="0"
         x="0"
         id="use395"
         xlink:href="#TimesNewRomanPS-BoldMT-111"
         transform="translate(291.69922,0.015625)" />
      <use
         height="100%"
         width="100%"
         y="0"
         x="0"
         id="use397"
         xlink:href="#TimesNewRomanPS-BoldMT-102"
         transform="translate(341.69922,0.015625)" />
      <use
         height="100%"
         width="100%"
         y="0"
         x="0"
         id="use399"
         xlink:href="#TimesNewRomanPS-BoldMT-32"
         transform="translate(375,0.015625)" />
      <use
         height="100%"
         width="100%"
         y="0"
         x="0"
         id="use401"
         xlink:href="#TimesNewRomanPS-BoldMT-109"
         transform="translate(400,0.015625)" />
      <use
         height="100%"
         width="100%"
         y="0"
         x="0"
         id="use403"
         xlink:href="#TimesNewRomanPS-BoldMT-101"
         transform="translate(483.30078,0.015625)" />
      <use
         height="100%"
         width="100%"
         y="0"
         x="0"
         id="use405"
         xlink:href="#TimesNewRomanPS-BoldMT-116"
         transform="translate(527.68555,0.015625)" />
      <use
         height="100%"
         width="100%"
         y="0"
         x="0"
         id="use407"
         xlink:href="#TimesNewRomanPS-BoldMT-114"
         transform="translate(560.98633,0.015625)" />
      <use
         height="100%"
         width="100%"
         y="0"
         x="0"
         id="use409"
         xlink:href="#TimesNewRomanPS-BoldMT-105"
         transform="translate(605.37109,0.015625)" />
      <use
         height="100%"
         width="100%"
         y="0"
         x="0"
         id="use411"
         xlink:href="#TimesNewRomanPS-BoldMT-99"
         transform="translate(633.1543,0.015625)" />
      <use
         height="100%"
         width="100%"
         y="0"
         x="0"
         id="use413"
         xlink:href="#TimesNewRomanPS-BoldMT-115"
         transform="translate(677.53906,0.015625)" />
      <use
         height="100%"
         width="100%"
         y="0"
         x="0"
         id="use415"
         xlink:href="#TimesNewRomanPS-BoldMT-32"
         transform="translate(716.45508,0.015625)" />
      <use
         height="100%"
         width="100%"
         y="0"
         x="0"
         id="use417"
         xlink:href="#TimesNewRomanPS-BoldMT-97"
         transform="translate(741.45508,0.015625)" />
      <use
         height="100%"
         width="100%"
         y="0"
         x="0"
         id="use419"
         xlink:href="#TimesNewRomanPS-BoldMT-115"
         transform="translate(791.45508,0.015625)" />
      <use
         height="100%"
         width="100%"
         y="0"
         x="0"
         id="use421"
         xlink:href="#TimesNewRomanPS-BoldMT-32"
         transform="translate(830.37109,0.015625)" />
      <use
         height="100%"
         width="100%"
         y="0"
         x="0"
         id="use423"
         xlink:href="#TimesNewRomanPS-BoldMT-116"
         transform="translate(855.37109,0.015625)" />
      <use
         height="100%"
         width="100%"
         y="0"
         x="0"
         id="use425"
         xlink:href="#TimesNewRomanPS-BoldMT-104"
         transform="translate(888.67187,0.015625)" />
      <use
         height="100%"
         width="100%"
         y="0"
         x="0"
         id="use427"
         xlink:href="#TimesNewRomanPS-BoldMT-101"
         transform="translate(944.28711,0.015625)" />
      <use
         height="100%"
         width="100%"
         y="0"
         x="0"
         id="use429"
         xlink:href="#TimesNewRomanPS-BoldMT-32"
         transform="translate(988.67187,0.015625)" />
      <use
         height="100%"
         width="100%"
         y="0"
         x="0"
         id="use431"
         xlink:href="#TimesNewRomanPS-BoldMT-99"
         transform="translate(1013.6719,0.015625)" />
      <use
         height="100%"
         width="100%"
         y="0"
         x="0"
         id="use433"
         xlink:href="#TimesNewRomanPS-BoldMT-104"
         transform="translate(1058.0566,0.015625)" />
      <use
         height="100%"
         width="100%"
         y="0"
         x="0"
         id="use435"
         xlink:href="#TimesNewRomanPS-BoldMT-97"
         transform="translate(1113.6719,0.015625)" />
      <use
         height="100%"
         width="100%"
         y="0"
         x="0"
         id="use437"
         xlink:href="#TimesNewRomanPS-BoldMT-110"
         transform="translate(1163.6719,0.015625)" />
      <use
         height="100%"
         width="100%"
         y="0"
         x="0"
         id="use439"
         xlink:href="#TimesNewRomanPS-BoldMT-103"
         transform="translate(1219.2871,0.015625)" />
      <use
         height="100%"
         width="100%"
         y="0"
         x="0"
         id="use441"
         xlink:href="#TimesNewRomanPS-BoldMT-101"
         transform="translate(1269.2871,0.015625)" />
      <use
         height="100%"
         width="100%"
         y="0"
         x="0"
         id="use443"
         xlink:href="#TimesNewRomanPS-BoldMT-32"
         transform="translate(1313.6719,0.015625)" />
      <use
         height="100%"
         width="100%"
         y="0"
         x="0"
         id="use445"
         xlink:href="#TimesNewRomanPS-BoldMT-111"
         transform="translate(1338.6719,0.015625)" />
      <use
         height="100%"
         width="100%"
         y="0"
         x="0"
         id="use447"
         xlink:href="#TimesNewRomanPS-BoldMT-102"
         transform="translate(1388.6719,0.015625)" />
      <use
         height="100%"
         width="100%"
         y="0"
         x="0"
         id="use449"
         xlink:href="#TimesNewRomanPS-BoldMT-32"
         transform="translate(1421.9727,0.015625)" />
      <use
         height="100%"
         width="100%"
         y="0"
         x="0"
         id="use451"
         xlink:href="#DejaVuSans-Oblique-955"
         transform="translate(1446.9727,0.015625)" />
    </g>
  </g>
  <g
     transform="matrix(0.85287846,0,0,0.85287846,94.901488,-2.1636361)"
     id="legend_1">
    <g
       id="patch_5">
      <path
         id="path456"
         style="opacity:0.8;fill:#ffffff;stroke:#cccccc;stroke-linejoin:miter"
         d="m 111.2918,125.66 h 35.7164 q 1,0 1,-1 V 96.881875 q 0,-1 -1,-1 h -35.7164 q -1,0 -1,1 V 124.66 q 0,1 1,1 z" />
    </g>
    <g
       id="line2d_25">
      <path
         id="path459"
         style="fill:none;stroke:#ff0000;stroke-width:0.5;stroke-linecap:square"
         d="m 112.2918,99.631875 h 10" />
    </g>
    <g
       id="line2d_26">
      <g
         id="g464">
        <use
           height="100%"
           width="100%"
           id="use462"
           y="99.631874"
           xlink:href="#mfc2d489209"
           x="117.29179"
           style="fill:#ff0000;stroke:#ff0000" />
      </g>
    </g>
    <g
       id="text_14">
      <!-- Precision -->
      <defs
         id="defs468">
        <path
           id="TimesNewRomanPS-BoldMT-80"
           d="M 27,29.984375 V 11.625 Q 27,6.25 27.65625,4.859375 28.328125,3.46875 30,2.640625 31.6875,1.8125 36.1875,1.8125 V 0 H 2.546875 v 1.8125 q 4.578125,0 6.21875,0.84375 1.640625,0.859375 2.296875,2.21875 0.65625,1.375 0.65625,6.75 v 42.96875 q 0,5.375 -0.65625,6.765625 -0.65625,1.390625 -2.328125,2.21875 -1.65625,0.828125 -6.1875,0.828125 v 1.8125 h 28.84375 q 14.265625,0 20.46875,-5.078125 Q 58.0625,56.0625 58.0625,48.4375 q 0,-6.4375 -4.015625,-11.03125 -4,-4.59375 -11.03125,-6.25 Q 38.28125,29.984375 27,29.984375 Z M 27,62.40625 V 33.796875 q 1.609375,-0.109375 2.4375,-0.109375 5.96875,0 9.1875,3.53125 3.21875,3.546875 3.21875,10.96875 0,7.375 -3.21875,10.796875 Q 35.40625,62.40625 29,62.40625 Z" />
      </defs>
      <g
         id="g488"
         transform="matrix(0.05,0,0,-0.05,126.2918,101.38187)">
        <use
           height="100%"
           width="100%"
           y="0"
           x="0"
           id="use470"
           xlink:href="#TimesNewRomanPS-BoldMT-80" />
        <use
           height="100%"
           width="100%"
           y="0"
           id="use472"
           xlink:href="#TimesNewRomanPS-BoldMT-114"
           x="61.083984" />
        <use
           height="100%"
           width="100%"
           y="0"
           id="use474"
           xlink:href="#TimesNewRomanPS-BoldMT-101"
           x="105.45312" />
        <use
           height="100%"
           width="100%"
           y="0"
           id="use476"
           xlink:href="#TimesNewRomanPS-BoldMT-99"
           x="149.83789" />
        <use
           height="100%"
           width="100%"
           y="0"
           id="use478"
           xlink:href="#TimesNewRomanPS-BoldMT-105"
           x="194.22266" />
        <use
           height="100%"
           width="100%"
           y="0"
           id="use480"
           xlink:href="#TimesNewRomanPS-BoldMT-115"
           x="222.00586" />
        <use
           height="100%"
           width="100%"
           y="0"
           id="use482"
           xlink:href="#TimesNewRomanPS-BoldMT-105"
           x="260.92188" />
        <use
           height="100%"
           width="100%"
           y="0"
           id="use484"
           xlink:href="#TimesNewRomanPS-BoldMT-111"
           x="288.70508" />
        <use
           height="100%"
           width="100%"
           y="0"
           id="use486"
           xlink:href="#TimesNewRomanPS-BoldMT-110"
           x="338.70508" />
      </g>
    </g>
    <g
       id="line2d_27">
      <path
         id="path491"
         style="fill:none;stroke:#008000;stroke-width:0.5;stroke-linecap:square"
         d="m 112.2918,106.70141 h 10" />
    </g>
    <g
       id="line2d_28">
      <g
         id="g496">
        <use
           height="100%"
           width="100%"
           id="use494"
           y="106.70141"
           xlink:href="#mffa482e93e"
           x="117.29179"
           style="fill:#008000;stroke:#008000;stroke-linejoin:miter" />
      </g>
    </g>
    <g
       id="text_15">
      <!-- Recall -->
      <defs
         id="defs500">
        <path
           id="TimesNewRomanPS-BoldMT-82"
           d="M 26.5625,30.171875 V 11.625 q 0,-5.375 0.65625,-6.765625 Q 27.875,3.46875 29.53125,2.640625 31.203125,1.8125 35.75,1.8125 V 0 H 1.859375 v 1.8125 q 4.59375,0 6.21875,0.84375 Q 9.71875,3.515625 10.375,4.875 q 0.65625,1.375 0.65625,6.75 v 42.96875 q 0,5.375 -0.65625,6.765625 -0.65625,1.390625 -2.328125,2.21875 -1.65625,0.828125 -6.1875,0.828125 v 1.8125 H 32.625 q 12,0 17.5625,-1.671875 5.578125,-1.65625 9.09375,-6.125 3.515625,-4.46875 3.515625,-10.46875 0,-7.328125 -5.28125,-12.109375 Q 54.15625,32.8125 48.09375,31.296875 L 64.015625,8.890625 q 3.125,-4.34375 4.4375,-5.421875 2,-1.515625 4.640625,-1.65625 V 0 H 52.25 L 30.90625,30.171875 Z m 0,32.46875 v -29 h 2.78125 q 6.796875,0 10.15625,1.25 3.375,1.25 5.296875,4.484375 1.9375,3.25 1.9375,8.484375 0,7.5625 -3.546875,11.171875 -3.53125,3.609375 -11.40625,3.609375 z" />
      </defs>
      <g
         id="g514"
         transform="matrix(0.05,0,0,-0.05,126.2918,108.45141)">
        <use
           height="100%"
           width="100%"
           y="0"
           x="0"
           id="use502"
           xlink:href="#TimesNewRomanPS-BoldMT-82" />
        <use
           height="100%"
           width="100%"
           y="0"
           id="use504"
           xlink:href="#TimesNewRomanPS-BoldMT-101"
           x="72.216797" />
        <use
           height="100%"
           width="100%"
           y="0"
           id="use506"
           xlink:href="#TimesNewRomanPS-BoldMT-99"
           x="116.60156" />
        <use
           height="100%"
           width="100%"
           y="0"
           id="use508"
           xlink:href="#TimesNewRomanPS-BoldMT-97"
           x="160.98633" />
        <use
           height="100%"
           width="100%"
           y="0"
           id="use510"
           xlink:href="#TimesNewRomanPS-BoldMT-108"
           x="210.98633" />
        <use
           height="100%"
           width="100%"
           y="0"
           id="use512"
           xlink:href="#TimesNewRomanPS-BoldMT-108"
           x="238.76953" />
      </g>
    </g>
    <g
       id="line2d_29">
      <path
         id="path517"
         style="fill:none;stroke:#0000ff;stroke-width:0.5;stroke-linecap:square"
         d="m 112.2918,113.77094 h 10" />
    </g>
    <g
       id="line2d_30">
      <g
         id="g522">
        <use
           height="100%"
           width="100%"
           id="use520"
           y="113.77094"
           xlink:href="#m1a4df702e8"
           x="117.29179"
           style="fill:#0000ff;stroke:#0000ff" />
      </g>
    </g>
    <g
       id="text_16">
      <!-- F1 -->
      <defs
         id="defs526">
        <path
           id="TimesNewRomanPS-BoldMT-70"
           d="M 27.484375,62.40625 V 35.203125 h 1.90625 q 4.40625,0 7.1875,1.3125 2.78125,1.328125 4.703125,4.453125 1.9375,3.125 2.515625,8.453125 h 1.71875 V 16.15625 h -1.71875 Q 42.875,25.59375 38.75,28.59375 q -4.125,3 -9.359375,3 h -1.90625 V 11.328125 q 0,-5.078125 0.5625,-6.34375 Q 28.609375,3.71875 30.25,2.765625 31.890625,1.8125 34.671875,1.8125 h 2.1875 V 0 H 2.25 v 1.8125 h 2.1875 q 2.890625,0 4.640625,1.015625 1.28125,0.6875 1.953125,2.34375 0.546875,1.171875 0.546875,6.15625 v 43.5625 q 0,5.078125 -0.546875,6.34375 Q 10.5,62.5 8.859375,63.453125 7.234375,64.40625 4.4375,64.40625 H 2.25 v 1.8125 h 55.859375 v -19 h -2 q -0.6875,6.6875 -3.5,9.90625 -2.796875,3.234375 -8.125,4.546875 -2.9375,0.734375 -10.84375,0.734375 z" />
      </defs>
      <g
         id="g532"
         transform="matrix(0.05,0,0,-0.05,126.2918,115.52094)">
        <use
           height="100%"
           width="100%"
           y="0"
           x="0"
           id="use528"
           xlink:href="#TimesNewRomanPS-BoldMT-70" />
        <use
           height="100%"
           width="100%"
           y="0"
           id="use530"
           xlink:href="#TimesNewRomanPS-BoldMT-49"
           x="61.083984" />
      </g>
    </g>
    <g
       id="line2d_31">
      <path
         id="path535"
         style="fill:none;stroke:#a52a2a;stroke-width:0.5;stroke-linecap:square"
         d="m 112.2918,120.84047 h 10" />
    </g>
    <g
       id="line2d_32">
      <g
         id="g540">
        <use
           height="100%"
           width="100%"
           id="use538"
           y="120.84047"
           xlink:href="#m3251ee08ef"
           x="117.29179"
           style="fill:#a52a2a;stroke:#a52a2a;stroke-linejoin:bevel" />
      </g>
    </g>
    <g
       id="text_17">
      <!-- IoU -->
      <defs
         id="defs545">
        <path
           id="TimesNewRomanPS-BoldMT-73"
           d="M 36.625,1.8125 V 0 H 2 v 1.8125 h 2.203125 q 2.875,0 4.640625,1.015625 1.265625,0.6875 1.953125,2.34375 0.53125,1.171875 0.53125,6.15625 v 43.5625 q 0,5.078125 -0.546875,6.34375 Q 10.25,62.5 8.609375,63.453125 6.984375,64.40625 4.203125,64.40625 H 2 v 1.8125 h 34.625 v -1.8125 h -2.203125 q -2.875,0 -4.640625,-1.03125 -1.265625,-0.671875 -2,-2.34375 Q 27.25,59.859375 27.25,54.890625 v -43.5625 Q 27.25,6.25 27.8125,4.984375 28.375,3.71875 30,2.765625 31.640625,1.8125 34.421875,1.8125 Z" />
        <path
           id="TimesNewRomanPS-BoldMT-85"
           d="m 2.34375,66.21875 h 34.1875 v -1.8125 H 34.8125 q -3.859375,0 -5.296875,-0.8125 -1.4375,-0.796875 -2.046875,-2.21875 -0.609375,-1.40625 -0.609375,-7.078125 V 21.875 q 0,-8.890625 1.34375,-11.765625 1.34375,-2.875 4.40625,-4.78125 3.078125,-1.90625 7.765625,-1.90625 5.375,0 9.15625,2.40625 Q 53.328125,8.25 55.203125,12.5 q 1.875,4.25 1.875,14.796875 v 27 q 0,4.4375 -0.9375,6.34375 -0.921875,1.90625 -2.328125,2.640625 -2.203125,1.125 -6.203125,1.125 v 1.8125 h 22.90625 v -1.8125 h -1.375 q -2.78125,0 -4.640625,-1.125 -1.859375,-1.125 -2.6875,-3.375 -0.625,-1.5625 -0.625,-5.609375 V 29.15625 q 0,-11.671875 -1.546875,-16.859375 -1.53125,-5.171875 -7.5,-9.515625 -5.953125,-4.34375 -16.25,-4.34375 -8.59375,0 -13.28125,2.296875 -6.390625,3.125 -9.03125,8 Q 10.9375,13.625 10.9375,21.875 v 32.421875 q 0,5.71875 -0.640625,7.109375 -0.625,1.390625 -2.1875,2.21875 -1.5625,0.828125 -5.765625,0.78125 z" />
      </defs>
      <g
         id="g553"
         transform="matrix(0.05,0,0,-0.05,126.2918,122.59047)">
        <use
           height="100%"
           width="100%"
           y="0"
           x="0"
           id="use547"
           xlink:href="#TimesNewRomanPS-BoldMT-73" />
        <use
           height="100%"
           width="100%"
           y="0"
           id="use549"
           xlink:href="#TimesNewRomanPS-BoldMT-111"
           x="38.916016" />
        <use
           height="100%"
           width="100%"
           y="0"
           id="use551"
           xlink:href="#TimesNewRomanPS-BoldMT-85"
           x="88.916016" />
      </g>
    </g>
  </g>
  <defs
     id="defs562">
    <clipPath
       id="p8612c0f1ef">
      <rect
         id="rect559"
         y="17.280001"
         x="31.5"
         width="195.3"
         height="110.88" />
    </clipPath>
  </defs>
</svg>
