<?xml version="1.0" encoding="utf-8" standalone="no"?>
<!DOCTYPE svg PUBLIC "-//W3C//DTD SVG 1.1//EN"
  "http://www.w3.org/Graphics/SVG/1.1/DTD/svg11.dtd">
<!-- Created with matplotlib (https://matplotlib.org/) -->
<svg height="360pt" version="1.1" viewBox="0 0 576 360" width="576pt" xmlns="http://www.w3.org/2000/svg" xmlns:xlink="http://www.w3.org/1999/xlink">
 <defs>
  <style type="text/css">
*{stroke-linecap:butt;stroke-linejoin:round;}
  </style>
 </defs>
 <g id="figure_1">
  <g id="patch_1">
   <path d="M 0 360 
L 576 360 
L 576 0 
L 0 0 
z
" style="fill:#ffffff;"/>
  </g>
  <g id="axes_1">
   <g id="patch_2">
    <path d="M 72 320.4 
L 518.4 320.4 
L 518.4 43.2 
L 72 43.2 
z
" style="fill:#ffffff;"/>
   </g>
   <g id="matplotlib.axis_1">
    <g id="xtick_1">
     <g id="line2d_1">
      <path clip-path="url(#p82888841de)" d="M 137.1 320.4 
L 137.1 43.2 
" style="fill:none;stroke:#b0b0b0;stroke-dasharray:2.96,1.28;stroke-dashoffset:0;stroke-width:0.8;"/>
     </g>
     <g id="line2d_2">
      <defs>
       <path d="M 0 0 
L 0 3.5 
" id="m3dcf824302" style="stroke:#000000;stroke-width:0.8;"/>
      </defs>
      <g>
       <use style="stroke:#000000;stroke-width:0.8;" x="137.1" xlink:href="#m3dcf824302" y="320.4"/>
      </g>
     </g>
     <g id="text_1">
      <!-- 10 -->
      <defs>
       <path d="M 11.71875 12.984375 
L 28.328125 12.984375 
L 28.328125 60.109375 
L 11.28125 56.59375 
L 11.28125 69.390625 
L 28.21875 72.90625 
L 46.09375 72.90625 
L 46.09375 12.984375 
L 62.703125 12.984375 
L 62.703125 0 
L 11.71875 0 
z
" id="DejaVuSans-Bold-49"/>
       <path d="M 46 36.53125 
Q 46 50.203125 43.4375 55.78125 
Q 40.875 61.375 34.8125 61.375 
Q 28.765625 61.375 26.171875 55.78125 
Q 23.578125 50.203125 23.578125 36.53125 
Q 23.578125 22.703125 26.171875 17.03125 
Q 28.765625 11.375 34.8125 11.375 
Q 40.828125 11.375 43.40625 17.03125 
Q 46 22.703125 46 36.53125 
z
M 64.796875 36.375 
Q 64.796875 18.265625 56.984375 8.421875 
Q 49.171875 -1.421875 34.8125 -1.421875 
Q 20.40625 -1.421875 12.59375 8.421875 
Q 4.78125 18.265625 4.78125 36.375 
Q 4.78125 54.546875 12.59375 64.375 
Q 20.40625 74.21875 34.8125 74.21875 
Q 49.171875 74.21875 56.984375 64.375 
Q 64.796875 54.546875 64.796875 36.375 
z
" id="DejaVuSans-Bold-48"/>
      </defs>
      <g transform="translate(126.663281 338.797656)scale(0.15 -0.15)">
       <use xlink:href="#DejaVuSans-Bold-49"/>
       <use x="69.580078" xlink:href="#DejaVuSans-Bold-48"/>
      </g>
     </g>
    </g>
    <g id="xtick_2">
     <g id="line2d_3">
      <path clip-path="url(#p82888841de)" d="M 230.1 320.4 
L 230.1 43.2 
" style="fill:none;stroke:#b0b0b0;stroke-dasharray:2.96,1.28;stroke-dashoffset:0;stroke-width:0.8;"/>
     </g>
     <g id="line2d_4">
      <g>
       <use style="stroke:#000000;stroke-width:0.8;" x="230.1" xlink:href="#m3dcf824302" y="320.4"/>
      </g>
     </g>
     <g id="text_2">
      <!-- 20 -->
      <defs>
       <path d="M 28.8125 13.8125 
L 60.890625 13.8125 
L 60.890625 0 
L 7.90625 0 
L 7.90625 13.8125 
L 34.515625 37.3125 
Q 38.09375 40.53125 39.796875 43.609375 
Q 41.5 46.6875 41.5 50 
Q 41.5 55.125 38.0625 58.25 
Q 34.625 61.375 28.90625 61.375 
Q 24.515625 61.375 19.28125 59.5 
Q 14.0625 57.625 8.109375 53.90625 
L 8.109375 69.921875 
Q 14.453125 72.015625 20.65625 73.109375 
Q 26.859375 74.21875 32.8125 74.21875 
Q 45.90625 74.21875 53.15625 68.453125 
Q 60.40625 62.703125 60.40625 52.390625 
Q 60.40625 46.4375 57.328125 41.28125 
Q 54.25 36.140625 44.390625 27.484375 
z
" id="DejaVuSans-Bold-50"/>
      </defs>
      <g transform="translate(219.663281 338.797656)scale(0.15 -0.15)">
       <use xlink:href="#DejaVuSans-Bold-50"/>
       <use x="69.580078" xlink:href="#DejaVuSans-Bold-48"/>
      </g>
     </g>
    </g>
    <g id="xtick_3">
     <g id="line2d_5">
      <path clip-path="url(#p82888841de)" d="M 323.1 320.4 
L 323.1 43.2 
" style="fill:none;stroke:#b0b0b0;stroke-dasharray:2.96,1.28;stroke-dashoffset:0;stroke-width:0.8;"/>
     </g>
     <g id="line2d_6">
      <g>
       <use style="stroke:#000000;stroke-width:0.8;" x="323.1" xlink:href="#m3dcf824302" y="320.4"/>
      </g>
     </g>
     <g id="text_3">
      <!-- 30 -->
      <defs>
       <path d="M 46.578125 39.3125 
Q 53.953125 37.40625 57.78125 32.6875 
Q 61.625 27.984375 61.625 20.703125 
Q 61.625 9.859375 53.3125 4.21875 
Q 45.015625 -1.421875 29.109375 -1.421875 
Q 23.484375 -1.421875 17.84375 -0.515625 
Q 12.203125 0.390625 6.6875 2.203125 
L 6.6875 16.703125 
Q 11.96875 14.0625 17.15625 12.71875 
Q 22.359375 11.375 27.390625 11.375 
Q 34.859375 11.375 38.84375 13.953125 
Q 42.828125 16.546875 42.828125 21.390625 
Q 42.828125 26.375 38.75 28.9375 
Q 34.671875 31.5 26.703125 31.5 
L 19.1875 31.5 
L 19.1875 43.609375 
L 27.09375 43.609375 
Q 34.1875 43.609375 37.640625 45.828125 
Q 41.109375 48.046875 41.109375 52.59375 
Q 41.109375 56.78125 37.734375 59.078125 
Q 34.375 61.375 28.21875 61.375 
Q 23.6875 61.375 19.046875 60.34375 
Q 14.40625 59.328125 9.8125 57.328125 
L 9.8125 71.09375 
Q 15.375 72.65625 20.84375 73.4375 
Q 26.3125 74.21875 31.59375 74.21875 
Q 45.796875 74.21875 52.84375 69.546875 
Q 59.90625 64.890625 59.90625 55.515625 
Q 59.90625 49.125 56.53125 45.046875 
Q 53.171875 40.96875 46.578125 39.3125 
z
" id="DejaVuSans-Bold-51"/>
      </defs>
      <g transform="translate(312.663281 338.797656)scale(0.15 -0.15)">
       <use xlink:href="#DejaVuSans-Bold-51"/>
       <use x="69.580078" xlink:href="#DejaVuSans-Bold-48"/>
      </g>
     </g>
    </g>
    <g id="xtick_4">
     <g id="line2d_7">
      <path clip-path="url(#p82888841de)" d="M 416.1 320.4 
L 416.1 43.2 
" style="fill:none;stroke:#b0b0b0;stroke-dasharray:2.96,1.28;stroke-dashoffset:0;stroke-width:0.8;"/>
     </g>
     <g id="line2d_8">
      <g>
       <use style="stroke:#000000;stroke-width:0.8;" x="416.1" xlink:href="#m3dcf824302" y="320.4"/>
      </g>
     </g>
     <g id="text_4">
      <!-- 40 -->
      <defs>
       <path d="M 36.8125 57.421875 
L 16.21875 26.90625 
L 36.8125 26.90625 
z
M 33.6875 72.90625 
L 54.59375 72.90625 
L 54.59375 26.90625 
L 64.984375 26.90625 
L 64.984375 13.28125 
L 54.59375 13.28125 
L 54.59375 0 
L 36.8125 0 
L 36.8125 13.28125 
L 4.5 13.28125 
L 4.5 29.390625 
z
" id="DejaVuSans-Bold-52"/>
      </defs>
      <g transform="translate(405.663281 338.797656)scale(0.15 -0.15)">
       <use xlink:href="#DejaVuSans-Bold-52"/>
       <use x="69.580078" xlink:href="#DejaVuSans-Bold-48"/>
      </g>
     </g>
    </g>
    <g id="xtick_5">
     <g id="line2d_9">
      <path clip-path="url(#p82888841de)" d="M 509.1 320.4 
L 509.1 43.2 
" style="fill:none;stroke:#b0b0b0;stroke-dasharray:2.96,1.28;stroke-dashoffset:0;stroke-width:0.8;"/>
     </g>
     <g id="line2d_10">
      <g>
       <use style="stroke:#000000;stroke-width:0.8;" x="509.1" xlink:href="#m3dcf824302" y="320.4"/>
      </g>
     </g>
     <g id="text_5">
      <!-- 50 -->
      <defs>
       <path d="M 10.59375 72.90625 
L 57.328125 72.90625 
L 57.328125 59.078125 
L 25.59375 59.078125 
L 25.59375 47.796875 
Q 27.734375 48.390625 29.90625 48.703125 
Q 32.078125 49.03125 34.421875 49.03125 
Q 47.75 49.03125 55.171875 42.359375 
Q 62.59375 35.6875 62.59375 23.78125 
Q 62.59375 11.96875 54.515625 5.265625 
Q 46.4375 -1.421875 32.078125 -1.421875 
Q 25.875 -1.421875 19.796875 -0.21875 
Q 13.71875 0.984375 7.71875 3.421875 
L 7.71875 18.21875 
Q 13.671875 14.796875 19.015625 13.078125 
Q 24.359375 11.375 29.109375 11.375 
Q 35.9375 11.375 39.859375 14.71875 
Q 43.796875 18.0625 43.796875 23.78125 
Q 43.796875 29.546875 39.859375 32.859375 
Q 35.9375 36.1875 29.109375 36.1875 
Q 25.046875 36.1875 20.453125 35.125 
Q 15.875 34.078125 10.59375 31.890625 
z
" id="DejaVuSans-Bold-53"/>
      </defs>
      <g transform="translate(498.663281 338.797656)scale(0.15 -0.15)">
       <use xlink:href="#DejaVuSans-Bold-53"/>
       <use x="69.580078" xlink:href="#DejaVuSans-Bold-48"/>
      </g>
     </g>
    </g>
    <g id="text_6">
     <!-- kernel_size -->
     <defs>
      <path d="M 8.40625 75.984375 
L 25.875 75.984375 
L 25.875 34.625 
L 46 54.6875 
L 66.3125 54.6875 
L 39.59375 29.59375 
L 68.40625 0 
L 47.21875 0 
L 25.875 22.796875 
L 25.875 0 
L 8.40625 0 
z
" id="DejaVuSans-Bold-107"/>
      <path d="M 62.984375 27.484375 
L 62.984375 22.515625 
L 22.125 22.515625 
Q 22.75 16.359375 26.5625 13.28125 
Q 30.375 10.203125 37.203125 10.203125 
Q 42.71875 10.203125 48.5 11.84375 
Q 54.296875 13.484375 60.40625 16.796875 
L 60.40625 3.328125 
Q 54.203125 0.984375 48 -0.21875 
Q 41.796875 -1.421875 35.59375 -1.421875 
Q 20.75 -1.421875 12.515625 6.125 
Q 4.296875 13.671875 4.296875 27.296875 
Q 4.296875 40.671875 12.375 48.328125 
Q 20.453125 56 34.625 56 
Q 47.515625 56 55.25 48.234375 
Q 62.984375 40.484375 62.984375 27.484375 
z
M 45.015625 33.296875 
Q 45.015625 38.28125 42.109375 41.328125 
Q 39.203125 44.390625 34.515625 44.390625 
Q 29.4375 44.390625 26.265625 41.53125 
Q 23.09375 38.671875 22.3125 33.296875 
z
" id="DejaVuSans-Bold-101"/>
      <path d="M 49.03125 39.796875 
Q 46.734375 40.875 44.453125 41.375 
Q 42.1875 41.890625 39.890625 41.890625 
Q 33.15625 41.890625 29.515625 37.5625 
Q 25.875 33.25 25.875 25.203125 
L 25.875 0 
L 8.40625 0 
L 8.40625 54.6875 
L 25.875 54.6875 
L 25.875 45.703125 
Q 29.25 51.078125 33.609375 53.53125 
Q 37.984375 56 44.09375 56 
Q 44.96875 56 45.984375 55.921875 
Q 47.015625 55.859375 48.96875 55.609375 
z
" id="DejaVuSans-Bold-114"/>
      <path d="M 63.375 33.296875 
L 63.375 0 
L 45.796875 0 
L 45.796875 5.421875 
L 45.796875 25.484375 
Q 45.796875 32.5625 45.484375 35.25 
Q 45.171875 37.9375 44.390625 39.203125 
Q 43.359375 40.921875 41.59375 41.875 
Q 39.84375 42.828125 37.59375 42.828125 
Q 32.125 42.828125 29 38.59375 
Q 25.875 34.375 25.875 26.90625 
L 25.875 0 
L 8.40625 0 
L 8.40625 54.6875 
L 25.875 54.6875 
L 25.875 46.6875 
Q 29.828125 51.46875 34.265625 53.734375 
Q 38.71875 56 44.09375 56 
Q 53.5625 56 58.46875 50.1875 
Q 63.375 44.390625 63.375 33.296875 
z
" id="DejaVuSans-Bold-110"/>
      <path d="M 8.40625 75.984375 
L 25.875 75.984375 
L 25.875 0 
L 8.40625 0 
z
" id="DejaVuSans-Bold-108"/>
      <path d="M 50 -14.3125 
L 50 -23.578125 
L 0 -23.578125 
L 0 -14.3125 
z
" id="DejaVuSans-Bold-95"/>
      <path d="M 51.125 52.984375 
L 51.125 39.703125 
Q 45.515625 42.046875 40.28125 43.21875 
Q 35.0625 44.390625 30.421875 44.390625 
Q 25.4375 44.390625 23.015625 43.140625 
Q 20.609375 41.890625 20.609375 39.3125 
Q 20.609375 37.203125 22.4375 36.078125 
Q 24.265625 34.96875 29 34.421875 
L 32.078125 33.984375 
Q 45.515625 32.28125 50.140625 28.375 
Q 54.78125 24.46875 54.78125 16.109375 
Q 54.78125 7.375 48.328125 2.96875 
Q 41.890625 -1.421875 29.109375 -1.421875 
Q 23.6875 -1.421875 17.890625 -0.5625 
Q 12.109375 0.296875 6 2 
L 6 15.28125 
Q 11.234375 12.75 16.71875 11.46875 
Q 22.21875 10.203125 27.875 10.203125 
Q 33.015625 10.203125 35.59375 11.609375 
Q 38.1875 13.03125 38.1875 15.828125 
Q 38.1875 18.171875 36.40625 19.3125 
Q 34.625 20.453125 29.296875 21.09375 
L 26.21875 21.484375 
Q 14.546875 22.953125 9.859375 26.90625 
Q 5.171875 30.859375 5.171875 38.921875 
Q 5.171875 47.609375 11.125 51.796875 
Q 17.09375 56 29.390625 56 
Q 34.234375 56 39.546875 55.265625 
Q 44.875 54.546875 51.125 52.984375 
z
" id="DejaVuSans-Bold-115"/>
      <path d="M 8.40625 54.6875 
L 25.875 54.6875 
L 25.875 0 
L 8.40625 0 
z
M 8.40625 75.984375 
L 25.875 75.984375 
L 25.875 61.71875 
L 8.40625 61.71875 
z
" id="DejaVuSans-Bold-105"/>
      <path d="M 5.71875 54.6875 
L 53.421875 54.6875 
L 53.421875 42.484375 
L 24.609375 12.5 
L 53.421875 12.5 
L 53.421875 0 
L 4.5 0 
L 4.5 12.203125 
L 33.296875 42.1875 
L 5.71875 42.1875 
z
" id="DejaVuSans-Bold-122"/>
     </defs>
     <g transform="translate(241.927578 358.834531)scale(0.17 -0.17)">
      <use xlink:href="#DejaVuSans-Bold-107"/>
      <use x="66.472656" xlink:href="#DejaVuSans-Bold-101"/>
      <use x="134.294922" xlink:href="#DejaVuSans-Bold-114"/>
      <use x="183.611328" xlink:href="#DejaVuSans-Bold-110"/>
      <use x="254.802734" xlink:href="#DejaVuSans-Bold-101"/>
      <use x="322.625" xlink:href="#DejaVuSans-Bold-108"/>
      <use x="356.902344" xlink:href="#DejaVuSans-Bold-95"/>
      <use x="406.902344" xlink:href="#DejaVuSans-Bold-115"/>
      <use x="466.423828" xlink:href="#DejaVuSans-Bold-105"/>
      <use x="500.701172" xlink:href="#DejaVuSans-Bold-122"/>
      <use x="558.904297" xlink:href="#DejaVuSans-Bold-101"/>
     </g>
    </g>
   </g>
   <g id="matplotlib.axis_2">
    <g id="ytick_1">
     <g id="line2d_11">
      <path clip-path="url(#p82888841de)" d="M 72 285.7448 
L 518.4 285.7448 
" style="fill:none;stroke:#b0b0b0;stroke-dasharray:2.96,1.28;stroke-dashoffset:0;stroke-width:0.8;"/>
     </g>
     <g id="line2d_12">
      <defs>
       <path d="M 0 0 
L -3.5 0 
" id="m4081c04443" style="stroke:#000000;stroke-width:0.8;"/>
      </defs>
      <g>
       <use style="stroke:#000000;stroke-width:0.8;" x="72" xlink:href="#m4081c04443" y="285.7448"/>
      </g>
     </g>
     <g id="text_7">
      <!-- 0.80 -->
      <defs>
       <path d="M 10.203125 18.890625 
L 27.78125 18.890625 
L 27.78125 0 
L 10.203125 0 
z
" id="DejaVuSans-Bold-46"/>
       <path d="M 34.8125 32.625 
Q 29.546875 32.625 26.703125 29.734375 
Q 23.875 26.859375 23.875 21.484375 
Q 23.875 16.109375 26.703125 13.25 
Q 29.546875 10.40625 34.8125 10.40625 
Q 40.046875 10.40625 42.828125 13.25 
Q 45.609375 16.109375 45.609375 21.484375 
Q 45.609375 26.90625 42.828125 29.765625 
Q 40.046875 32.625 34.8125 32.625 
z
M 21.09375 38.8125 
Q 14.453125 40.828125 11.078125 44.96875 
Q 7.71875 49.125 7.71875 55.328125 
Q 7.71875 64.546875 14.59375 69.375 
Q 21.484375 74.21875 34.8125 74.21875 
Q 48.046875 74.21875 54.921875 69.40625 
Q 61.8125 64.59375 61.8125 55.328125 
Q 61.8125 49.125 58.421875 44.96875 
Q 55.03125 40.828125 48.390625 38.8125 
Q 55.8125 36.765625 59.59375 32.15625 
Q 63.375 27.546875 63.375 20.515625 
Q 63.375 9.671875 56.171875 4.125 
Q 48.96875 -1.421875 34.8125 -1.421875 
Q 20.609375 -1.421875 13.359375 4.125 
Q 6.109375 9.671875 6.109375 20.515625 
Q 6.109375 27.546875 9.890625 32.15625 
Q 13.671875 36.765625 21.09375 38.8125 
z
M 25.484375 53.421875 
Q 25.484375 49.078125 27.90625 46.734375 
Q 30.328125 44.390625 34.8125 44.390625 
Q 39.203125 44.390625 41.59375 46.734375 
Q 44 49.078125 44 53.421875 
Q 44 57.765625 41.59375 60.078125 
Q 39.203125 62.40625 34.8125 62.40625 
Q 30.328125 62.40625 27.90625 60.0625 
Q 25.484375 57.71875 25.484375 53.421875 
z
" id="DejaVuSans-Bold-56"/>
      </defs>
      <g transform="translate(27.992188 291.443628)scale(0.15 -0.15)">
       <use xlink:href="#DejaVuSans-Bold-48"/>
       <use x="69.580078" xlink:href="#DejaVuSans-Bold-46"/>
       <use x="107.568359" xlink:href="#DejaVuSans-Bold-56"/>
       <use x="177.148438" xlink:href="#DejaVuSans-Bold-48"/>
      </g>
     </g>
    </g>
    <g id="ytick_2">
     <g id="line2d_13">
      <path clip-path="url(#p82888841de)" d="M 72 225.193832 
L 518.4 225.193832 
" style="fill:none;stroke:#b0b0b0;stroke-dasharray:2.96,1.28;stroke-dashoffset:0;stroke-width:0.8;"/>
     </g>
     <g id="line2d_14">
      <g>
       <use style="stroke:#000000;stroke-width:0.8;" x="72" xlink:href="#m4081c04443" y="225.193832"/>
      </g>
     </g>
     <g id="text_8">
      <!-- 0.85 -->
      <g transform="translate(27.992188 230.89266)scale(0.15 -0.15)">
       <use xlink:href="#DejaVuSans-Bold-48"/>
       <use x="69.580078" xlink:href="#DejaVuSans-Bold-46"/>
       <use x="107.568359" xlink:href="#DejaVuSans-Bold-56"/>
       <use x="177.148438" xlink:href="#DejaVuSans-Bold-53"/>
      </g>
     </g>
    </g>
    <g id="ytick_3">
     <g id="line2d_15">
      <path clip-path="url(#p82888841de)" d="M 72 164.642864 
L 518.4 164.642864 
" style="fill:none;stroke:#b0b0b0;stroke-dasharray:2.96,1.28;stroke-dashoffset:0;stroke-width:0.8;"/>
     </g>
     <g id="line2d_16">
      <g>
       <use style="stroke:#000000;stroke-width:0.8;" x="72" xlink:href="#m4081c04443" y="164.642864"/>
      </g>
     </g>
     <g id="text_9">
      <!-- 0.90 -->
      <defs>
       <path d="M 10.015625 1.609375 
L 10.015625 15.09375 
Q 14.5 12.984375 18.59375 11.9375 
Q 22.703125 10.890625 26.703125 10.890625 
Q 35.109375 10.890625 39.796875 15.546875 
Q 44.484375 20.21875 45.3125 29.390625 
Q 42 26.953125 38.234375 25.734375 
Q 34.46875 24.515625 30.078125 24.515625 
Q 18.890625 24.515625 12.03125 31.03125 
Q 5.171875 37.546875 5.171875 48.1875 
Q 5.171875 59.96875 12.8125 67.046875 
Q 20.453125 74.125 33.296875 74.125 
Q 47.5625 74.125 55.375 64.5 
Q 63.1875 54.890625 63.1875 37.3125 
Q 63.1875 19.234375 54.046875 8.90625 
Q 44.921875 -1.421875 29 -1.421875 
Q 23.875 -1.421875 19.1875 -0.65625 
Q 14.5 0.09375 10.015625 1.609375 
z
M 33.203125 36.71875 
Q 38.140625 36.71875 40.625 39.90625 
Q 43.109375 43.109375 43.109375 49.515625 
Q 43.109375 55.859375 40.625 59.078125 
Q 38.140625 62.3125 33.203125 62.3125 
Q 28.265625 62.3125 25.78125 59.078125 
Q 23.296875 55.859375 23.296875 49.515625 
Q 23.296875 43.109375 25.78125 39.90625 
Q 28.265625 36.71875 33.203125 36.71875 
z
" id="DejaVuSans-Bold-57"/>
      </defs>
      <g transform="translate(27.992188 170.341692)scale(0.15 -0.15)">
       <use xlink:href="#DejaVuSans-Bold-48"/>
       <use x="69.580078" xlink:href="#DejaVuSans-Bold-46"/>
       <use x="107.568359" xlink:href="#DejaVuSans-Bold-57"/>
       <use x="177.148438" xlink:href="#DejaVuSans-Bold-48"/>
      </g>
     </g>
    </g>
    <g id="ytick_4">
     <g id="line2d_17">
      <path clip-path="url(#p82888841de)" d="M 72 104.091896 
L 518.4 104.091896 
" style="fill:none;stroke:#b0b0b0;stroke-dasharray:2.96,1.28;stroke-dashoffset:0;stroke-width:0.8;"/>
     </g>
     <g id="line2d_18">
      <g>
       <use style="stroke:#000000;stroke-width:0.8;" x="72" xlink:href="#m4081c04443" y="104.091896"/>
      </g>
     </g>
     <g id="text_10">
      <!-- 0.95 -->
      <g transform="translate(27.992188 109.790724)scale(0.15 -0.15)">
       <use xlink:href="#DejaVuSans-Bold-48"/>
       <use x="69.580078" xlink:href="#DejaVuSans-Bold-46"/>
       <use x="107.568359" xlink:href="#DejaVuSans-Bold-57"/>
       <use x="177.148438" xlink:href="#DejaVuSans-Bold-53"/>
      </g>
     </g>
    </g>
    <g id="ytick_5">
     <g id="line2d_19">
      <path clip-path="url(#p82888841de)" d="M 72 43.540928 
L 518.4 43.540928 
" style="fill:none;stroke:#b0b0b0;stroke-dasharray:2.96,1.28;stroke-dashoffset:0;stroke-width:0.8;"/>
     </g>
     <g id="line2d_20">
      <g>
       <use style="stroke:#000000;stroke-width:0.8;" x="72" xlink:href="#m4081c04443" y="43.540928"/>
      </g>
     </g>
     <g id="text_11">
      <!-- 1.00 -->
      <g transform="translate(27.992188 49.239756)scale(0.15 -0.15)">
       <use xlink:href="#DejaVuSans-Bold-49"/>
       <use x="69.580078" xlink:href="#DejaVuSans-Bold-46"/>
       <use x="107.568359" xlink:href="#DejaVuSans-Bold-48"/>
       <use x="177.148438" xlink:href="#DejaVuSans-Bold-48"/>
      </g>
     </g>
    </g>
    <g id="text_12">
     <!-- Score -->
     <defs>
      <path d="M 59.90625 70.609375 
L 59.90625 55.171875 
Q 53.90625 57.859375 48.1875 59.21875 
Q 42.484375 60.59375 37.40625 60.59375 
Q 30.671875 60.59375 27.4375 58.734375 
Q 24.21875 56.890625 24.21875 52.984375 
Q 24.21875 50.046875 26.390625 48.40625 
Q 28.5625 46.78125 34.28125 45.609375 
L 42.28125 44 
Q 54.4375 41.546875 59.5625 36.5625 
Q 64.703125 31.59375 64.703125 22.40625 
Q 64.703125 10.359375 57.546875 4.46875 
Q 50.390625 -1.421875 35.6875 -1.421875 
Q 28.765625 -1.421875 21.78125 -0.09375 
Q 14.796875 1.21875 7.8125 3.8125 
L 7.8125 19.671875 
Q 14.796875 15.96875 21.3125 14.078125 
Q 27.828125 12.203125 33.890625 12.203125 
Q 40.046875 12.203125 43.3125 14.25 
Q 46.578125 16.3125 46.578125 20.125 
Q 46.578125 23.53125 44.359375 25.390625 
Q 42.140625 27.25 35.5 28.71875 
L 28.21875 30.328125 
Q 17.28125 32.671875 12.21875 37.796875 
Q 7.171875 42.921875 7.171875 51.609375 
Q 7.171875 62.5 14.203125 68.359375 
Q 21.234375 74.21875 34.421875 74.21875 
Q 40.4375 74.21875 46.78125 73.3125 
Q 53.125 72.40625 59.90625 70.609375 
z
" id="DejaVuSans-Bold-83"/>
      <path d="M 52.59375 52.984375 
L 52.59375 38.71875 
Q 49.03125 41.15625 45.4375 42.328125 
Q 41.84375 43.5 37.984375 43.5 
Q 30.671875 43.5 26.59375 39.234375 
Q 22.515625 34.96875 22.515625 27.296875 
Q 22.515625 19.625 26.59375 15.34375 
Q 30.671875 11.078125 37.984375 11.078125 
Q 42.09375 11.078125 45.78125 12.296875 
Q 49.46875 13.53125 52.59375 15.921875 
L 52.59375 1.609375 
Q 48.484375 0.09375 44.265625 -0.65625 
Q 40.046875 -1.421875 35.796875 -1.421875 
Q 21 -1.421875 12.640625 6.171875 
Q 4.296875 13.765625 4.296875 27.296875 
Q 4.296875 40.828125 12.640625 48.40625 
Q 21 56 35.796875 56 
Q 40.09375 56 44.265625 55.25 
Q 48.4375 54.5 52.59375 52.984375 
z
" id="DejaVuSans-Bold-99"/>
      <path d="M 34.421875 43.5 
Q 28.609375 43.5 25.5625 39.328125 
Q 22.515625 35.15625 22.515625 27.296875 
Q 22.515625 19.4375 25.5625 15.25 
Q 28.609375 11.078125 34.421875 11.078125 
Q 40.140625 11.078125 43.15625 15.25 
Q 46.1875 19.4375 46.1875 27.296875 
Q 46.1875 35.15625 43.15625 39.328125 
Q 40.140625 43.5 34.421875 43.5 
z
M 34.421875 56 
Q 48.53125 56 56.46875 48.375 
Q 64.40625 40.765625 64.40625 27.296875 
Q 64.40625 13.8125 56.46875 6.1875 
Q 48.53125 -1.421875 34.421875 -1.421875 
Q 20.265625 -1.421875 12.28125 6.1875 
Q 4.296875 13.8125 4.296875 27.296875 
Q 4.296875 40.765625 12.28125 48.375 
Q 20.265625 56 34.421875 56 
z
" id="DejaVuSans-Bold-111"/>
     </defs>
     <g transform="translate(20.456719 208.756953)rotate(-90)scale(0.17 -0.17)">
      <use xlink:href="#DejaVuSans-Bold-83"/>
      <use x="72.021484" xlink:href="#DejaVuSans-Bold-99"/>
      <use x="131.298828" xlink:href="#DejaVuSans-Bold-111"/>
      <use x="200" xlink:href="#DejaVuSans-Bold-114"/>
      <use x="249.316406" xlink:href="#DejaVuSans-Bold-101"/>
     </g>
    </g>
   </g>
   <g id="line2d_21">
    <path clip-path="url(#p82888841de)" d="M 72 298.477518 
L 90.6 296.018063 
L 109.2 296.018063 
L 127.8 297.388907 
L 146.4 297.388907 
L 165 297.388907 
L 183.6 297.388907 
L 202.2 294.102914 
L 220.8 297.388907 
L 239.4 297.388907 
L 258 298.900867 
L 276.6 298.900867 
L 295.2 298.900867 
L 313.8 298.658953 
L 332.4 296.945399 
L 351 298.941186 
L 369.6 297.913053 
L 388.2 297.913053 
L 406.8 297.913053 
L 425.4 295.897106 
L 444 294.344828 
L 462.6 295.897106 
L 481.2 292.490157 
L 499.8 294.506103 
L 518.4 294.304509 
" style="fill:none;stroke:#ff0000;stroke-linecap:square;"/>
    <defs>
     <path d="M 0 1.5 
C 0.397805 1.5 0.77937 1.341951 1.06066 1.06066 
C 1.341951 0.77937 1.5 0.397805 1.5 0 
C 1.5 -0.397805 1.341951 -0.77937 1.06066 -1.06066 
C 0.77937 -1.341951 0.397805 -1.5 0 -1.5 
C -0.397805 -1.5 -0.77937 -1.341951 -1.06066 -1.06066 
C -1.341951 -0.77937 -1.5 -0.397805 -1.5 0 
C -1.5 0.397805 -1.341951 0.77937 -1.06066 1.06066 
C -0.77937 1.341951 -0.397805 1.5 0 1.5 
z
" id="mceb97ec46d" style="stroke:#ff0000;"/>
    </defs>
    <g clip-path="url(#p82888841de)">
     <use style="fill:#ff0000;stroke:#ff0000;" x="72" xlink:href="#mceb97ec46d" y="298.477518"/>
     <use style="fill:#ff0000;stroke:#ff0000;" x="90.6" xlink:href="#mceb97ec46d" y="296.018063"/>
     <use style="fill:#ff0000;stroke:#ff0000;" x="109.2" xlink:href="#mceb97ec46d" y="296.018063"/>
     <use style="fill:#ff0000;stroke:#ff0000;" x="127.8" xlink:href="#mceb97ec46d" y="297.388907"/>
     <use style="fill:#ff0000;stroke:#ff0000;" x="146.4" xlink:href="#mceb97ec46d" y="297.388907"/>
     <use style="fill:#ff0000;stroke:#ff0000;" x="165" xlink:href="#mceb97ec46d" y="297.388907"/>
     <use style="fill:#ff0000;stroke:#ff0000;" x="183.6" xlink:href="#mceb97ec46d" y="297.388907"/>
     <use style="fill:#ff0000;stroke:#ff0000;" x="202.2" xlink:href="#mceb97ec46d" y="294.102914"/>
     <use style="fill:#ff0000;stroke:#ff0000;" x="220.8" xlink:href="#mceb97ec46d" y="297.388907"/>
     <use style="fill:#ff0000;stroke:#ff0000;" x="239.4" xlink:href="#mceb97ec46d" y="297.388907"/>
     <use style="fill:#ff0000;stroke:#ff0000;" x="258" xlink:href="#mceb97ec46d" y="298.900867"/>
     <use style="fill:#ff0000;stroke:#ff0000;" x="276.6" xlink:href="#mceb97ec46d" y="298.900867"/>
     <use style="fill:#ff0000;stroke:#ff0000;" x="295.2" xlink:href="#mceb97ec46d" y="298.900867"/>
     <use style="fill:#ff0000;stroke:#ff0000;" x="313.8" xlink:href="#mceb97ec46d" y="298.658953"/>
     <use style="fill:#ff0000;stroke:#ff0000;" x="332.4" xlink:href="#mceb97ec46d" y="296.945399"/>
     <use style="fill:#ff0000;stroke:#ff0000;" x="351" xlink:href="#mceb97ec46d" y="298.941186"/>
     <use style="fill:#ff0000;stroke:#ff0000;" x="369.6" xlink:href="#mceb97ec46d" y="297.913053"/>
     <use style="fill:#ff0000;stroke:#ff0000;" x="388.2" xlink:href="#mceb97ec46d" y="297.913053"/>
     <use style="fill:#ff0000;stroke:#ff0000;" x="406.8" xlink:href="#mceb97ec46d" y="297.913053"/>
     <use style="fill:#ff0000;stroke:#ff0000;" x="425.4" xlink:href="#mceb97ec46d" y="295.897106"/>
     <use style="fill:#ff0000;stroke:#ff0000;" x="444" xlink:href="#mceb97ec46d" y="294.344828"/>
     <use style="fill:#ff0000;stroke:#ff0000;" x="462.6" xlink:href="#mceb97ec46d" y="295.897106"/>
     <use style="fill:#ff0000;stroke:#ff0000;" x="481.2" xlink:href="#mceb97ec46d" y="292.490157"/>
     <use style="fill:#ff0000;stroke:#ff0000;" x="499.8" xlink:href="#mceb97ec46d" y="294.506103"/>
     <use style="fill:#ff0000;stroke:#ff0000;" x="518.4" xlink:href="#mceb97ec46d" y="294.304509"/>
    </g>
   </g>
   <g id="line2d_22">
    <path clip-path="url(#p82888841de)" d="M 72 55.8 
L 90.6 58.035716 
L 109.2 58.035716 
L 127.8 57.707551 
L 146.4 57.707551 
L 165 57.707551 
L 183.6 57.707551 
L 202.2 57.982343 
L 220.8 57.707551 
L 239.4 57.707551 
L 258 57.729701 
L 276.6 57.729701 
L 295.2 57.729701 
L 313.8 58.174993 
L 332.4 58.149123 
L 351 55.981089 
L 369.6 58.163721 
L 388.2 58.163721 
L 406.8 58.163721 
L 425.4 58.133342 
L 444 59.993155 
L 462.6 58.133342 
L 481.2 58.602236 
L 499.8 58.633468 
L 518.4 58.630339 
" style="fill:none;stroke:#008000;stroke-linecap:square;"/>
    <defs>
     <path d="M 0 1.5 
C 0.397805 1.5 0.77937 1.341951 1.06066 1.06066 
C 1.341951 0.77937 1.5 0.397805 1.5 0 
C 1.5 -0.397805 1.341951 -0.77937 1.06066 -1.06066 
C 0.77937 -1.341951 0.397805 -1.5 0 -1.5 
C -0.397805 -1.5 -0.77937 -1.341951 -1.06066 -1.06066 
C -1.341951 -0.77937 -1.5 -0.397805 -1.5 0 
C -1.5 0.397805 -1.341951 0.77937 -1.06066 1.06066 
C -0.77937 1.341951 -0.397805 1.5 0 1.5 
z
" id="mbec5711d66" style="stroke:#008000;"/>
    </defs>
    <g clip-path="url(#p82888841de)">
     <use style="fill:#008000;stroke:#008000;" x="72" xlink:href="#mbec5711d66" y="55.8"/>
     <use style="fill:#008000;stroke:#008000;" x="90.6" xlink:href="#mbec5711d66" y="58.035716"/>
     <use style="fill:#008000;stroke:#008000;" x="109.2" xlink:href="#mbec5711d66" y="58.035716"/>
     <use style="fill:#008000;stroke:#008000;" x="127.8" xlink:href="#mbec5711d66" y="57.707551"/>
     <use style="fill:#008000;stroke:#008000;" x="146.4" xlink:href="#mbec5711d66" y="57.707551"/>
     <use style="fill:#008000;stroke:#008000;" x="165" xlink:href="#mbec5711d66" y="57.707551"/>
     <use style="fill:#008000;stroke:#008000;" x="183.6" xlink:href="#mbec5711d66" y="57.707551"/>
     <use style="fill:#008000;stroke:#008000;" x="202.2" xlink:href="#mbec5711d66" y="57.982343"/>
     <use style="fill:#008000;stroke:#008000;" x="220.8" xlink:href="#mbec5711d66" y="57.707551"/>
     <use style="fill:#008000;stroke:#008000;" x="239.4" xlink:href="#mbec5711d66" y="57.707551"/>
     <use style="fill:#008000;stroke:#008000;" x="258" xlink:href="#mbec5711d66" y="57.729701"/>
     <use style="fill:#008000;stroke:#008000;" x="276.6" xlink:href="#mbec5711d66" y="57.729701"/>
     <use style="fill:#008000;stroke:#008000;" x="295.2" xlink:href="#mbec5711d66" y="57.729701"/>
     <use style="fill:#008000;stroke:#008000;" x="313.8" xlink:href="#mbec5711d66" y="58.174993"/>
     <use style="fill:#008000;stroke:#008000;" x="332.4" xlink:href="#mbec5711d66" y="58.149123"/>
     <use style="fill:#008000;stroke:#008000;" x="351" xlink:href="#mbec5711d66" y="55.981089"/>
     <use style="fill:#008000;stroke:#008000;" x="369.6" xlink:href="#mbec5711d66" y="58.163721"/>
     <use style="fill:#008000;stroke:#008000;" x="388.2" xlink:href="#mbec5711d66" y="58.163721"/>
     <use style="fill:#008000;stroke:#008000;" x="406.8" xlink:href="#mbec5711d66" y="58.163721"/>
     <use style="fill:#008000;stroke:#008000;" x="425.4" xlink:href="#mbec5711d66" y="58.133342"/>
     <use style="fill:#008000;stroke:#008000;" x="444" xlink:href="#mbec5711d66" y="59.993155"/>
     <use style="fill:#008000;stroke:#008000;" x="462.6" xlink:href="#mbec5711d66" y="58.133342"/>
     <use style="fill:#008000;stroke:#008000;" x="481.2" xlink:href="#mbec5711d66" y="58.602236"/>
     <use style="fill:#008000;stroke:#008000;" x="499.8" xlink:href="#mbec5711d66" y="58.633468"/>
     <use style="fill:#008000;stroke:#008000;" x="518.4" xlink:href="#mbec5711d66" y="58.630339"/>
    </g>
   </g>
   <g id="line2d_23">
    <path clip-path="url(#p82888841de)" d="M 72 306.134769 
L 90.6 305.121749 
L 109.2 305.121749 
L 127.8 306.260667 
L 146.4 306.260667 
L 165 306.260667 
L 183.6 306.260667 
L 202.2 303.209102 
L 220.8 306.260667 
L 239.4 306.260667 
L 258 307.758613 
L 276.6 307.758613 
L 295.2 307.758613 
L 313.8 307.8 
L 332.4 306.102832 
L 351 306.704289 
L 369.6 307.061233 
L 388.2 307.061233 
L 406.8 307.061233 
L 425.4 305.064564 
L 444 304.71733 
L 462.6 305.064564 
L 481.2 302.02 
L 499.8 304.015977 
L 518.4 303.816379 
" style="fill:none;stroke:#0000ff;stroke-linecap:square;"/>
    <defs>
     <path d="M 0 1.5 
C 0.397805 1.5 0.77937 1.341951 1.06066 1.06066 
C 1.341951 0.77937 1.5 0.397805 1.5 0 
C 1.5 -0.397805 1.341951 -0.77937 1.06066 -1.06066 
C 0.77937 -1.341951 0.397805 -1.5 0 -1.5 
C -0.397805 -1.5 -0.77937 -1.341951 -1.06066 -1.06066 
C -1.341951 -0.77937 -1.5 -0.397805 -1.5 0 
C -1.5 0.397805 -1.341951 0.77937 -1.06066 1.06066 
C -0.77937 1.341951 -0.397805 1.5 0 1.5 
z
" id="m0200b0908d" style="stroke:#0000ff;"/>
    </defs>
    <g clip-path="url(#p82888841de)">
     <use style="fill:#0000ff;stroke:#0000ff;" x="72" xlink:href="#m0200b0908d" y="306.134769"/>
     <use style="fill:#0000ff;stroke:#0000ff;" x="90.6" xlink:href="#m0200b0908d" y="305.121749"/>
     <use style="fill:#0000ff;stroke:#0000ff;" x="109.2" xlink:href="#m0200b0908d" y="305.121749"/>
     <use style="fill:#0000ff;stroke:#0000ff;" x="127.8" xlink:href="#m0200b0908d" y="306.260667"/>
     <use style="fill:#0000ff;stroke:#0000ff;" x="146.4" xlink:href="#m0200b0908d" y="306.260667"/>
     <use style="fill:#0000ff;stroke:#0000ff;" x="165" xlink:href="#m0200b0908d" y="306.260667"/>
     <use style="fill:#0000ff;stroke:#0000ff;" x="183.6" xlink:href="#m0200b0908d" y="306.260667"/>
     <use style="fill:#0000ff;stroke:#0000ff;" x="202.2" xlink:href="#m0200b0908d" y="303.209102"/>
     <use style="fill:#0000ff;stroke:#0000ff;" x="220.8" xlink:href="#m0200b0908d" y="306.260667"/>
     <use style="fill:#0000ff;stroke:#0000ff;" x="239.4" xlink:href="#m0200b0908d" y="306.260667"/>
     <use style="fill:#0000ff;stroke:#0000ff;" x="258" xlink:href="#m0200b0908d" y="307.758613"/>
     <use style="fill:#0000ff;stroke:#0000ff;" x="276.6" xlink:href="#m0200b0908d" y="307.758613"/>
     <use style="fill:#0000ff;stroke:#0000ff;" x="295.2" xlink:href="#m0200b0908d" y="307.758613"/>
     <use style="fill:#0000ff;stroke:#0000ff;" x="313.8" xlink:href="#m0200b0908d" y="307.8"/>
     <use style="fill:#0000ff;stroke:#0000ff;" x="332.4" xlink:href="#m0200b0908d" y="306.102832"/>
     <use style="fill:#0000ff;stroke:#0000ff;" x="351" xlink:href="#m0200b0908d" y="306.704289"/>
     <use style="fill:#0000ff;stroke:#0000ff;" x="369.6" xlink:href="#m0200b0908d" y="307.061233"/>
     <use style="fill:#0000ff;stroke:#0000ff;" x="388.2" xlink:href="#m0200b0908d" y="307.061233"/>
     <use style="fill:#0000ff;stroke:#0000ff;" x="406.8" xlink:href="#m0200b0908d" y="307.061233"/>
     <use style="fill:#0000ff;stroke:#0000ff;" x="425.4" xlink:href="#m0200b0908d" y="305.064564"/>
     <use style="fill:#0000ff;stroke:#0000ff;" x="444" xlink:href="#m0200b0908d" y="304.71733"/>
     <use style="fill:#0000ff;stroke:#0000ff;" x="462.6" xlink:href="#m0200b0908d" y="305.064564"/>
     <use style="fill:#0000ff;stroke:#0000ff;" x="481.2" xlink:href="#m0200b0908d" y="302.02"/>
     <use style="fill:#0000ff;stroke:#0000ff;" x="499.8" xlink:href="#m0200b0908d" y="304.015977"/>
     <use style="fill:#0000ff;stroke:#0000ff;" x="518.4" xlink:href="#m0200b0908d" y="303.816379"/>
    </g>
   </g>
   <g id="patch_3">
    <path d="M 72 320.4 
L 72 43.2 
" style="fill:none;stroke:#000000;stroke-linecap:square;stroke-linejoin:miter;stroke-width:0.8;"/>
   </g>
   <g id="patch_4">
    <path d="M 72 320.4 
L 518.4 320.4 
" style="fill:none;stroke:#000000;stroke-linecap:square;stroke-linejoin:miter;stroke-width:0.8;"/>
   </g>
   <g id="text_13">
    <!-- values of metrics as the change of kernel_size -->
    <defs>
     <path d="M 1.515625 54.6875 
L 19 54.6875 
L 32.625 16.890625 
L 46.1875 54.6875 
L 63.71875 54.6875 
L 42.1875 0 
L 23 0 
z
" id="DejaVuSans-Bold-118"/>
     <path d="M 32.90625 24.609375 
Q 27.4375 24.609375 24.671875 22.75 
Q 21.921875 20.90625 21.921875 17.28125 
Q 21.921875 13.96875 24.140625 12.078125 
Q 26.375 10.203125 30.328125 10.203125 
Q 35.25 10.203125 38.625 13.734375 
Q 42 17.28125 42 22.609375 
L 42 24.609375 
z
M 59.625 31.203125 
L 59.625 0 
L 42 0 
L 42 8.109375 
Q 38.484375 3.125 34.078125 0.84375 
Q 29.6875 -1.421875 23.390625 -1.421875 
Q 14.890625 -1.421875 9.59375 3.53125 
Q 4.296875 8.5 4.296875 16.40625 
Q 4.296875 26.03125 10.90625 30.515625 
Q 17.53125 35.015625 31.6875 35.015625 
L 42 35.015625 
L 42 36.375 
Q 42 40.53125 38.71875 42.453125 
Q 35.453125 44.390625 28.515625 44.390625 
Q 22.90625 44.390625 18.0625 43.265625 
Q 13.234375 42.140625 9.078125 39.890625 
L 9.078125 53.21875 
Q 14.703125 54.59375 20.359375 55.296875 
Q 26.03125 56 31.6875 56 
Q 46.484375 56 53.046875 50.171875 
Q 59.625 44.34375 59.625 31.203125 
z
" id="DejaVuSans-Bold-97"/>
     <path d="M 7.8125 21.296875 
L 7.8125 54.6875 
L 25.390625 54.6875 
L 25.390625 49.21875 
Q 25.390625 44.78125 25.34375 38.0625 
Q 25.296875 31.34375 25.296875 29.109375 
Q 25.296875 22.515625 25.640625 19.609375 
Q 25.984375 16.703125 26.8125 15.375 
Q 27.875 13.671875 29.609375 12.734375 
Q 31.34375 11.8125 33.59375 11.8125 
Q 39.0625 11.8125 42.1875 16.015625 
Q 45.3125 20.21875 45.3125 27.6875 
L 45.3125 54.6875 
L 62.796875 54.6875 
L 62.796875 0 
L 45.3125 0 
L 45.3125 7.90625 
Q 41.359375 3.125 36.9375 0.84375 
Q 32.515625 -1.421875 27.203125 -1.421875 
Q 17.71875 -1.421875 12.765625 4.390625 
Q 7.8125 10.203125 7.8125 21.296875 
z
" id="DejaVuSans-Bold-117"/>
     <path id="DejaVuSans-Bold-32"/>
     <path d="M 44.390625 75.984375 
L 44.390625 64.5 
L 34.71875 64.5 
Q 31 64.5 29.53125 63.15625 
Q 28.078125 61.8125 28.078125 58.5 
L 28.078125 54.6875 
L 43.015625 54.6875 
L 43.015625 42.1875 
L 28.078125 42.1875 
L 28.078125 0 
L 10.59375 0 
L 10.59375 42.1875 
L 1.90625 42.1875 
L 1.90625 54.6875 
L 10.59375 54.6875 
L 10.59375 58.5 
Q 10.59375 67.4375 15.578125 71.703125 
Q 20.5625 75.984375 31 75.984375 
z
" id="DejaVuSans-Bold-102"/>
     <path d="M 59.078125 45.609375 
Q 62.40625 50.6875 66.96875 53.34375 
Q 71.53125 56 77 56 
Q 86.421875 56 91.359375 50.1875 
Q 96.296875 44.390625 96.296875 33.296875 
L 96.296875 0 
L 78.71875 0 
L 78.71875 28.515625 
Q 78.765625 29.15625 78.78125 29.828125 
Q 78.8125 30.515625 78.8125 31.78125 
Q 78.8125 37.59375 77.09375 40.203125 
Q 75.390625 42.828125 71.578125 42.828125 
Q 66.609375 42.828125 63.890625 38.71875 
Q 61.1875 34.625 61.078125 26.859375 
L 61.078125 0 
L 43.5 0 
L 43.5 28.515625 
Q 43.5 37.59375 41.9375 40.203125 
Q 40.375 42.828125 36.375 42.828125 
Q 31.34375 42.828125 28.609375 38.703125 
Q 25.875 34.578125 25.875 26.90625 
L 25.875 0 
L 8.296875 0 
L 8.296875 54.6875 
L 25.875 54.6875 
L 25.875 46.6875 
Q 29.109375 51.3125 33.28125 53.65625 
Q 37.453125 56 42.484375 56 
Q 48.140625 56 52.484375 53.265625 
Q 56.84375 50.53125 59.078125 45.609375 
z
" id="DejaVuSans-Bold-109"/>
     <path d="M 27.484375 70.21875 
L 27.484375 54.6875 
L 45.515625 54.6875 
L 45.515625 42.1875 
L 27.484375 42.1875 
L 27.484375 19 
Q 27.484375 15.1875 29 13.84375 
Q 30.515625 12.5 35.015625 12.5 
L 44 12.5 
L 44 0 
L 29 0 
Q 18.65625 0 14.328125 4.3125 
Q 10.015625 8.640625 10.015625 19 
L 10.015625 42.1875 
L 1.3125 42.1875 
L 1.3125 54.6875 
L 10.015625 54.6875 
L 10.015625 70.21875 
z
" id="DejaVuSans-Bold-116"/>
     <path d="M 63.375 33.296875 
L 63.375 0 
L 45.796875 0 
L 45.796875 5.421875 
L 45.796875 25.390625 
Q 45.796875 32.5625 45.484375 35.25 
Q 45.171875 37.9375 44.390625 39.203125 
Q 43.359375 40.921875 41.59375 41.875 
Q 39.84375 42.828125 37.59375 42.828125 
Q 32.125 42.828125 29 38.59375 
Q 25.875 34.375 25.875 26.90625 
L 25.875 0 
L 8.40625 0 
L 8.40625 75.984375 
L 25.875 75.984375 
L 25.875 46.6875 
Q 29.828125 51.46875 34.265625 53.734375 
Q 38.71875 56 44.09375 56 
Q 53.5625 56 58.46875 50.1875 
Q 63.375 44.390625 63.375 33.296875 
z
" id="DejaVuSans-Bold-104"/>
     <path d="M 45.609375 9.28125 
Q 42 4.5 37.640625 2.25 
Q 33.296875 0 27.59375 0 
Q 17.578125 0 11.03125 7.875 
Q 4.5 15.765625 4.5 27.984375 
Q 4.5 40.234375 11.03125 48.0625 
Q 17.578125 55.90625 27.59375 55.90625 
Q 33.296875 55.90625 37.640625 53.65625 
Q 42 51.421875 45.609375 46.578125 
L 45.609375 54.6875 
L 63.1875 54.6875 
L 63.1875 5.515625 
Q 63.1875 -7.671875 54.859375 -14.625 
Q 46.53125 -21.578125 30.71875 -21.578125 
Q 25.59375 -21.578125 20.796875 -20.796875 
Q 16.015625 -20.015625 11.1875 -18.40625 
L 11.1875 -4.78125 
Q 15.765625 -7.421875 20.15625 -8.71875 
Q 24.5625 -10.015625 29 -10.015625 
Q 37.59375 -10.015625 41.59375 -6.25 
Q 45.609375 -2.484375 45.609375 5.515625 
z
M 34.078125 43.3125 
Q 28.65625 43.3125 25.625 39.296875 
Q 22.609375 35.296875 22.609375 27.984375 
Q 22.609375 20.453125 25.53125 16.578125 
Q 28.46875 12.703125 34.078125 12.703125 
Q 39.546875 12.703125 42.578125 16.703125 
Q 45.609375 20.703125 45.609375 27.984375 
Q 45.609375 35.296875 42.578125 39.296875 
Q 39.546875 43.3125 34.078125 43.3125 
z
" id="DejaVuSans-Bold-103"/>
    </defs>
    <g transform="translate(34.710938 37.2)scale(0.2 -0.2)">
     <use xlink:href="#DejaVuSans-Bold-118"/>
     <use x="65.185547" xlink:href="#DejaVuSans-Bold-97"/>
     <use x="132.666016" xlink:href="#DejaVuSans-Bold-108"/>
     <use x="166.943359" xlink:href="#DejaVuSans-Bold-117"/>
     <use x="238.134766" xlink:href="#DejaVuSans-Bold-101"/>
     <use x="305.957031" xlink:href="#DejaVuSans-Bold-115"/>
     <use x="365.478516" xlink:href="#DejaVuSans-Bold-32"/>
     <use x="400.292969" xlink:href="#DejaVuSans-Bold-111"/>
     <use x="468.994141" xlink:href="#DejaVuSans-Bold-102"/>
     <use x="512.5" xlink:href="#DejaVuSans-Bold-32"/>
     <use x="547.314453" xlink:href="#DejaVuSans-Bold-109"/>
     <use x="651.513672" xlink:href="#DejaVuSans-Bold-101"/>
     <use x="719.335938" xlink:href="#DejaVuSans-Bold-116"/>
     <use x="767.138672" xlink:href="#DejaVuSans-Bold-114"/>
     <use x="816.455078" xlink:href="#DejaVuSans-Bold-105"/>
     <use x="850.732422" xlink:href="#DejaVuSans-Bold-99"/>
     <use x="910.009766" xlink:href="#DejaVuSans-Bold-115"/>
     <use x="969.53125" xlink:href="#DejaVuSans-Bold-32"/>
     <use x="1004.345703" xlink:href="#DejaVuSans-Bold-97"/>
     <use x="1071.826172" xlink:href="#DejaVuSans-Bold-115"/>
     <use x="1131.347656" xlink:href="#DejaVuSans-Bold-32"/>
     <use x="1166.162109" xlink:href="#DejaVuSans-Bold-116"/>
     <use x="1213.964844" xlink:href="#DejaVuSans-Bold-104"/>
     <use x="1285.15625" xlink:href="#DejaVuSans-Bold-101"/>
     <use x="1352.978516" xlink:href="#DejaVuSans-Bold-32"/>
     <use x="1387.792969" xlink:href="#DejaVuSans-Bold-99"/>
     <use x="1447.070312" xlink:href="#DejaVuSans-Bold-104"/>
     <use x="1518.261719" xlink:href="#DejaVuSans-Bold-97"/>
     <use x="1585.742188" xlink:href="#DejaVuSans-Bold-110"/>
     <use x="1656.933594" xlink:href="#DejaVuSans-Bold-103"/>
     <use x="1728.515625" xlink:href="#DejaVuSans-Bold-101"/>
     <use x="1796.337891" xlink:href="#DejaVuSans-Bold-32"/>
     <use x="1831.152344" xlink:href="#DejaVuSans-Bold-111"/>
     <use x="1899.853516" xlink:href="#DejaVuSans-Bold-102"/>
     <use x="1943.359375" xlink:href="#DejaVuSans-Bold-32"/>
     <use x="1978.173828" xlink:href="#DejaVuSans-Bold-107"/>
     <use x="2044.646484" xlink:href="#DejaVuSans-Bold-101"/>
     <use x="2112.46875" xlink:href="#DejaVuSans-Bold-114"/>
     <use x="2161.785156" xlink:href="#DejaVuSans-Bold-110"/>
     <use x="2232.976562" xlink:href="#DejaVuSans-Bold-101"/>
     <use x="2300.798828" xlink:href="#DejaVuSans-Bold-108"/>
     <use x="2335.076172" xlink:href="#DejaVuSans-Bold-95"/>
     <use x="2385.076172" xlink:href="#DejaVuSans-Bold-115"/>
     <use x="2444.597656" xlink:href="#DejaVuSans-Bold-105"/>
     <use x="2478.875" xlink:href="#DejaVuSans-Bold-122"/>
     <use x="2537.078125" xlink:href="#DejaVuSans-Bold-101"/>
    </g>
   </g>
   <g id="legend_1">
    <g id="patch_5">
     <path d="M 344.478437 215.545625 
L 511.4 215.545625 
Q 513.4 215.545625 513.4 213.545625 
L 513.4 150.054375 
Q 513.4 148.054375 511.4 148.054375 
L 344.478437 148.054375 
Q 342.478437 148.054375 342.478437 150.054375 
L 342.478437 213.545625 
Q 342.478437 215.545625 344.478437 215.545625 
z
" style="fill:#ffffff;opacity:0.8;stroke:#cccccc;stroke-linejoin:miter;"/>
    </g>
    <g id="line2d_24">
     <path d="M 346.478437 161.471719 
L 366.478437 161.471719 
" style="fill:none;stroke:#ff0000;stroke-linecap:square;"/>
    </g>
    <g id="line2d_25">
     <g>
      <use style="fill:#ff0000;stroke:#ff0000;" x="356.478437" xlink:href="#mceb97ec46d" y="161.471719"/>
     </g>
    </g>
    <g id="text_14">
     <!-- Completeness -->
     <defs>
      <path d="M 67 4 
Q 61.8125 1.3125 56.203125 -0.046875 
Q 50.59375 -1.421875 44.484375 -1.421875 
Q 26.265625 -1.421875 15.625 8.765625 
Q 4.984375 18.953125 4.984375 36.375 
Q 4.984375 53.859375 15.625 64.03125 
Q 26.265625 74.21875 44.484375 74.21875 
Q 50.59375 74.21875 56.203125 72.84375 
Q 61.8125 71.484375 67 68.796875 
L 67 53.71875 
Q 61.765625 57.28125 56.6875 58.9375 
Q 51.609375 60.59375 46 60.59375 
Q 35.9375 60.59375 30.171875 54.140625 
Q 24.421875 47.703125 24.421875 36.375 
Q 24.421875 25.09375 30.171875 18.640625 
Q 35.9375 12.203125 46 12.203125 
Q 51.609375 12.203125 56.6875 13.859375 
Q 61.765625 15.53125 67 19.09375 
z
" id="DejaVuSans-Bold-67"/>
      <path d="M 25.875 7.90625 
L 25.875 -20.796875 
L 8.40625 -20.796875 
L 8.40625 54.6875 
L 25.875 54.6875 
L 25.875 46.6875 
Q 29.5 51.46875 33.890625 53.734375 
Q 38.28125 56 44 56 
Q 54.109375 56 60.59375 47.96875 
Q 67.09375 39.9375 67.09375 27.296875 
Q 67.09375 14.65625 60.59375 6.609375 
Q 54.109375 -1.421875 44 -1.421875 
Q 38.28125 -1.421875 33.890625 0.84375 
Q 29.5 3.125 25.875 7.90625 
z
M 37.5 43.3125 
Q 31.890625 43.3125 28.875 39.1875 
Q 25.875 35.0625 25.875 27.296875 
Q 25.875 19.53125 28.875 15.40625 
Q 31.890625 11.28125 37.5 11.28125 
Q 43.109375 11.28125 46.0625 15.375 
Q 49.03125 19.484375 49.03125 27.296875 
Q 49.03125 35.109375 46.0625 39.203125 
Q 43.109375 43.3125 37.5 43.3125 
z
" id="DejaVuSans-Bold-112"/>
     </defs>
     <g transform="translate(374.478437 164.971719)scale(0.17 -0.17)">
      <use xlink:href="#DejaVuSans-Bold-67"/>
      <use x="73.388672" xlink:href="#DejaVuSans-Bold-111"/>
      <use x="142.089844" xlink:href="#DejaVuSans-Bold-109"/>
      <use x="246.289062" xlink:href="#DejaVuSans-Bold-112"/>
      <use x="317.871094" xlink:href="#DejaVuSans-Bold-108"/>
      <use x="352.148438" xlink:href="#DejaVuSans-Bold-101"/>
      <use x="419.970703" xlink:href="#DejaVuSans-Bold-116"/>
      <use x="467.773438" xlink:href="#DejaVuSans-Bold-101"/>
      <use x="535.595703" xlink:href="#DejaVuSans-Bold-110"/>
      <use x="606.787109" xlink:href="#DejaVuSans-Bold-101"/>
      <use x="674.609375" xlink:href="#DejaVuSans-Bold-115"/>
      <use x="734.130859" xlink:href="#DejaVuSans-Bold-115"/>
     </g>
    </g>
    <g id="line2d_26">
     <path d="M 346.478437 182.924531 
L 366.478437 182.924531 
" style="fill:none;stroke:#008000;stroke-linecap:square;"/>
    </g>
    <g id="line2d_27">
     <g>
      <use style="fill:#008000;stroke:#008000;" x="356.478437" xlink:href="#mbec5711d66" y="182.924531"/>
     </g>
    </g>
    <g id="text_15">
     <!-- Correctness -->
     <g transform="translate(374.478437 186.424531)scale(0.17 -0.17)">
      <use xlink:href="#DejaVuSans-Bold-67"/>
      <use x="73.388672" xlink:href="#DejaVuSans-Bold-111"/>
      <use x="142.089844" xlink:href="#DejaVuSans-Bold-114"/>
      <use x="191.40625" xlink:href="#DejaVuSans-Bold-114"/>
      <use x="240.722656" xlink:href="#DejaVuSans-Bold-101"/>
      <use x="308.544922" xlink:href="#DejaVuSans-Bold-99"/>
      <use x="367.822266" xlink:href="#DejaVuSans-Bold-116"/>
      <use x="415.625" xlink:href="#DejaVuSans-Bold-110"/>
      <use x="486.816406" xlink:href="#DejaVuSans-Bold-101"/>
      <use x="554.638672" xlink:href="#DejaVuSans-Bold-115"/>
      <use x="614.160156" xlink:href="#DejaVuSans-Bold-115"/>
     </g>
    </g>
    <g id="line2d_28">
     <path d="M 346.478437 204.377344 
L 366.478437 204.377344 
" style="fill:none;stroke:#0000ff;stroke-linecap:square;"/>
    </g>
    <g id="line2d_29">
     <g>
      <use style="fill:#0000ff;stroke:#0000ff;" x="356.478437" xlink:href="#m0200b0908d" y="204.377344"/>
     </g>
    </g>
    <g id="text_16">
     <!-- Quality -->
     <defs>
      <path d="M 44.484375 -1.3125 
L 43.015625 -1.3125 
Q 25 -1.3125 14.984375 8.640625 
Q 4.984375 18.609375 4.984375 36.375 
Q 4.984375 54.109375 14.96875 64.15625 
Q 24.953125 74.21875 42.484375 74.21875 
Q 60.203125 74.21875 70.09375 64.25 
Q 79.984375 54.296875 79.984375 36.375 
Q 79.984375 24.078125 74.734375 15.1875 
Q 69.484375 6.296875 59.625 1.8125 
L 74.3125 -14.59375 
L 56.390625 -14.59375 
z
M 42.484375 60.59375 
Q 33.890625 60.59375 29.15625 54.25 
Q 24.421875 47.90625 24.421875 36.375 
Q 24.421875 24.65625 29.046875 18.421875 
Q 33.6875 12.203125 42.484375 12.203125 
Q 51.125 12.203125 55.859375 18.546875 
Q 60.59375 24.90625 60.59375 36.375 
Q 60.59375 47.90625 55.859375 54.25 
Q 51.125 60.59375 42.484375 60.59375 
z
" id="DejaVuSans-Bold-81"/>
      <path d="M 1.21875 54.6875 
L 18.703125 54.6875 
L 33.40625 17.578125 
L 45.90625 54.6875 
L 63.375 54.6875 
L 40.375 -5.171875 
Q 36.921875 -14.3125 32.296875 -17.9375 
Q 27.6875 -21.578125 20.125 -21.578125 
L 10.015625 -21.578125 
L 10.015625 -10.109375 
L 15.484375 -10.109375 
Q 19.921875 -10.109375 21.9375 -8.6875 
Q 23.96875 -7.28125 25.09375 -3.609375 
L 25.59375 -2.09375 
z
" id="DejaVuSans-Bold-121"/>
     </defs>
     <g transform="translate(374.478437 207.877344)scale(0.17 -0.17)">
      <use xlink:href="#DejaVuSans-Bold-81"/>
      <use x="85.009766" xlink:href="#DejaVuSans-Bold-117"/>
      <use x="156.201172" xlink:href="#DejaVuSans-Bold-97"/>
      <use x="223.681641" xlink:href="#DejaVuSans-Bold-108"/>
      <use x="257.958984" xlink:href="#DejaVuSans-Bold-105"/>
      <use x="292.236328" xlink:href="#DejaVuSans-Bold-116"/>
      <use x="340.039062" xlink:href="#DejaVuSans-Bold-121"/>
     </g>
    </g>
   </g>
  </g>
 </g>
 <defs>
  <clipPath id="p82888841de">
   <rect height="277.2" width="446.4" x="72" y="43.2"/>
  </clipPath>
 </defs>
</svg>
